SplineFontDB: 3.0
FontName: Antonio-Bold
FullName: Antonio Bold
FamilyName: Antonio
Weight: Bold
Copyright: Copyright (c) 2011-12, vernon adams (vern@newtypography.co.uk), with Reserved Font Names 'Antonio'
Version: 1
ItalicAngle: 0
UnderlinePosition: 0
UnderlineWidth: 0
Ascent: 1638
Descent: 410
sfntRevision: 0x00010000
LayerCount: 2
Layer: 0 1 "Back"  1
Layer: 1 1 "Fore"  0
XUID: [1021 913 -2060267417 6982759]
FSType: 0
OS2Version: 4
OS2_WeightWidthSlopeOnly: 0
OS2_UseTypoMetrics: 1
CreationTime: 1375124463
ModificationTime: 1375124656
PfmFamily: 17
TTFWeight: 700
TTFWidth: 1
LineGap: 0
VLineGap: 0
Panose: 2 0 8 3 0 0 0 0 0 0
OS2TypoAscent: 2382
OS2TypoAOffset: 0
OS2TypoDescent: -670
OS2TypoDOffset: 0
OS2TypoLinegap: 0
OS2WinAscent: 2382
OS2WinAOffset: 0
OS2WinDescent: 670
OS2WinDOffset: 0
HheadAscent: 2382
HheadAOffset: 0
HheadDescent: -670
HheadDOffset: 0
OS2SubXSize: 1331
OS2SubYSize: 1433
OS2SubXOff: 0
OS2SubYOff: 286
OS2SupXSize: 1331
OS2SupYSize: 1433
OS2SupXOff: 0
OS2SupYOff: 983
OS2StrikeYSize: 102
OS2StrikeYPos: 530
OS2Vendor: 'newt'
OS2CodePages: 20000093.00000000
OS2UnicodeRanges: a00000ef.5000204b.00000000.00000000
Lookup: 258 0 0 "'kern' Horizontal Kerning in Latin lookup 0"  {"'kern' Horizontal Kerning in Latin lookup 0 subtable"  } ['kern' ('latn' <'dflt' > ) ]
Lookup: 258 0 0 "'kern' Horizontal Kerning in Latin lookup 1"  {"'kern' Horizontal Kerning in Latin lookup 1 subtable"  } ['kern' ('latn' <'dflt' > ) ]
DEI: 91125
KernClass2: 21 27 "'kern' Horizontal Kerning in Latin lookup 1 subtable" 
 89 A Agrave Aacute Acircumflex Atilde Adieresis Aring Amacron Abreve Aogonek uni0200 uni0202
 9 B uni1E02
 27 D Eth Dcaron Dcroat uni1E0A
 9 F uni1E1E
 52 G Gcircumflex Gbreve Gdotaccent Gcommaaccent uni01F4
 13 J Jcircumflex
 14 K Kcommaaccent
 28 L Lacute Lcommaaccent Lcaron
 9 P uni1E56
 44 R Racute Rcommaaccent Rcaron uni0210 uni0212
 1 V
 37 W Wcircumflex Wgrave Wacute Wdieresis
 37 Y Yacute Ycircumflex Ydieresis Ygrave
 9 f uni1E1F

StartChar: .notdef
Encoding: 65536 -1 0
Width: 748
Flags: W
LayerCount: 2
UndoRedoHistory
Layer: 1
Undoes
EndUndoes
Redoes
EndRedoes
EndUndoRedoHistory
Fore
SplineSet
136 68 m 1,0,-1
 544 68 l 1,1,-1
 544 1297 l 1,2,-1
 136 1297 l 1,3,-1
 136 68 l 1,0,-1
68 0 m 1,4,-1
 68 1365 l 1,5,-1
 612 1365 l 1,6,-1
 612 0 l 1,7,-1
 68 0 l 1,4,-1
EndSplineSet
EndChar

StartChar: exclam
Encoding: 33 33 4
Width: 514
Flags: W
LayerCount: 2
UndoRedoHistory
Layer: 1
Undoes
EndUndoes
Redoes
EndRedoes
EndUndoRedoHistory
Fore
SplineSet
126 256 m 1,0,-1
 386 256 l 1,1,-1
 386 0 l 1,2,-1
 126 0 l 1,3,-1
 126 256 l 1,0,-1
115 1761 m 1,4,-1
 399 1761 l 1,5,-1
 314 423 l 1,6,-1
 204 423 l 1,7,-1
 115 1761 l 1,4,-1
EndSplineSet
EndChar

StartChar: quotedbl
Encoding: 34 34 5
Width: 944
Flags: W
LayerCount: 2
UndoRedoHistory
Layer: 1
Undoes
EndUndoes
Redoes
EndRedoes
EndUndoRedoHistory
Fore
SplineSet
170 1761 m 1,0,-1
 415 1761 l 1,1,-1
 349 1125 l 1,2,-1
 241 1125 l 1,3,-1
 170 1761 l 1,0,-1
536 1761 m 1,4,-1
 780 1761 l 1,5,-1
 714 1125 l 1,6,-1
 606 1125 l 1,7,-1
 536 1761 l 1,4,-1
EndSplineSet
EndChar

StartChar: numbersign
Encoding: 35 35 6
Width: 1288
Flags: W
LayerCount: 2
UndoRedoHistory
Layer: 1
Undoes
EndUndoes
Redoes
EndRedoes
EndUndoRedoHistory
Fore
SplineSet
705 752 m 1,0,-1
 760 1028 l 1,1,-1
 571 1028 l 1,2,-1
 516 752 l 1,3,-1
 705 752 l 1,0,-1
905 1762 m 1,4,-1
 1122 1762 l 1,5,-1
 1011 1204 l 1,6,-1
 1134 1204 l 1,7,-1
 1134 1031 l 1,8,-1
 977 1031 l 1,9,-1
 922 753 l 1,10,-1
 1067 753 l 1,11,-1
 1067 579 l 1,12,-1
 887 579 l 1,13,-1
 773 0 l 1,14,-1
 557 0 l 1,15,-1
 670 579 l 1,16,-1
 482 579 l 1,17,-1
 369 0 l 1,18,-1
 153 0 l 1,19,-1
 266 579 l 1,20,-1
 140 579 l 1,21,-1
 140 753 l 1,22,-1
 300 753 l 1,23,-1
 355 1031 l 1,24,-1
 207 1031 l 1,25,-1
 207 1204 l 1,26,-1
 389 1204 l 1,27,-1
 501 1762 l 1,28,-1
 718 1762 l 1,29,-1
 605 1204 l 1,30,-1
 793 1204 l 1,31,-1
 905 1762 l 1,4,-1
EndSplineSet
EndChar

StartChar: dollar
Encoding: 36 36 7
Width: 902
Flags: W
LayerCount: 2
UndoRedoHistory
Layer: 1
Undoes
EndUndoes
Redoes
EndRedoes
EndUndoRedoHistory
Fore
SplineSet
334 419 m 2,0,1
 334 219 334 219 436 219 c 0,2,3
 489 219 489 219 513.5 254.5 c 128,-1,4
 538 290 538 290 538 375 c 0,5,6
 538 525 538 525 400 653 c 0,7,8
 395 657 395 657 335 711 c 128,-1,9
 275 765 275 765 265 775 c 0,10,11
 80 944 80 944 80 1172 c 0,12,13
 80 1520 80 1520 396 1539 c 1,14,-1
 396 1760 l 1,15,-1
 540 1760 l 1,16,-1
 540 1530 l 1,17,18
 680 1500 680 1500 735 1360 c 0,19,20
 773 1264 773 1264 773 1105 c 2,21,-1
 773 1023 l 1,22,-1
 536 1023 l 1,23,-1
 536 1122 l 2,24,25
 536 1224 536 1224 513 1273.5 c 128,-1,26
 490 1323 490 1323 436.5 1323 c 128,-1,27
 383 1323 383 1323 357.5 1292 c 128,-1,28
 332 1261 332 1261 332 1186 c 0,29,30
 332 1067 332 1067 438 965 c 1,31,-1
 580 836 l 1,32,33
 799 631 799 631 799 387 c 0,34,35
 799 63 799 63 549 13 c 1,36,-1
 549 -220 l 1,37,-1
 405 -220 l 1,38,-1
 405 4 l 1,39,40
 250 14 250 14 167.5 113 c 128,-1,41
 85 212 85 212 85 443 c 2,42,-1
 85 540 l 1,43,-1
 334 540 l 1,44,-1
 334 419 l 2,0,1
EndSplineSet
EndChar

StartChar: percent
Encoding: 37 37 8
Width: 2209
Flags: W
LayerCount: 2
UndoRedoHistory
Layer: 1
Undoes
EndUndoes
Redoes
EndRedoes
EndUndoRedoHistory
Fore
SplineSet
1854 830 m 2,0,1
 1854 920 1854 920 1830.5 956.5 c 0,2,3
 1808 993 1808 993 1742 993 c 128,-1,4
 1676 993 1676 993 1652.5 956.5 c 128,-1,5
 1629 920 1629 920 1629 830 c 2,6,-1
 1629 338 l 2,7,8
 1629 246 1629 246 1653.5 206.5 c 128,-1,9
 1678 167 1678 167 1742 167 c 128,-1,10
 1806 167 1806 167 1830 207 c 128,-1,11
 1854 247 1854 247 1854 338 c 2,12,-1
 1854 830 l 2,0,1
1403 762 m 2,13,14
 1403 985 1403 985 1480.5 1082.5 c 128,-1,15
 1558 1180 1558 1180 1741 1180 c 128,-1,16
 1924 1180 1924 1180 2002 1082.5 c 128,-1,17
 2080 985 2080 985 2080 762 c 2,18,-1
 2080 404 l 2,19,20
 2080 184 2080 184 1999.5 81.5 c 0,21,22
 1920 -21 1920 -21 1742 -21 c 128,-1,23
 1564 -21 1564 -21 1483.5 81.5 c 128,-1,24
 1403 184 1403 184 1403 404 c 2,25,-1
 1403 762 l 2,13,14
130 1363 m 2,26,27
 130 1586 130 1586 207.5 1683.5 c 128,-1,28
 285 1781 285 1781 468 1781 c 128,-1,29
 651 1781 651 1781 728.5 1683.5 c 128,-1,30
 806 1586 806 1586 806 1363 c 2,31,-1
 806 1005 l 2,32,33
 806 785 806 785 725.5 682.5 c 128,-1,34
 645 580 645 580 468 580 c 128,-1,35
 291 580 291 580 210.5 682.5 c 128,-1,36
 130 785 130 785 130 1005 c 2,37,-1
 130 1363 l 2,26,27
580 1431 m 2,38,39
 580 1521 580 1521 557 1557.5 c 128,-1,40
 534 1594 534 1594 468 1594 c 128,-1,41
 402 1594 402 1594 379 1557.5 c 128,-1,42
 356 1521 356 1521 356 1431 c 2,43,-1
 356 939 l 2,44,45
 356 847 356 847 380.5 807.5 c 128,-1,46
 405 768 405 768 468 768 c 128,-1,47
 531 768 531 768 555.5 807.5 c 128,-1,48
 580 847 580 847 580 939 c 2,49,-1
 580 1431 l 2,38,39
1347 1761 m 1,50,-1
 1551 1761 l 1,51,-1
 875 0 l 1,52,-1
 662 0 l 1,53,-1
 1347 1761 l 1,50,-1
EndSplineSet
EndChar

StartChar: ampersand
Encoding: 38 38 9
Width: 1052
Flags: W
LayerCount: 2
UndoRedoHistory
Layer: 1
Undoes
EndUndoes
Redoes
EndRedoes
EndUndoRedoHistory
Fore
SplineSet
530 1144 m 1,0,1
 662 1315 662 1315 662 1438 c 0,2,3
 662 1526 662 1526 640 1563 c 128,-1,4
 618 1600 618 1600 561 1600 c 0,5,6
 451 1600 451 1600 451 1441 c 0,7,8
 451 1368 451 1368 530 1144 c 1,0,1
442 706 m 1,9,10
 300 516 300 516 300 388 c 0,11,12
 300 209 300 209 439 209 c 0,13,14
 481 209 481 209 518 243 c 128,-1,15
 555 277 555 277 597 346 c 1,16,17
 518 524 518 524 442 706 c 1,9,10
295 1689.5 m 128,-1,19
 382 1781 382 1781 535 1781 c 128,-1,20
 688 1781 688 1781 767.5 1692 c 128,-1,21
 847 1603 847 1603 847 1454.5 c 128,-1,22
 847 1306 847 1306 785.5 1184.5 c 128,-1,23
 724 1063 724 1063 613 922 c 1,24,25
 656 809 656 809 742 601 c 1,26,27
 838 762 838 762 932 874 c 1,28,-1
 1041 690 l 1,29,30
 963 604 963 604 852 391 c 0,31,32
 844 376 844 376 840 369 c 1,33,34
 878 279 878 279 932.5 153 c 128,-1,35
 987 27 987 27 998 0 c 1,36,-1
 750 0 l 1,37,38
 737 32 737 32 693 130 c 1,39,40
 568 -20 568 -20 405.5 -20 c 128,-1,41
 243 -20 243 -20 158 83.5 c 128,-1,42
 73 187 73 187 73 378 c 0,43,44
 72 524 72 524 160 670 c 0,45,46
 233 791 233 791 351 930 c 1,47,48
 208 1300 208 1300 208 1449 c 128,-1,18
 208 1598 208 1598 295 1689.5 c 128,-1,19
EndSplineSet
EndChar

StartChar: quotesingle
Encoding: 39 39 10
Width: 423
Flags: W
LayerCount: 2
UndoRedoHistory
Layer: 1
Undoes
EndUndoes
Redoes
EndRedoes
EndUndoRedoHistory
Fore
SplineSet
100 1761 m 1,0,-1
 338 1761 l 1,1,-1
 273 1125 l 1,2,-1
 160 1125 l 1,3,-1
 100 1761 l 1,0,-1
EndSplineSet
EndChar

StartChar: parenleft
Encoding: 40 40 11
Width: 619
Flags: W
LayerCount: 2
UndoRedoHistory
Layer: 1
Undoes
EndUndoes
Redoes
EndRedoes
EndUndoRedoHistory
Fore
SplineSet
129 1374 m 2,0,1
 129 1511 129 1511 149.5 1597.5 c 128,-1,2
 170 1684 170 1684 220.5 1734.5 c 128,-1,3
 271 1785 271 1785 344 1804 c 128,-1,4
 417 1823 417 1823 534 1823 c 1,5,-1
 534 1623 l 1,6,7
 445 1623 445 1623 420 1576.5 c 128,-1,8
 395 1530 395 1530 395 1378 c 2,9,-1
 395 309 l 2,10,11
 395 157 395 157 420 110.5 c 128,-1,12
 445 64 445 64 534 64 c 1,13,-1
 534 -136 l 1,14,15
 417 -136 417 -136 344 -117 c 128,-1,16
 271 -98 271 -98 220.5 -47.5 c 128,-1,17
 170 3 170 3 149.5 89.5 c 128,-1,18
 129 176 129 176 129 313 c 2,19,-1
 129 1374 l 2,0,1
EndSplineSet
EndChar

StartChar: parenright
Encoding: 41 41 12
Width: 619
Flags: W
LayerCount: 2
UndoRedoHistory
Layer: 1
Undoes
EndUndoes
Redoes
EndRedoes
EndUndoRedoHistory
Fore
SplineSet
490 1374 m 2,0,-1
 490 313 l 2,1,2
 490 176 490 176 469.5 89.5 c 128,-1,3
 449 3 449 3 399 -47.5 c 128,-1,4
 349 -98 349 -98 276 -117 c 128,-1,5
 203 -136 203 -136 86 -136 c 1,6,-1
 86 64 l 1,7,8
 175 64 175 64 200 110.5 c 128,-1,9
 225 157 225 157 225 309 c 2,10,-1
 225 1378 l 2,11,12
 225 1530 225 1530 200 1576.5 c 128,-1,13
 175 1623 175 1623 86 1623 c 1,14,-1
 86 1823 l 1,15,16
 203 1823 203 1823 276 1804 c 128,-1,17
 349 1785 349 1785 399 1734.5 c 128,-1,18
 449 1684 449 1684 469.5 1597.5 c 128,-1,19
 490 1511 490 1511 490 1374 c 2,0,-1
EndSplineSet
EndChar

StartChar: asterisk
Encoding: 42 42 13
Width: 960
Flags: W
LayerCount: 2
UndoRedoHistory
Layer: 1
Undoes
EndUndoes
Redoes
EndRedoes
EndUndoRedoHistory
Fore
SplineSet
386 1673 m 1,0,-1
 574 1673 l 1,1,-1
 546 1395 l 1,2,-1
 774 1568 l 1,3,-1
 869 1404 l 1,4,-1
 605 1285 l 1,5,-1
 869 1158 l 1,6,-1
 774 995 l 1,7,-1
 546 1174 l 1,8,-1
 574 889 l 1,9,-1
 386 889 l 1,10,-1
 421 1180 l 1,11,-1
 190 998 l 1,12,-1
 95 1162 l 1,13,-1
 355 1285 l 1,14,-1
 91 1400 l 1,15,-1
 186 1564 l 1,16,-1
 420 1391 l 1,17,-1
 386 1673 l 1,0,-1
EndSplineSet
EndChar

StartChar: plus
Encoding: 43 43 14
Width: 808
Flags: W
LayerCount: 2
UndoRedoHistory
Layer: 1
Undoes
EndUndoes
Redoes
EndRedoes
EndUndoRedoHistory
Fore
SplineSet
312 1062 m 1,0,-1
 494 1062 l 1,1,-1
 494 831 l 1,2,-1
 713 831 l 1,3,-1
 713 654 l 1,4,-1
 494 654 l 1,5,-1
 494 421 l 1,6,-1
 312 421 l 1,7,-1
 312 654 l 1,8,-1
 94 654 l 1,9,-1
 94 831 l 1,10,-1
 312 831 l 1,11,-1
 312 1062 l 1,0,-1
EndSplineSet
EndChar

StartChar: comma
Encoding: 44 44 15
Width: 488
Flags: W
LayerCount: 2
UndoRedoHistory
Layer: 1
Undoes
EndUndoes
Redoes
EndRedoes
EndUndoRedoHistory
Fore
SplineSet
117 268 m 1,0,-1
 405 268 l 1,1,-1
 405 9 l 1,2,-1
 303 -338 l 1,3,-1
 172 -338 l 1,4,-1
 242 0 l 1,5,-1
 117 0 l 1,6,-1
 117 268 l 1,0,-1
EndSplineSet
EndChar

StartChar: hyphen
Encoding: 45 45 16
Width: 696
Flags: W
LayerCount: 2
UndoRedoHistory
Layer: 1
Undoes
EndUndoes
Redoes
EndRedoes
EndUndoRedoHistory
Fore
SplineSet
89 836 m 1,0,-1
 567 836 l 1,1,-1
 567 661 l 1,2,-1
 89 661 l 1,3,-1
 89 836 l 1,0,-1
EndSplineSet
EndChar

StartChar: period
Encoding: 46 46 17
Width: 532
Flags: W
LayerCount: 2
UndoRedoHistory
Layer: 1
Undoes
EndUndoes
Redoes
EndRedoes
EndUndoRedoHistory
Fore
SplineSet
149 246 m 1,0,-1
 374 246 l 1,1,-1
 374 0 l 1,2,-1
 149 0 l 1,3,-1
 149 246 l 1,0,-1
EndSplineSet
EndChar

StartChar: slash
Encoding: 47 47 18
Width: 826
Flags: W
LayerCount: 2
UndoRedoHistory
Layer: 1
Undoes
EndUndoes
Redoes
EndRedoes
EndUndoRedoHistory
Fore
SplineSet
513 1769 m 1,0,-1
 748 1769 l 1,1,-1
 320 0 l 1,2,-1
 86 0 l 1,3,-1
 513 1769 l 1,0,-1
EndSplineSet
EndChar

StartChar: zero
Encoding: 48 48 19
Width: 1010
Flags: W
LayerCount: 2
UndoRedoHistory
Layer: 1
Undoes
EndUndoes
Redoes
EndRedoes
EndUndoRedoHistory
Fore
SplineSet
631 1327 m 2,0,1
 630 1522 630 1522 540 1546 c 0,2,3
 522 1550 522 1550 496.5 1550 c 128,-1,4
 471 1550 471 1550 450.5 1543 c 128,-1,5
 430 1536 430 1536 410 1514 c 0,6,7
 370 1471 370 1471 370 1328 c 2,8,-1
 370 470 l 2,9,10
 370 306 370 306 405 254 c 0,11,12
 435 210 435 210 500 210 c 0,13,14
 601 210 601 210 622 336 c 0,15,16
 631 389 631 389 631 470 c 2,17,-1
 631 1327 l 2,0,1
103 1316 m 2,18,19
 103 1548 103 1548 198.5 1664.5 c 128,-1,20
 294 1781 294 1781 501 1781 c 128,-1,21
 708 1781 708 1781 803.5 1664.5 c 128,-1,22
 899 1548 899 1548 899 1316 c 2,23,-1
 899 475 l 2,24,25
 899 231 899 231 804.5 105 c 128,-1,26
 710 -21 710 -21 501 -21 c 128,-1,27
 292 -21 292 -21 197.5 105 c 128,-1,28
 103 231 103 231 103 475 c 2,29,-1
 103 1316 l 2,18,19
EndSplineSet
EndChar

StartChar: one
Encoding: 49 49 20
Width: 676
Flags: W
LayerCount: 2
UndoRedoHistory
Layer: 1
Undoes
EndUndoes
Redoes
EndRedoes
EndUndoRedoHistory
Fore
SplineSet
318 1761 m 1,0,-1
 526 1761 l 1,1,-1
 526 0 l 1,2,-1
 258 0 l 1,3,-1
 258 1428 l 1,4,5
 224 1387 224 1387 162 1364.5 c 128,-1,6
 100 1342 100 1342 40 1342 c 1,7,-1
 40 1541 l 1,8,9
 125 1553 125 1553 201.5 1610 c 128,-1,10
 278 1667 278 1667 318 1761 c 1,0,-1
EndSplineSet
EndChar

StartChar: two
Encoding: 50 50 21
Width: 951
Flags: W
LayerCount: 2
UndoRedoHistory
Layer: 1
Undoes
EndUndoes
Redoes
EndRedoes
EndUndoRedoHistory
Fore
SplineSet
160 0 m 1,0,-1
 160 104 l 2,1,2
 160 242 160 242 205.5 375.5 c 128,-1,3
 251 509 251 509 348 679 c 0,4,5
 352 685 352 685 421 804 c 128,-1,6
 490 923 490 923 522 968 c 1,7,8
 558 1027 558 1027 579 1119.5 c 128,-1,9
 600 1212 600 1212 600 1327 c 0,10,11
 600 1549 600 1549 504 1549 c 0,12,13
 424 1549 424 1549 405 1423 c 0,14,15
 397 1369 397 1369 397 1288 c 2,16,-1
 397 1065 l 1,17,-1
 141 1065 l 1,18,-1
 141 1173 l 2,19,20
 141 1500 141 1500 205 1620 c 0,21,22
 264 1730 264 1730 372 1762 c 0,23,24
 432 1780 432 1780 517 1780 c 128,-1,25
 602 1780 602 1780 669.5 1742 c 0,26,27
 736 1704 736 1704 776 1636 c 0,28,29
 854 1503 854 1503 854 1293 c 0,30,31
 854 1076 854 1076 763 900 c 0,32,33
 688 754 688 754 607 629 c 0,34,35
 459 400 459 400 415 210 c 1,36,-1
 821 210 l 1,37,-1
 821 0 l 1,38,-1
 160 0 l 1,0,-1
EndSplineSet
EndChar

StartChar: three
Encoding: 51 51 22
Width: 960
Flags: W
LayerCount: 2
UndoRedoHistory
Layer: 1
Undoes
EndUndoes
Redoes
EndRedoes
EndUndoRedoHistory
Fore
SplineSet
107 1316 m 2,0,1
 107 1557 107 1557 192 1668.5 c 0,2,3
 276 1780 276 1780 476 1780 c 128,-1,4
 676 1780 676 1780 770 1665 c 128,-1,5
 864 1550 864 1550 864 1316 c 0,6,7
 864 1171 864 1171 819 1072.5 c 128,-1,8
 774 974 774 974 683 941 c 1,9,10
 783 894 783 894 825 785 c 128,-1,11
 867 676 867 676 867 503 c 0,12,13
 867 239 867 239 774 109.5 c 0,14,15
 682 -20 682 -20 476 -20 c 128,-1,16
 270 -20 270 -20 187.5 98.5 c 128,-1,17
 105 217 105 217 105 474 c 2,18,-1
 105 589 l 1,19,-1
 356 589 l 1,20,-1
 356 467 l 2,21,22
 356 322 356 322 378.5 266 c 128,-1,23
 401 210 401 210 477 210 c 128,-1,24
 553 210 553 210 578.5 277.5 c 0,25,26
 604 344 604 344 604 514 c 128,-1,27
 604 684 604 684 571 756 c 128,-1,28
 538 828 538 828 442 828 c 2,29,-1
 366 828 l 1,30,-1
 366 1032 l 1,31,-1
 440 1032 l 2,32,33
 534 1032 534 1032 569 1095.5 c 128,-1,34
 604 1159 604 1159 604 1304 c 128,-1,35
 604 1449 604 1449 574.5 1499 c 128,-1,36
 545 1549 545 1549 481 1549 c 128,-1,37
 417 1549 417 1549 391.5 1496.5 c 128,-1,38
 366 1444 366 1444 366 1314 c 2,39,-1
 366 1261 l 1,40,-1
 107 1261 l 1,41,-1
 107 1316 l 2,0,1
EndSplineSet
EndChar

StartChar: four
Encoding: 52 52 23
Width: 951
Flags: W
LayerCount: 2
UndoRedoHistory
Layer: 1
Undoes
EndUndoes
Redoes
EndRedoes
EndUndoRedoHistory
Fore
SplineSet
524 526 m 1,0,-1
 524 1395 l 1,1,-1
 297 526 l 1,2,-1
 524 526 l 1,0,-1
477 1761 m 1,3,-1
 763 1761 l 1,4,-1
 763 526 l 1,5,-1
 899 526 l 1,6,-1
 899 310 l 1,7,-1
 763 310 l 1,8,-1
 763 -1 l 1,9,-1
 524 -1 l 1,10,-1
 524 310 l 1,11,-1
 90 310 l 1,12,-1
 90 507 l 1,13,-1
 477 1761 l 1,3,-1
EndSplineSet
EndChar

StartChar: five
Encoding: 53 53 24
Width: 951
Flags: W
LayerCount: 2
UndoRedoHistory
Layer: 1
Undoes
EndUndoes
Redoes
EndRedoes
EndUndoRedoHistory
Fore
SplineSet
133 1760 m 1,0,-1
 784 1760 l 1,1,-1
 784 1520 l 1,2,-1
 380 1520 l 1,3,-1
 380 1163 l 1,4,5
 399 1200 399 1200 448.5 1223 c 128,-1,6
 498 1246 498 1246 557 1246 c 0,7,8
 711 1246 711 1246 771 1110.5 c 128,-1,9
 831 975 831 975 831 668 c 0,10,11
 831 386 831 386 817.5 311 c 128,-1,12
 804 236 804 236 791.5 188.5 c 128,-1,13
 779 141 779 141 759.5 111.5 c 128,-1,14
 740 82 740 82 713.5 54.5 c 128,-1,15
 687 27 687 27 652 12 c 0,16,17
 577 -20 577 -20 471 -20 c 0,18,19
 122 -20 122 -20 122 343 c 2,20,-1
 122 564 l 1,21,-1
 373 564 l 1,22,-1
 373 371 l 2,23,24
 373 248 373 248 420 220 c 0,25,26
 440 208 440 208 483 209 c 0,27,28
 571 209 571 209 571 382 c 2,29,-1
 571 832 l 2,30,31
 571 928 571 928 551 975.5 c 128,-1,32
 531 1023 531 1023 473 1023 c 0,33,34
 369 1023 369 1023 369 852 c 1,35,-1
 133 862 l 1,36,-1
 133 1760 l 1,0,-1
EndSplineSet
EndChar

StartChar: six
Encoding: 54 54 25
Width: 951
Flags: W
LayerCount: 2
UndoRedoHistory
Layer: 1
Undoes
EndUndoes
Redoes
EndRedoes
EndUndoRedoHistory
Fore
SplineSet
370 1019 m 1,0,1
 433 1103 433 1103 589 1103 c 128,-1,2
 745 1103 745 1103 813 978 c 128,-1,3
 881 853 881 853 881 580 c 2,4,-1
 881 483 l 2,5,6
 882 230 882 230 804 108 c 0,7,8
 722 -21 722 -21 499 -21 c 0,9,10
 225 -20 225 -20 148 188 c 0,11,12
 102 313 102 313 102 527 c 2,13,-1
 102 1250 l 2,14,15
 102 1632 102 1632 278 1732 c 0,16,17
 364 1780 364 1780 502 1781 c 0,18,19
 681 1781 681 1781 762.5 1679.5 c 128,-1,20
 844 1578 844 1578 845 1336 c 1,21,-1
 845 1245 l 1,22,-1
 595 1245 l 1,23,-1
 595 1281 l 2,24,25
 595 1440 595 1440 577 1494 c 128,-1,26
 559 1548 559 1548 487 1548 c 128,-1,27
 415 1548 415 1548 392.5 1490 c 128,-1,28
 370 1432 370 1432 370 1270 c 2,29,-1
 370 1019 l 1,0,1
370 459 m 2,30,31
 370 328 370 328 398.5 270 c 128,-1,32
 427 212 427 212 499 212 c 128,-1,33
 571 212 571 212 596.5 259 c 128,-1,34
 622 306 622 306 622 434 c 2,35,-1
 622 601 l 2,36,37
 622 749 622 749 596.5 810 c 128,-1,38
 571 871 571 871 510 871 c 128,-1,39
 449 871 449 871 412.5 843.5 c 128,-1,40
 376 816 376 816 370 777 c 1,41,-1
 370 459 l 2,30,31
EndSplineSet
EndChar

StartChar: seven
Encoding: 55 55 26
Width: 951
Flags: W
LayerCount: 2
UndoRedoHistory
Layer: 1
Undoes
EndUndoes
Redoes
EndRedoes
EndUndoRedoHistory
Fore
SplineSet
104 1761 m 1,0,-1
 881 1761 l 1,1,-1
 881 1566 l 1,2,3
 876 1519 876 1519 849 1444.5 c 128,-1,4
 822 1370 822 1370 778 1255 c 0,5,6
 539 631 539 631 500 1 c 1,7,-1
 208 1 l 1,8,9
 232 343 232 343 322 668 c 0,10,11
 390 913 390 913 454 1097 c 128,-1,12
 518 1281 518 1281 544.5 1356.5 c 128,-1,13
 571 1432 571 1432 586.5 1474.5 c 128,-1,14
 602 1517 602 1517 604 1526 c 1,15,-1
 104 1526 l 1,16,-1
 104 1761 l 1,0,-1
EndSplineSet
EndChar

StartChar: eight
Encoding: 56 56 27
Width: 951
Flags: W
LayerCount: 2
UndoRedoHistory
Layer: 1
Undoes
EndUndoes
Redoes
EndRedoes
EndUndoRedoHistory
Fore
SplineSet
589 1317 m 128,-1,1
 589 1428 589 1428 577.5 1483.5 c 128,-1,2
 566 1539 566 1539 544 1556 c 128,-1,3
 522 1573 522 1573 479 1573 c 128,-1,4
 436 1573 436 1573 414 1554 c 0,5,6
 368 1516 368 1516 368 1315 c 0,7,8
 368 1106 368 1106 418 1056 c 0,9,10
 440 1034 440 1034 477.5 1033.5 c 128,-1,11
 515 1033 515 1033 538 1055.5 c 128,-1,12
 561 1078 561 1078 575 1142 c 128,-1,0
 589 1206 589 1206 589 1317 c 128,-1,1
590 586 m 2,13,14
 590 856 590 856 480 856 c 0,15,16
 425 856 425 856 392.5 786 c 128,-1,17
 360 716 360 716 360 585 c 2,18,-1
 360 438 l 1,19,20
 361 309 361 309 384 258.5 c 128,-1,21
 407 208 407 208 478.5 208 c 128,-1,22
 550 208 550 208 570 258.5 c 128,-1,23
 590 309 590 309 590 442 c 2,24,-1
 590 586 l 2,13,14
100 1341 m 0,25,26
 100 1572 100 1572 189.5 1676.5 c 128,-1,27
 279 1781 279 1781 480.5 1781 c 128,-1,28
 682 1781 682 1781 769 1679 c 128,-1,29
 856 1577 856 1577 856 1341 c 0,30,31
 856 1058 856 1058 716 961 c 1,32,33
 782 913 782 913 820 802 c 128,-1,34
 858 691 858 691 858 557 c 2,35,-1
 858 436 l 1,36,37
 856 203 856 203 763.5 91 c 128,-1,38
 671 -21 671 -21 479 -21 c 128,-1,39
 287 -21 287 -21 191.5 90.5 c 128,-1,40
 96 202 96 202 93 431 c 0,41,42
 92 438 92 438 92 565.5 c 128,-1,43
 92 693 92 693 132 803 c 128,-1,44
 172 913 172 913 241 961 c 1,45,46
 100 1061 100 1061 100 1341 c 0,25,26
EndSplineSet
EndChar

StartChar: nine
Encoding: 57 57 28
Width: 951
Flags: W
LayerCount: 2
UndoRedoHistory
Layer: 1
Undoes
EndUndoes
Redoes
EndRedoes
EndUndoRedoHistory
Fore
SplineSet
557 1304 m 2,0,1
 557 1434 557 1434 533.5 1491 c 128,-1,2
 510 1548 510 1548 443.5 1548 c 128,-1,3
 377 1548 377 1548 353 1490 c 128,-1,4
 329 1432 329 1432 329 1301 c 2,5,-1
 329 1144 l 2,6,7
 329 998 329 998 352.5 941 c 128,-1,8
 376 884 376 884 444 884 c 0,9,10
 543 884 543 884 557 970 c 1,11,-1
 557 1304 l 2,0,1
67 1248 m 2,12,13
 67 1576 67 1576 180 1689 c 0,14,15
 272 1781 272 1781 450 1781 c 0,16,17
 613 1780 613 1780 692 1716 c 0,18,19
 774 1649 774 1649 799 1531 c 0,20,21
 823 1418 823 1418 823 1233 c 2,22,-1
 823 530 l 2,23,24
 823 231 823 231 734 105.5 c 128,-1,25
 645 -20 645 -20 457 -20 c 128,-1,26
 269 -20 269 -20 182 83 c 128,-1,27
 95 186 95 186 94 423 c 1,28,-1
 94 519 l 1,29,-1
 347 519 l 1,30,-1
 347 482 l 1,31,32
 348 319 348 319 369.5 264.5 c 128,-1,33
 391 210 391 210 460 210 c 0,34,35
 511 210 511 210 525 234.5 c 128,-1,36
 539 259 539 259 545 274.5 c 0,37,38
 552 290 552 290 554 330 c 0,39,40
 558 385 558 385 557 438 c 2,41,-1
 557 701 l 1,42,43
 502 664 502 664 394 664 c 0,44,45
 216 664 216 664 141.5 793 c 128,-1,46
 67 922 67 922 67 1184 c 2,47,-1
 67 1248 l 2,12,13
EndSplineSet
EndChar

StartChar: colon
Encoding: 58 58 29
Width: 555
Flags: W
LayerCount: 2
UndoRedoHistory
Layer: 1
Undoes
EndUndoes
Redoes
EndRedoes
EndUndoRedoHistory
Fore
SplineSet
136 539 m 1,0,-1
 419 539 l 1,1,-1
 419 270 l 1,2,-1
 136 270 l 1,3,-1
 136 539 l 1,0,-1
136 1307 m 1,4,-1
 419 1307 l 1,5,-1
 419 1038 l 1,6,-1
 136 1038 l 1,7,-1
 136 1307 l 1,4,-1
EndSplineSet
EndChar

StartChar: semicolon
Encoding: 59 59 30
Width: 561
Flags: W
LayerCount: 2
UndoRedoHistory
Layer: 1
Undoes
EndUndoes
Redoes
EndRedoes
EndUndoRedoHistory
Fore
SplineSet
126 1250 m 1,0,-1
 427 1250 l 1,1,-1
 427 944 l 1,2,-1
 126 944 l 1,3,-1
 126 1250 l 1,0,-1
132 533 m 1,4,-1
 435 533 l 1,5,-1
 435 264 l 1,6,-1
 326 -107 l 1,7,-1
 184 -107 l 1,8,-1
 262 255 l 1,9,-1
 132 255 l 1,10,-1
 132 533 l 1,4,-1
EndSplineSet
EndChar

StartChar: less
Encoding: 60 60 31
Width: 730
Flags: W
LayerCount: 2
UndoRedoHistory
Layer: 1
Undoes
EndUndoes
Redoes
EndRedoes
EndUndoRedoHistory
Fore
SplineSet
65 899 m 1,0,-1
 638 1264 l 1,1,-1
 638 989 l 1,2,-1
 242 753 l 1,3,-1
 638 510 l 1,4,-1
 638 238 l 1,5,-1
 65 607 l 1,6,-1
 65 899 l 1,0,-1
EndSplineSet
EndChar

StartChar: equal
Encoding: 61 61 32
Width: 722
Flags: W
LayerCount: 2
UndoRedoHistory
Layer: 1
Undoes
EndUndoes
Redoes
EndRedoes
EndUndoRedoHistory
Fore
SplineSet
104 1076 m 1,0,-1
 618 1076 l 1,1,-1
 618 892 l 1,2,-1
 104 892 l 1,3,-1
 104 1076 l 1,0,-1
104 738 m 1,4,-1
 618 738 l 1,5,-1
 618 549 l 1,6,-1
 104 549 l 1,7,-1
 104 738 l 1,4,-1
EndSplineSet
EndChar

StartChar: greater
Encoding: 62 62 33
Width: 730
Flags: W
LayerCount: 2
UndoRedoHistory
Layer: 1
Undoes
EndUndoes
Redoes
EndRedoes
EndUndoRedoHistory
Fore
SplineSet
90 992 m 1,0,-1
 90 1264 l 1,1,-1
 664 898 l 1,2,-1
 664 605 l 1,3,-1
 90 238 l 1,4,-1
 90 513 l 1,5,-1
 486 749 l 1,6,-1
 90 992 l 1,0,-1
EndSplineSet
EndChar

StartChar: question
Encoding: 63 63 34
Width: 897
Flags: W
LayerCount: 2
UndoRedoHistory
Layer: 1
Undoes
EndUndoes
Redoes
EndRedoes
EndUndoRedoHistory
Fore
SplineSet
257 299 m 1,0,-1
 489 299 l 1,1,-1
 489 1 l 1,2,-1
 257 1 l 1,3,-1
 257 299 l 1,0,-1
120 1376 m 2,4,5
 120 1781 120 1781 465 1781 c 0,6,7
 652 1781 652 1781 730 1685 c 0,8,9
 780 1623 780 1623 794 1545 c 0,10,11
 815 1427 815 1427 815 1299.5 c 128,-1,12
 815 1172 815 1172 807.5 1094.5 c 128,-1,13
 800 1017 800 1017 779.5 946.5 c 0,14,15
 758 876 758 876 722 829 c 0,16,17
 645 730 645 730 487 684 c 1,18,-1
 487 494 l 1,19,-1
 251 494 l 1,20,-1
 251 810 l 1,21,22
 343 834 343 834 381 855.5 c 128,-1,23
 419 877 419 877 440.5 891.5 c 128,-1,24
 462 906 462 906 478.5 929.5 c 128,-1,25
 495 953 495 953 506 973 c 128,-1,26
 517 993 517 993 525 1026.5 c 128,-1,27
 533 1060 533 1060 537 1087.5 c 0,28,29
 542 1114 542 1114 544 1160 c 0,30,31
 548 1224 548 1224 547 1284 c 2,32,-1
 547 1350 l 2,33,34
 547 1476 547 1476 540 1494.5 c 0,35,36
 533 1512 533 1512 524 1526 c 0,37,38
 509 1548 509 1548 476 1548.5 c 128,-1,39
 443 1549 443 1549 426.5 1540 c 128,-1,40
 410 1531 410 1531 400.5 1518 c 0,41,42
 391 1506 391 1506 387 1474 c 0,43,44
 381 1427 381 1427 381 1336 c 2,45,-1
 381 1160 l 1,46,-1
 120 1160 l 1,47,-1
 120 1376 l 2,4,5
EndSplineSet
EndChar

StartChar: at
Encoding: 64 64 35
Width: 1502
Flags: W
LayerCount: 2
UndoRedoHistory
Layer: 1
Undoes
EndUndoes
Redoes
EndRedoes
EndUndoRedoHistory
Fore
SplineSet
1165 10 m 1,0,1
 796 -122 796 -122 530 -2 c 0,2,3
 259 120 259 120 161 450 c 0,4,5
 110 620 110 620 110 838.5 c 128,-1,6
 110 1057 110 1057 151 1228 c 0,7,8
 192 1398 192 1398 276 1522 c 0,9,10
 448 1774 448 1774 809 1775 c 0,11,12
 1097 1775 1097 1775 1244.5 1551 c 128,-1,13
 1392 1327 1392 1327 1392 910 c 0,14,15
 1392 663 1392 663 1316.5 520.5 c 128,-1,16
 1241 378 1241 378 1096 378 c 0,17,18
 1032 378 1032 378 976 436.5 c 128,-1,19
 920 495 920 495 897 597 c 1,20,21
 877 478 877 478 840 419.5 c 128,-1,22
 803 361 803 361 732 361 c 0,23,24
 616 361 616 361 543 478 c 128,-1,25
 470 595 470 595 470 818 c 0,26,27
 470 1158 470 1158 614 1285 c 0,28,29
 685 1347 685 1347 791 1347 c 128,-1,30
 897 1347 897 1347 1038 1283 c 1,31,-1
 1038 759 l 2,32,33
 1038 544 1038 544 1111 544 c 0,34,35
 1148 544 1148 544 1172 578 c 0,36,37
 1223 651 1223 651 1223 942 c 0,38,39
 1223 1609 1223 1609 796 1609 c 0,40,41
 541 1609 541 1609 423.5 1409 c 128,-1,42
 306 1209 306 1209 306 833 c 0,43,44
 306 380 306 380 522 210 c 0,45,46
 641 116 641 116 799.5 116 c 128,-1,47
 958 116 958 116 1138 178 c 1,48,-1
 1165 10 l 1,0,1
870 1180 m 1,49,50
 821 1197 821 1197 788 1197 c 128,-1,51
 755 1197 755 1197 731 1177 c 128,-1,52
 707 1157 707 1157 690 1126.5 c 0,53,54
 672 1096 672 1096 662 1048 c 0,55,56
 642 959 642 959 643 824 c 0,57,58
 643 531 643 531 758 531 c 0,59,60
 812 531 812 531 841 602.5 c 128,-1,61
 870 674 870 674 870 779 c 2,62,-1
 870 1180 l 1,49,50
EndSplineSet
EndChar

StartChar: A
Encoding: 65 65 36
Width: 927
Flags: W
LayerCount: 2
UndoRedoHistory
Layer: 1
Undoes
EndUndoes
Redoes
EndRedoes
EndUndoRedoHistory
Fore
SplineSet
350 529 m 1,0,-1
 580 529 l 1,1,-1
 462 1413 l 1,2,-1
 458 1413 l 1,3,-1
 350 529 l 1,0,-1
278 1760 m 1,4,-1
 632 1760 l 1,5,-1
 900 0 l 1,6,-1
 650 0 l 1,7,-1
 608 314 l 1,8,-1
 324 314 l 1,9,-1
 286 0 l 1,10,-1
 28 0 l 1,11,-1
 278 1760 l 1,4,-1
EndSplineSet
EndChar

StartChar: B
Encoding: 66 66 37
Width: 984
Flags: W
LayerCount: 2
UndoRedoHistory
Layer: 1
Undoes
EndUndoes
Redoes
EndRedoes
EndUndoRedoHistory
Fore
SplineSet
611 1379 m 1,0,1
 610 1481 610 1481 583 1515.5 c 128,-1,2
 556 1550 556 1550 490 1550 c 2,3,-1
 400 1550 l 1,4,-1
 400 1048 l 1,5,-1
 499 1048 l 2,6,7
 568 1048 568 1048 589.5 1092 c 128,-1,8
 611 1136 611 1136 611 1273 c 2,9,-1
 611 1379 l 1,0,1
639 602 m 2,10,11
 639 736 639 736 613 791.5 c 128,-1,12
 587 847 587 847 513 847 c 2,13,-1
 400 847 l 1,14,-1
 400 208 l 1,15,-1
 495 208 l 2,16,17
 575 208 575 208 607 263 c 128,-1,18
 639 318 639 318 639 460 c 2,19,-1
 639 602 l 2,10,11
875 1308 m 2,20,21
 875 1024 875 1024 721 959 c 1,22,23
 909 896 909 896 909 544 c 2,24,-1
 909 499 l 1,25,26
 907 234 907 234 816.5 117 c 128,-1,27
 726 0 726 0 521 0 c 2,28,-1
 132 0 l 1,29,-1
 132 1760 l 1,30,-1
 513 1760 l 2,31,32
 710 1760 710 1760 792 1668.5 c 128,-1,33
 874 1577 874 1577 875 1362 c 1,34,-1
 875 1308 l 2,20,21
EndSplineSet
EndChar

StartChar: C
Encoding: 67 67 38
Width: 969
Flags: W
LayerCount: 2
UndoRedoHistory
Layer: 1
Undoes
EndUndoes
Redoes
EndRedoes
EndUndoRedoHistory
Fore
SplineSet
110 1253 m 2,0,1
 110 1646 110 1646 316 1744 c 0,2,3
 392 1780 392 1780 500 1780 c 0,4,5
 871 1780 871 1780 871 1312 c 2,6,-1
 871 1070 l 1,7,-1
 612 1070 l 1,8,-1
 612 1295 l 2,9,10
 612 1431 612 1431 589 1489.5 c 128,-1,11
 566 1548 566 1548 499 1548 c 128,-1,12
 432 1548 432 1548 406 1486 c 128,-1,13
 380 1424 380 1424 380 1296 c 2,14,-1
 380 474 l 2,15,16
 380 332 380 332 405 271 c 128,-1,17
 430 210 430 210 496 210 c 128,-1,18
 562 210 562 210 587 272 c 128,-1,19
 612 334 612 334 612 477 c 2,20,-1
 612 729 l 1,21,-1
 875 729 l 1,22,-1
 875 480 l 2,23,24
 875 225 875 225 784 102.5 c 128,-1,25
 693 -20 693 -20 498 -20 c 128,-1,26
 303 -20 303 -20 206.5 110.5 c 128,-1,27
 110 241 110 241 110 486 c 2,28,-1
 110 1253 l 2,0,1
EndSplineSet
EndChar

StartChar: D
Encoding: 68 68 39
Width: 1008
Flags: W
LayerCount: 2
UndoRedoHistory
Layer: 1
Undoes
EndUndoes
Redoes
EndRedoes
EndUndoRedoHistory
Fore
SplineSet
628 1301 m 2,0,1
 628 1438 628 1438 594.5 1496 c 128,-1,2
 561 1554 561 1554 479 1554 c 2,3,-1
 400 1554 l 1,4,-1
 400 208 l 1,5,-1
 488 208 l 2,6,7
 562 208 562 208 595.5 256 c 128,-1,8
 629 304 629 304 629 432 c 2,9,-1
 628 1301 l 2,0,1
132 1760 m 1,10,-1
 527 1760 l 2,11,12
 721 1760 721 1760 808.5 1645.5 c 128,-1,13
 896 1531 896 1531 896 1308 c 2,14,-1
 897 514 l 2,15,16
 897 248 897 248 809 124 c 128,-1,17
 721 0 721 0 518 0 c 2,18,-1
 132 0 l 1,19,-1
 132 1760 l 1,10,-1
EndSplineSet
EndChar

StartChar: E
Encoding: 69 69 40
Width: 800
Flags: W
LayerCount: 2
UndoRedoHistory
Layer: 1
Undoes
EndUndoes
Redoes
EndRedoes
EndUndoRedoHistory
Fore
SplineSet
132 1760 m 1,0,-1
 722 1760 l 1,1,-1
 722 1529 l 1,2,-1
 400 1529 l 1,3,-1
 400 1017 l 1,4,-1
 706 1017 l 1,5,-1
 706 791 l 1,6,-1
 400 791 l 1,7,-1
 400 231 l 1,8,-1
 734 231 l 1,9,-1
 734 0 l 1,10,-1
 132 0 l 1,11,-1
 132 1760 l 1,0,-1
EndSplineSet
EndChar

StartChar: F
Encoding: 70 70 41
Width: 791
Flags: W
LayerCount: 2
UndoRedoHistory
Layer: 1
Undoes
EndUndoes
Redoes
EndRedoes
EndUndoRedoHistory
Fore
SplineSet
132 1760 m 1,0,-1
 736 1760 l 1,1,-1
 736 1527 l 1,2,-1
 400 1527 l 1,3,-1
 400 1059 l 1,4,-1
 712 1059 l 1,5,-1
 712 825 l 1,6,-1
 400 825 l 1,7,-1
 400 0 l 1,8,-1
 132 0 l 1,9,-1
 132 1760 l 1,0,-1
EndSplineSet
EndChar

StartChar: G
Encoding: 71 71 42
Width: 1000
Flags: W
LayerCount: 2
UndoRedoHistory
Layer: 1
Undoes
EndUndoes
Redoes
EndRedoes
EndUndoRedoHistory
Fore
SplineSet
110 1280 m 2,0,1
 110 1524 110 1524 205.5 1652 c 128,-1,2
 301 1780 301 1780 509 1780 c 0,3,4
 768 1780 768 1780 838 1587 c 0,5,6
 880 1471 880 1471 880 1270 c 2,7,-1
 880 1145 l 1,8,-1
 630 1145 l 1,9,-1
 630 1329 l 2,10,11
 630 1450 630 1450 604.5 1499 c 128,-1,12
 579 1548 579 1548 508.5 1548 c 128,-1,13
 438 1548 438 1548 409 1489.5 c 128,-1,14
 380 1431 380 1431 380 1282 c 2,15,-1
 380 519 l 2,16,17
 380 346 380 346 406 278 c 128,-1,18
 432 210 432 210 507.5 210 c 128,-1,19
 583 210 583 210 614.5 283 c 128,-1,20
 646 356 646 356 646 529 c 2,21,-1
 646 766 l 1,22,-1
 511 766 l 1,23,-1
 511 961 l 1,24,-1
 880 961 l 1,25,-1
 880 0 l 1,26,-1
 760 0 l 1,27,-1
 719 173 l 1,28,29
 698 84 698 84 627 33 c 128,-1,30
 556 -18 556 -18 463 -18 c 0,31,32
 297 -18 297 -18 203.5 112.5 c 128,-1,33
 110 243 110 243 110 515 c 2,34,-1
 110 1280 l 2,0,1
EndSplineSet
EndChar

StartChar: H
Encoding: 72 72 43
Width: 1040
Flags: W
LayerCount: 2
UndoRedoHistory
Layer: 1
Undoes
EndUndoes
Redoes
EndRedoes
EndUndoRedoHistory
Fore
SplineSet
640 1760 m 1,0,-1
 908 1760 l 1,1,-1
 908 0 l 1,2,-1
 640 0 l 1,3,-1
 640 818 l 1,4,-1
 400 818 l 1,5,-1
 400 0 l 1,6,-1
 132 0 l 1,7,-1
 132 1760 l 1,8,-1
 400 1760 l 1,9,-1
 400 1048 l 1,10,-1
 640 1048 l 1,11,-1
 640 1760 l 1,0,-1
EndSplineSet
EndChar

StartChar: I
Encoding: 73 73 44
Width: 543
Flags: W
LayerCount: 2
UndoRedoHistory
Layer: 1
Undoes
EndUndoes
Redoes
EndRedoes
EndUndoRedoHistory
Fore
SplineSet
138 1760 m 1,0,-1
 406 1760 l 1,1,-1
 406 0 l 1,2,-1
 138 0 l 1,3,-1
 138 1760 l 1,0,-1
EndSplineSet
EndChar

StartChar: J
Encoding: 74 74 45
Width: 946
Flags: W
LayerCount: 2
UndoRedoHistory
Layer: 1
Undoes
EndUndoes
Redoes
EndRedoes
EndUndoRedoHistory
Fore
SplineSet
540 1760 m 1,0,-1
 808 1760 l 1,1,-1
 808 431 l 2,2,3
 808 215 808 215 713.5 97.5 c 128,-1,4
 619 -20 619 -20 446.5 -20 c 128,-1,5
 274 -20 274 -20 178 84.5 c 128,-1,6
 82 189 82 189 82 389 c 2,7,-1
 82 703 l 1,8,-1
 342 703 l 1,9,-1
 342 402 l 2,10,11
 342 256 342 256 388 224 c 0,12,13
 408 210 408 210 437 210 c 128,-1,14
 466 210 466 210 484.5 220 c 128,-1,15
 503 230 503 230 514 246 c 128,-1,16
 525 262 525 262 531 290 c 0,17,18
 540 332 540 332 540 418 c 2,19,-1
 540 1760 l 1,0,-1
EndSplineSet
EndChar

StartChar: K
Encoding: 75 75 46
Width: 981
Flags: W
LayerCount: 2
UndoRedoHistory
Layer: 1
Undoes
EndUndoes
Redoes
EndRedoes
EndUndoRedoHistory
Fore
SplineSet
668 1760 m 1,0,-1
 945 1760 l 1,1,-1
 653 892 l 1,2,-1
 968 0 l 1,3,-1
 685 0 l 1,4,-1
 402 822 l 1,5,-1
 402 0 l 1,6,-1
 132 0 l 1,7,-1
 132 1760 l 1,8,-1
 400 1760 l 1,9,-1
 400 950 l 1,10,-1
 668 1760 l 1,0,-1
EndSplineSet
EndChar

StartChar: L
Encoding: 76 76 47
Width: 752
Flags: W
LayerCount: 2
UndoRedoHistory
Layer: 1
Undoes
EndUndoes
Redoes
EndRedoes
EndUndoRedoHistory
Fore
SplineSet
132 1760 m 1,0,-1
 400 1760 l 1,1,-1
 400 228 l 1,2,-1
 739 228 l 1,3,-1
 739 0 l 1,4,-1
 132 0 l 1,5,-1
 132 1760 l 1,0,-1
EndSplineSet
EndChar

StartChar: M
Encoding: 77 77 48
Width: 1418
Flags: W
LayerCount: 2
UndoRedoHistory
Layer: 1
Undoes
EndUndoes
Redoes
EndRedoes
EndUndoRedoHistory
Fore
SplineSet
950 1760 m 1,0,-1
 1285 1760 l 1,1,-1
 1285 0 l 1,2,-1
 1046 0 l 1,3,-1
 1046 656 l 1,4,-1
 1056 1258 l 1,5,-1
 819 8 l 1,6,-1
 606 8 l 1,7,-1
 359 1258 l 1,8,-1
 369 656 l 1,9,-1
 369 0 l 1,10,-1
 132 0 l 1,11,-1
 132 1760 l 1,12,-1
 465 1760 l 1,13,-1
 715 474 l 1,14,-1
 950 1760 l 1,0,-1
EndSplineSet
EndChar

StartChar: N
Encoding: 78 78 49
Width: 1069
Flags: W
LayerCount: 2
UndoRedoHistory
Layer: 1
Undoes
EndUndoes
Redoes
EndRedoes
EndUndoRedoHistory
Fore
SplineSet
696 1760 m 1,0,-1
 937 1760 l 1,1,-1
 937 0 l 1,2,-1
 747 0 l 1,3,-1
 364 1093 l 1,4,-1
 379 631 l 1,5,-1
 379 0 l 1,6,-1
 132 0 l 1,7,-1
 132 1760 l 1,8,-1
 342 1760 l 1,9,-1
 715 704 l 1,10,-1
 696 1184 l 1,11,-1
 696 1760 l 1,0,-1
EndSplineSet
EndChar

StartChar: O
Encoding: 79 79 50
Width: 999
Flags: W
LayerCount: 2
UndoRedoHistory
Layer: 1
Undoes
EndUndoes
Redoes
EndRedoes
EndUndoRedoHistory
Fore
SplineSet
619 1309 m 2,0,1
 619 1434 619 1434 595.5 1491.5 c 128,-1,2
 572 1549 572 1549 504 1549 c 0,3,4
 436 1549 436 1549 408 1491.5 c 128,-1,5
 380 1434 380 1434 380 1310 c 2,6,-1
 380 489 l 2,7,8
 380 334 380 334 403.5 273 c 128,-1,9
 427 212 427 212 500 212 c 0,10,11
 573 212 573 212 596 274.5 c 128,-1,12
 619 337 619 337 619 489 c 2,13,-1
 619 1309 l 2,0,1
110 1297 m 2,14,15
 110 1781 110 1781 505 1781 c 0,16,17
 709 1781 709 1781 798.5 1658 c 128,-1,18
 888 1535 888 1535 888 1297 c 2,19,-1
 888 492 l 2,20,21
 888 234 888 234 796 107 c 128,-1,22
 704 -20 704 -20 502 -20 c 0,23,24
 300 -20 300 -20 205 107.5 c 128,-1,25
 110 235 110 235 110 492 c 2,26,-1
 110 1297 l 2,14,15
EndSplineSet
EndChar

StartChar: P
Encoding: 80 80 51
Width: 943
Flags: W
LayerCount: 2
UndoRedoHistory
Layer: 1
Undoes
EndUndoes
Redoes
EndRedoes
EndUndoRedoHistory
Fore
SplineSet
628 1264 m 1,0,1
 627 1420 627 1420 600.5 1487 c 128,-1,2
 574 1554 574 1554 494 1554 c 2,3,-1
 400 1554 l 1,4,-1
 400 915 l 1,5,-1
 492 915 l 2,6,7
 577 915 577 915 602.5 980.5 c 128,-1,8
 628 1046 628 1046 628 1230 c 2,9,-1
 628 1264 l 1,0,1
132 1760 m 1,10,-1
 536 1760 l 2,11,12
 741 1760 741 1760 819 1632 c 0,13,14
 892 1511 892 1511 896 1264 c 1,15,-1
 896 1227 l 2,16,17
 896 965 896 965 824 834 c 0,18,19
 747 694 747 694 545 694 c 2,20,-1
 400 694 l 1,21,-1
 400 0 l 1,22,-1
 132 0 l 1,23,-1
 132 1760 l 1,10,-1
EndSplineSet
EndChar

StartChar: Q
Encoding: 81 81 52
Width: 999
Flags: W
LayerCount: 2
UndoRedoHistory
Layer: 1
Undoes
EndUndoes
Redoes
EndRedoes
EndUndoRedoHistory
Fore
SplineSet
619 1309 m 2,0,1
 619 1434 619 1434 595.5 1491.5 c 128,-1,2
 572 1549 572 1549 503.5 1549 c 128,-1,3
 435 1549 435 1549 407.5 1491.5 c 128,-1,4
 380 1434 380 1434 380 1310 c 2,5,-1
 380 489 l 2,6,7
 380 334 380 334 403.5 273 c 128,-1,8
 427 212 427 212 500 212 c 128,-1,9
 573 212 573 212 596 274.5 c 128,-1,10
 619 337 619 337 619 489 c 2,11,-1
 619 1309 l 2,0,1
888 492 m 2,12,13
 888 109 888 109 684 15 c 1,14,-1
 848 -177 l 1,15,-1
 716 -292 l 1,16,-1
 465 -19 l 1,17,18
 290 -8 290 -8 200 113.5 c 128,-1,19
 110 235 110 235 110 492 c 2,20,-1
 110 1297 l 2,21,22
 110 1781 110 1781 505 1781 c 0,23,24
 709 1781 709 1781 798.5 1658 c 128,-1,25
 888 1535 888 1535 888 1297 c 2,26,-1
 888 492 l 2,12,13
EndSplineSet
EndChar

StartChar: R
Encoding: 82 82 53
Width: 991
Flags: W
LayerCount: 2
UndoRedoHistory
Layer: 1
Undoes
EndUndoes
Redoes
EndRedoes
EndUndoRedoHistory
Fore
SplineSet
627 1323 m 2,0,1
 627 1466 627 1466 603 1510 c 128,-1,2
 579 1554 579 1554 492 1554 c 2,3,-1
 401 1554 l 1,4,-1
 401 1039 l 1,5,-1
 508 1039 l 2,6,7
 559 1039 559 1039 583.5 1062 c 128,-1,8
 608 1085 608 1085 617.5 1141 c 128,-1,9
 627 1197 627 1197 627 1312 c 2,10,-1
 627 1323 l 2,0,1
486 827 m 1,11,-1
 400 831 l 1,12,-1
 400 0 l 1,13,-1
 132 0 l 1,14,-1
 132 1760 l 1,15,-1
 575 1760 l 2,16,17
 713 1760 713 1760 780 1706 c 0,18,19
 849 1650 849 1650 871 1548 c 0,20,21
 892 1450 892 1450 892 1289.5 c 128,-1,22
 892 1129 892 1129 858 1045 c 128,-1,23
 824 961 824 961 732 932 c 1,24,25
 823 916 823 916 859 809 c 128,-1,26
 895 702 895 702 895 363.5 c 128,-1,27
 895 25 895 25 905 0 c 1,28,-1
 637 0 l 1,29,30
 627 20 627 20 627 631 c 0,31,32
 627 748 627 748 599 786.5 c 128,-1,33
 571 825 571 825 486 827 c 1,11,-1
EndSplineSet
EndChar

StartChar: S
Encoding: 83 83 54
Width: 875
Flags: W
LayerCount: 2
UndoRedoHistory
Layer: 1
Undoes
EndUndoes
Redoes
EndRedoes
EndUndoRedoHistory
Fore
SplineSet
73 1351 m 0,0,1
 73 1569 73 1569 156.5 1675 c 128,-1,2
 240 1781 240 1781 444 1781 c 0,3,4
 706 1781 706 1781 768 1558 c 0,5,6
 796 1455 796 1455 796 1297 c 2,7,-1
 796 1188 l 1,8,-1
 549 1188 l 1,9,-1
 549 1314 l 2,10,11
 549 1442 549 1442 526.5 1497.5 c 128,-1,12
 504 1553 504 1553 452 1553 c 0,13,14
 400 1552 400 1552 374 1534 c 0,15,16
 325 1499 325 1499 325 1378 c 0,17,18
 325 1297 325 1297 351 1254 c 0,19,20
 388 1192 388 1192 454 1123 c 1,21,-1
 599 966 l 2,22,23
 708 848 708 848 763.5 727 c 128,-1,24
 819 606 819 606 819 486 c 128,-1,25
 819 366 819 366 807 291.5 c 128,-1,26
 795 217 795 217 769 157 c 0,27,28
 742 96 742 96 700 58 c 0,29,30
 613 -20 613 -20 453 -20 c 0,31,32
 217 -20 217 -20 132 153 c 1,33,34
 75 272 75 272 75 495 c 2,35,-1
 75 652 l 1,36,-1
 329 652 l 1,37,-1
 329 475 l 2,38,39
 329 328 329 328 354 268.5 c 128,-1,40
 379 209 379 209 448 209 c 128,-1,41
 517 209 517 209 539.5 258 c 128,-1,42
 562 307 562 307 562 402.5 c 128,-1,43
 562 498 562 498 543 557 c 0,44,45
 508 665 508 665 395 784 c 1,46,-1
 265 918 l 2,47,48
 121 1064 121 1064 87 1218 c 0,49,50
 73 1280 73 1280 73 1351 c 0,0,1
EndSplineSet
EndChar

StartChar: T
Encoding: 84 84 55
Width: 707
Flags: W
LayerCount: 2
UndoRedoHistory
Layer: 1
Undoes
EndUndoes
Redoes
EndRedoes
EndUndoRedoHistory
Fore
SplineSet
18 1760 m 1,0,-1
 689 1760 l 1,1,-1
 689 1528 l 1,2,-1
 491 1528 l 1,3,-1
 491 0 l 1,4,-1
 224 0 l 1,5,-1
 224 1528 l 1,6,-1
 18 1528 l 1,7,-1
 18 1760 l 1,0,-1
EndSplineSet
EndChar

StartChar: U
Encoding: 85 85 56
Width: 1013
Flags: W
LayerCount: 2
UndoRedoHistory
Layer: 1
Undoes
EndUndoes
Redoes
EndRedoes
EndUndoRedoHistory
Fore
SplineSet
627 1761 m 1,0,-1
 895 1761 l 1,1,-1
 895 452 l 2,2,3
 895 289 895 289 865 212 c 128,-1,4
 835 135 835 135 804 96 c 128,-1,5
 773 57 773 57 730 31 c 0,6,7
 646 -20 646 -20 508 -20 c 0,8,9
 222 -20 222 -20 148 218 c 0,10,11
 119 312 119 312 119 452 c 2,12,-1
 119 1761 l 1,13,-1
 387 1761 l 1,14,-1
 387 457 l 2,15,16
 387 318 387 318 400 288 c 128,-1,17
 413 258 413 258 426 241 c 0,18,19
 450 209 450 209 507 209 c 0,20,21
 594 209 594 209 614 292 c 0,22,23
 626 342 626 342 627 457 c 2,24,-1
 627 1761 l 1,0,-1
EndSplineSet
EndChar

StartChar: V
Encoding: 86 86 57
Width: 930
Flags: W
LayerCount: 2
UndoRedoHistory
Layer: 1
Undoes
EndUndoes
Redoes
EndRedoes
EndUndoRedoHistory
Fore
SplineSet
643 1760 m 1,0,-1
 893 1760 l 1,1,-1
 642 0 l 1,2,-1
 311 0 l 1,3,-1
 38 1760 l 1,4,-1
 293 1760 l 1,5,-1
 408 965 l 1,6,-1
 479 405 l 1,7,-1
 486 405 l 1,8,-1
 547 965 l 1,9,-1
 643 1760 l 1,0,-1
EndSplineSet
EndChar

StartChar: W
Encoding: 87 87 58
Width: 1360
Flags: W
LayerCount: 2
UndoRedoHistory
Layer: 1
Undoes
EndUndoes
Redoes
EndRedoes
EndUndoRedoHistory
Fore
SplineSet
1074 1760 m 1,0,-1
 1315 1760 l 1,1,-1
 1113 0 l 1,2,-1
 846 0 l 1,3,-1
 690 1170 l 1,4,-1
 528 0 l 1,5,-1
 261 0 l 1,6,-1
 46 1760 l 1,7,-1
 286 1760 l 1,8,-1
 415 506 l 1,9,-1
 579 1760 l 1,10,-1
 795 1760 l 1,11,-1
 960 506 l 1,12,-1
 1074 1760 l 1,0,-1
EndSplineSet
EndChar

StartChar: X
Encoding: 88 88 59
Width: 897
Flags: W
LayerCount: 2
UndoRedoHistory
Layer: 1
Undoes
EndUndoes
Redoes
EndRedoes
EndUndoRedoHistory
Fore
SplineSet
584 1760 m 1,0,-1
 835 1760 l 1,1,-1
 569 859 l 1,2,-1
 856 0 l 1,3,-1
 624 0 l 1,4,-1
 445 541 l 1,5,-1
 300 0 l 1,6,-1
 41 0 l 1,7,-1
 312 944 l 1,8,-1
 42 1760 l 1,9,-1
 268 1760 l 1,10,-1
 443 1237 l 1,11,-1
 584 1760 l 1,0,-1
EndSplineSet
EndChar

StartChar: Y
Encoding: 89 89 60
Width: 878
Flags: W
LayerCount: 2
UndoRedoHistory
Layer: 1
Undoes
EndUndoes
Redoes
EndRedoes
EndUndoRedoHistory
Fore
SplineSet
606 1760 m 1,0,-1
 861 1760 l 1,1,-1
 580 703 l 1,2,-1
 580 0 l 1,3,-1
 312 0 l 1,4,-1
 312 703 l 1,5,-1
 17 1760 l 1,6,-1
 273 1760 l 1,7,-1
 447 1102 l 1,8,-1
 451 1102 l 1,9,-1
 606 1760 l 1,0,-1
EndSplineSet
EndChar

StartChar: Z
Encoding: 90 90 61
Width: 748
Flags: W
LayerCount: 2
UndoRedoHistory
Layer: 1
Undoes
EndUndoes
Redoes
EndRedoes
EndUndoRedoHistory
Fore
SplineSet
96 1760 m 1,0,-1
 709 1760 l 1,1,-1
 709 1543 l 1,2,-1
 344 231 l 1,3,-1
 701 231 l 1,4,-1
 701 0 l 1,5,-1
 63 0 l 1,6,-1
 63 238 l 1,7,-1
 428 1529 l 1,8,-1
 96 1529 l 1,9,-1
 96 1760 l 1,0,-1
EndSplineSet
EndChar

StartChar: bracketleft
Encoding: 91 91 62
Width: 764
Flags: W
LayerCount: 2
UndoRedoHistory
Layer: 1
Undoes
EndUndoes
Redoes
EndRedoes
EndUndoRedoHistory
Fore
SplineSet
179 1761 m 1,0,-1
 650 1761 l 1,1,-1
 650 1552 l 1,2,-1
 445 1552 l 1,3,-1
 445 209 l 1,4,-1
 650 209 l 1,5,-1
 650 0 l 1,6,-1
 179 0 l 1,7,-1
 179 1761 l 1,0,-1
EndSplineSet
EndChar

StartChar: backslash
Encoding: 92 92 63
Width: 868
Flags: W
LayerCount: 2
UndoRedoHistory
Layer: 1
Undoes
EndUndoes
Redoes
EndRedoes
EndUndoRedoHistory
Fore
SplineSet
96 1761 m 1,0,-1
 334 1761 l 1,1,-1
 744 0 l 1,2,-1
 507 0 l 1,3,-1
 96 1761 l 1,0,-1
EndSplineSet
EndChar

StartChar: bracketright
Encoding: 93 93 64
Width: 764
Flags: W
LayerCount: 2
UndoRedoHistory
Layer: 1
Undoes
EndUndoes
Redoes
EndRedoes
EndUndoRedoHistory
Fore
SplineSet
606 1761 m 1,0,-1
 606 0 l 1,1,-1
 135 0 l 1,2,-1
 135 209 l 1,3,-1
 340 209 l 1,4,-1
 340 1552 l 1,5,-1
 135 1552 l 1,6,-1
 135 1761 l 1,7,-1
 606 1761 l 1,0,-1
EndSplineSet
EndChar

StartChar: asciicircum
Encoding: 94 94 65
Width: 1030
Flags: W
LayerCount: 2
UndoRedoHistory
Layer: 1
Undoes
EndUndoes
Redoes
EndRedoes
EndUndoRedoHistory
Fore
SplineSet
355 1499 m 1,0,-1
 674 1499 l 1,1,-1
 915 576 l 1,2,-1
 659 576 l 1,3,-1
 515 1288 l 1,4,-1
 371 576 l 1,5,-1
 114 576 l 1,6,-1
 355 1499 l 1,0,-1
EndSplineSet
EndChar

StartChar: underscore
Encoding: 95 95 66
Width: 748
Flags: W
LayerCount: 2
UndoRedoHistory
Layer: 1
Undoes
EndUndoes
Redoes
EndRedoes
EndUndoRedoHistory
Fore
SplineSet
48 -28 m 1,0,-1
 699 -28 l 1,1,-1
 699 -211 l 1,2,-1
 48 -211 l 1,3,-1
 48 -28 l 1,0,-1
EndSplineSet
EndChar

StartChar: grave
Encoding: 96 96 67
Width: 650
Flags: W
LayerCount: 2
UndoRedoHistory
Layer: 1
Undoes
EndUndoes
Redoes
EndRedoes
EndUndoRedoHistory
Fore
SplineSet
334 881 m 1,0,-1
 131 1294 l 1,1,-1
 396 1294 l 1,2,-1
 490 881 l 1,3,-1
 334 881 l 1,0,-1
EndSplineSet
EndChar

StartChar: a
Encoding: 97 97 68
Width: 970
Flags: W
LayerCount: 2
UndoRedoHistory
Layer: 1
Undoes
EndUndoes
Redoes
EndRedoes
EndUndoRedoHistory
Fore
SplineSet
121 1081 m 2,0,1
 122 1294 122 1294 198 1402 c 0,2,3
 281 1518 281 1518 483.5 1518 c 128,-1,4
 686 1518 686 1518 771 1411 c 128,-1,5
 856 1304 856 1304 856 1081 c 2,6,-1
 856 0 l 1,7,-1
 589 0 l 1,8,-1
 589 149 l 1,9,10
 569 80 569 80 512.5 32.5 c 128,-1,11
 456 -15 456 -15 376 -15 c 0,12,13
 229 -15 229 -15 166 90.5 c 128,-1,14
 103 196 103 196 101 394 c 1,15,-1
 101 490 l 2,16,17
 101 682 101 682 205 781 c 0,18,19
 272 846 272 846 432 907 c 0,20,21
 461 918 461 918 512.5 937 c 128,-1,22
 564 956 564 956 585 964 c 1,23,-1
 585 1095 l 2,24,25
 585 1217 585 1217 567.5 1260.5 c 128,-1,26
 550 1304 550 1304 487.5 1304 c 128,-1,27
 425 1304 425 1304 404 1258 c 128,-1,28
 383 1212 383 1212 383 1103 c 2,29,-1
 383 1036 l 1,30,-1
 121 1036 l 1,31,-1
 121 1081 l 2,0,1
585 814 m 1,32,33
 459 758 459 758 415 708 c 128,-1,34
 371 658 371 658 371 553 c 2,35,-1
 371 385 l 2,36,37
 371 280 371 280 393 234.5 c 128,-1,38
 415 189 415 189 464.5 189 c 128,-1,39
 514 189 514 189 545.5 222.5 c 128,-1,40
 577 256 577 256 585 298 c 1,41,-1
 585 814 l 1,32,33
EndSplineSet
EndChar

StartChar: b
Encoding: 98 98 69
Width: 998
Flags: W
LayerCount: 2
UndoRedoHistory
Layer: 1
Undoes
EndUndoes
Redoes
EndRedoes
EndUndoRedoHistory
Fore
SplineSet
400 1392 m 1,0,1
 422 1448 422 1448 476 1482 c 0,2,3
 532 1518 532 1518 596 1518 c 128,-1,4
 660 1518 660 1518 711.5 1497 c 128,-1,5
 763 1476 763 1476 796.5 1438 c 128,-1,6
 830 1400 830 1400 850 1342 c 0,7,8
 888 1236 888 1236 888 1069 c 2,9,-1
 888 434 l 2,10,11
 888 106 888 106 742 18 c 0,12,13
 686 -16 686 -16 608 -15 c 0,14,15
 460 -15 460 -15 400 140 c 1,16,-1
 400 0 l 1,17,-1
 135 0 l 1,18,-1
 135 1775 l 1,19,-1
 400 1775 l 1,20,-1
 400 1392 l 1,0,1
622 1073 m 2,21,22
 622 1252 622 1252 575 1288 c 0,23,24
 554 1304 554 1304 521 1304 c 0,25,26
 456 1304 456 1304 428 1254 c 128,-1,27
 400 1204 400 1204 400 1074 c 2,28,-1
 400 456 l 2,29,30
 400 320 400 320 424 258.5 c 128,-1,31
 448 197 448 197 515.5 197 c 128,-1,32
 583 197 583 197 602.5 256.5 c 128,-1,33
 622 316 622 316 622 459 c 2,34,-1
 622 1073 l 2,21,22
EndSplineSet
EndChar

StartChar: c
Encoding: 99 99 70
Width: 938
Flags: W
LayerCount: 2
UndoRedoHistory
Layer: 1
Undoes
EndUndoes
Redoes
EndRedoes
EndUndoRedoHistory
Fore
SplineSet
110 986 m 2,0,1
 110 1313 110 1313 224 1427 c 0,2,3
 315 1518 315 1518 499 1518 c 128,-1,4
 683 1518 683 1518 765 1406.5 c 128,-1,5
 847 1295 847 1295 847 1085 c 2,6,-1
 847 920 l 1,7,-1
 591 920 l 1,8,-1
 591 1094 l 2,9,10
 591 1230 591 1230 566 1266 c 0,11,12
 542 1300 542 1300 484 1300.5 c 128,-1,13
 426 1301 426 1301 401.5 1249 c 128,-1,14
 377 1197 377 1197 377 1090 c 2,15,-1
 377 414 l 2,16,17
 377 303 377 303 399.5 251 c 128,-1,18
 422 199 422 199 487 199 c 0,19,20
 576 200 576 200 588 324 c 0,21,22
 592 360 592 360 591 413 c 2,23,-1
 591 591 l 1,24,-1
 847 591 l 1,25,-1
 847 439 l 2,26,27
 847 219 847 219 765 100.5 c 128,-1,28
 683 -18 683 -18 494 -18 c 0,29,30
 269 -18 269 -18 186 121 c 0,31,32
 110 248 110 248 110 500 c 2,33,-1
 110 986 l 2,0,1
EndSplineSet
EndChar

StartChar: d
Encoding: 100 100 71
Width: 998
Flags: W
LayerCount: 2
UndoRedoHistory
Layer: 1
Undoes
EndUndoes
Redoes
EndRedoes
EndUndoRedoHistory
Fore
SplineSet
602 1063 m 2,0,1
 602 1248 602 1248 546 1287 c 0,2,3
 523 1303 523 1303 488.5 1303 c 128,-1,4
 454 1303 454 1303 432 1287.5 c 128,-1,5
 410 1272 410 1272 398 1239 c 0,6,7
 377 1181 377 1181 377 1060 c 2,8,-1
 377 443 l 2,9,10
 377 319 377 319 400.5 257.5 c 128,-1,11
 424 196 424 196 488.5 196 c 128,-1,12
 553 196 553 196 577.5 257.5 c 128,-1,13
 602 319 602 319 602 463 c 2,14,-1
 602 1063 l 2,0,1
601 1775 m 1,15,-1
 866 1775 l 1,16,-1
 866 0 l 1,17,-1
 601 0 l 1,18,-1
 601 139 l 1,19,20
 541 -15 541 -15 386 -15 c 0,21,22
 265 -15 265 -15 206 52 c 0,23,24
 145 121 145 121 131 205 c 0,25,26
 110 330 110 330 110 479 c 2,27,-1
 110 1090 l 2,28,29
 110 1278 110 1278 177 1394 c 0,30,31
 248 1518 248 1518 407 1518 c 0,32,33
 469 1518 469 1518 520.5 1488 c 128,-1,34
 572 1458 572 1458 601 1407 c 1,35,-1
 601 1775 l 1,15,-1
EndSplineSet
EndChar

StartChar: e
Encoding: 101 101 72
Width: 945
Flags: W
LayerCount: 2
UndoRedoHistory
Layer: 1
Undoes
EndUndoes
Redoes
EndRedoes
EndUndoRedoHistory
Fore
SplineSet
590 1079 m 2,0,1
 590 1202 590 1202 570.5 1255.5 c 128,-1,2
 551 1309 551 1309 491 1309 c 0,3,4
 386 1310 386 1310 378 1150 c 0,5,6
 376 1120 376 1120 376 1072 c 2,7,-1
 376 887 l 1,8,-1
 590 887 l 1,9,-1
 590 1079 l 2,0,1
110 1058 m 2,10,11
 110 1518 110 1518 493 1518 c 0,12,13
 696 1518 696 1518 778 1392 c 0,14,15
 854 1275 854 1275 854 1053 c 2,16,-1
 854 732 l 1,17,-1
 377 732 l 1,18,-1
 377 437 l 2,19,20
 376 281 376 281 404 238 c 0,21,22
 431 196 431 196 487 196 c 0,23,24
 539 196 539 196 554.5 221 c 128,-1,25
 570 246 570 246 576.5 262.5 c 0,26,27
 583 278 583 278 586 312 c 0,28,29
 590 357 590 357 590 437 c 2,30,-1
 590 569 l 1,31,-1
 852 569 l 1,32,-1
 852 489 l 2,33,34
 852 285 852 285 820 196 c 128,-1,35
 788 107 788 107 746 67 c 0,36,37
 658 -18 658 -18 481 -18 c 0,38,39
 229 -18 229 -18 154 182 c 0,40,41
 110 299 110 299 110 499 c 2,42,-1
 110 1058 l 2,10,11
EndSplineSet
EndChar

StartChar: f
Encoding: 102 102 73
Width: 660
Flags: W
LayerCount: 2
UndoRedoHistory
Layer: 1
Undoes
EndUndoes
Redoes
EndRedoes
EndUndoRedoHistory
Fore
SplineSet
183 1519 m 2,0,1
 183 1645 183 1645 248.5 1714.5 c 128,-1,2
 314 1784 314 1784 423 1784 c 128,-1,3
 532 1784 532 1784 599 1759 c 1,4,-1
 599 1593 l 1,5,6
 570 1597 570 1597 530 1597 c 0,7,8
 448 1597 448 1597 447 1511 c 2,9,-1
 447 1441 l 1,10,-1
 599 1441 l 1,11,-1
 599 1250 l 1,12,-1
 447 1250 l 1,13,-1
 447 0 l 1,14,-1
 182 0 l 1,15,-1
 182 1250 l 1,16,-1
 66 1250 l 1,17,-1
 66 1441 l 1,18,-1
 183 1441 l 1,19,-1
 183 1519 l 2,0,1
EndSplineSet
EndChar

StartChar: g
Encoding: 103 103 74
Width: 990
Flags: W
LayerCount: 2
UndoRedoHistory
Layer: 1
Undoes
EndUndoes
Redoes
EndRedoes
EndUndoRedoHistory
Fore
SplineSet
600 1087 m 2,0,1
 600 1192 600 1192 574.5 1248 c 128,-1,2
 549 1304 549 1304 489 1304 c 0,3,4
 418 1304 418 1304 398 1242 c 0,5,6
 380 1189 380 1189 381 1088 c 2,7,-1
 381 594 l 2,8,9
 381 471 381 471 404.5 412.5 c 128,-1,10
 428 354 428 354 489.5 354 c 128,-1,11
 551 354 551 354 575.5 406.5 c 128,-1,12
 600 459 600 459 600 596 c 2,13,-1
 600 1087 l 2,0,1
114 1065 m 2,14,15
 114 1518 114 1518 398 1518 c 0,16,17
 400 1518 400 1518 402 1518 c 0,18,19
 558 1518 558 1518 600 1367 c 1,20,-1
 600 1500 l 1,21,-1
 865 1500 l 1,22,-1
 865 185 l 2,23,24
 866 -7 866 -7 774 -114 c 0,25,26
 679 -225 679 -225 451 -225 c 0,27,28
 233 -225 233 -225 100 -118 c 1,29,-1
 193 49 l 1,30,31
 312 -27 312 -27 435 -27 c 0,32,33
 518 -27 518 -27 559 25 c 128,-1,34
 600 77 600 77 600 165 c 2,35,-1
 600 284 l 1,36,37
 575 212 575 212 523.5 182.5 c 128,-1,38
 472 153 472 153 392.5 153 c 128,-1,39
 313 153 313 153 258 184.5 c 128,-1,40
 203 216 203 216 172 276 c 0,41,42
 114 387 114 387 114 582 c 2,43,-1
 114 1065 l 2,14,15
EndSplineSet
EndChar

StartChar: h
Encoding: 104 104 75
Width: 1020
Flags: W
LayerCount: 2
UndoRedoHistory
Layer: 1
Undoes
EndUndoes
Redoes
EndRedoes
EndUndoRedoHistory
Fore
SplineSet
135 1775 m 1,0,-1
 400 1775 l 1,1,-1
 400 1328 l 1,2,3
 421 1409 421 1409 483 1463.5 c 128,-1,4
 545 1518 545 1518 633 1518 c 0,5,6
 763 1518 763 1518 830 1431.5 c 128,-1,7
 897 1345 897 1345 897 1181 c 2,8,-1
 897 0 l 1,9,-1
 633 0 l 1,10,-1
 633 1156 l 2,11,12
 633 1301 633 1301 527 1301 c 0,13,14
 466 1301 466 1301 433 1251 c 128,-1,15
 400 1201 400 1201 400 1115 c 2,16,-1
 400 0 l 1,17,-1
 135 0 l 1,18,-1
 135 1775 l 1,0,-1
EndSplineSet
EndChar

StartChar: i
Encoding: 105 105 76
Width: 530
Flags: W
LayerCount: 2
UndoRedoHistory
Layer: 1
Undoes
EndUndoes
Redoes
EndRedoes
EndUndoRedoHistory
Fore
SplineSet
132 1868 m 1,0,-1
 399 1868 l 1,1,-1
 399 1638 l 1,2,-1
 132 1638 l 1,3,-1
 132 1868 l 1,0,-1
135 1500 m 1,4,-1
 400 1500 l 1,5,-1
 400 0 l 1,6,-1
 135 0 l 1,7,-1
 135 1500 l 1,4,-1
EndSplineSet
EndChar

StartChar: j
Encoding: 106 106 77
Width: 556
Flags: W
LayerCount: 2
UndoRedoHistory
Layer: 1
Undoes
EndUndoes
Redoes
EndRedoes
EndUndoRedoHistory
Fore
SplineSet
164 1868 m 1,0,-1
 431 1868 l 1,1,-1
 431 1638 l 1,2,-1
 164 1638 l 1,3,-1
 164 1868 l 1,0,-1
221 -196 m 0,4,5
 203 -197 203 -197 143 -197 c 128,-1,6
 83 -197 83 -197 60 -180 c 1,7,-1
 60 3 l 1,8,9
 77 -1 77 -1 105 2 c 1,10,11
 168 5 168 5 168 69 c 2,12,-1
 168 1500 l 1,13,-1
 433 1500 l 1,14,-1
 433 79 l 2,15,16
 433 -58 433 -58 377.5 -126 c 128,-1,17
 322 -194 322 -194 221 -196 c 0,4,5
EndSplineSet
EndChar

StartChar: k
Encoding: 107 107 78
Width: 961
Flags: W
LayerCount: 2
UndoRedoHistory
Layer: 1
Undoes
EndUndoes
Redoes
EndRedoes
EndUndoRedoHistory
Fore
SplineSet
135 1775 m 1,0,-1
 400 1775 l 1,1,-1
 400 818 l 1,2,-1
 656 1500 l 1,3,-1
 925 1500 l 1,4,-1
 636 762 l 1,5,-1
 942 0 l 1,6,-1
 672 0 l 1,7,-1
 400 713 l 1,8,-1
 400 0 l 1,9,-1
 135 0 l 1,10,-1
 135 1775 l 1,0,-1
EndSplineSet
EndChar

StartChar: l
Encoding: 108 108 79
Width: 531
Flags: W
LayerCount: 2
UndoRedoHistory
Layer: 1
Undoes
EndUndoes
Redoes
EndRedoes
EndUndoRedoHistory
Fore
SplineSet
132 1775 m 1,0,-1
 396 1775 l 1,1,-1
 396 0 l 1,2,-1
 132 0 l 1,3,-1
 132 1775 l 1,0,-1
EndSplineSet
EndChar

StartChar: m
Encoding: 109 109 80
Width: 1504
Flags: W
LayerCount: 2
UndoRedoHistory
Layer: 1
Undoes
EndUndoes
Redoes
EndRedoes
EndUndoRedoHistory
Fore
SplineSet
1117 0 m 1,0,-1
 1117 1152 l 2,1,2
 1117 1301 1117 1301 1016 1301 c 0,3,4
 955 1301 955 1301 922 1259 c 128,-1,5
 889 1217 889 1217 889 1138 c 2,6,-1
 889 0 l 1,7,-1
 624 0 l 1,8,-1
 624 1154 l 2,9,10
 624 1301 624 1301 526 1301 c 0,11,12
 461 1301 461 1301 428.5 1251.5 c 128,-1,13
 396 1202 396 1202 396 1124 c 2,14,-1
 396 0 l 1,15,-1
 131 0 l 1,16,-1
 131 1500 l 1,17,-1
 396 1500 l 1,18,-1
 396 1337 l 1,19,20
 419 1421 419 1421 479 1469.5 c 128,-1,21
 539 1518 539 1518 636 1518 c 0,22,23
 802 1518 802 1518 858 1367 c 1,24,25
 939 1518 939 1518 1113 1518 c 0,26,27
 1254 1518 1254 1518 1317.5 1424 c 128,-1,28
 1381 1330 1381 1330 1381 1149 c 2,29,-1
 1381 0 l 1,30,-1
 1117 0 l 1,0,-1
EndSplineSet
EndChar

StartChar: n
Encoding: 110 110 81
Width: 1020
Flags: W
LayerCount: 2
UndoRedoHistory
Layer: 1
Undoes
EndUndoes
Redoes
EndRedoes
EndUndoRedoHistory
Fore
SplineSet
637 1518 m 0,0,1
 897 1518 897 1518 897 1181 c 2,2,-1
 897 0 l 1,3,-1
 632 0 l 1,4,-1
 632 1165 l 2,5,6
 632 1230 632 1230 602.5 1267 c 128,-1,7
 573 1304 573 1304 517 1304 c 128,-1,8
 461 1304 461 1304 428.5 1256 c 128,-1,9
 396 1208 396 1208 396 1127 c 2,10,-1
 396 0 l 1,11,-1
 131 0 l 1,12,-1
 131 1500 l 1,13,-1
 396 1500 l 1,14,-1
 396 1328 l 1,15,16
 416 1408 416 1408 482 1463 c 128,-1,17
 548 1518 548 1518 637 1518 c 0,0,1
EndSplineSet
EndChar

StartChar: o
Encoding: 111 111 82
Width: 970
Flags: W
LayerCount: 2
UndoRedoHistory
Layer: 1
Undoes
EndUndoes
Redoes
EndRedoes
EndUndoRedoHistory
Fore
SplineSet
593 1084 m 2,0,1
 593 1194 593 1194 570 1249 c 128,-1,2
 547 1304 547 1304 485 1304 c 128,-1,3
 423 1304 423 1304 400 1249.5 c 128,-1,4
 377 1195 377 1195 377 1084 c 2,5,-1
 377 413 l 2,6,7
 377 248 377 248 431 211 c 0,8,9
 453 196 453 196 486 196 c 0,10,11
 548 196 548 196 570.5 250.5 c 128,-1,12
 593 305 593 305 593 413 c 2,13,-1
 593 1084 l 2,0,1
110 1037 m 2,14,15
 110 1518 110 1518 485 1518 c 128,-1,16
 860 1518 860 1518 860 1037 c 2,17,-1
 860 476 l 2,18,19
 860 101 860 101 667 15 c 0,20,21
 593 -18 593 -18 486 -18 c 128,-1,22
 379 -18 379 -18 305.5 14.5 c 128,-1,23
 232 47 232 47 190 113 c 0,24,25
 110 236 110 236 110 476 c 2,26,-1
 110 1037 l 2,14,15
EndSplineSet
EndChar

StartChar: p
Encoding: 112 112 83
Width: 998
Flags: W
LayerCount: 2
UndoRedoHistory
Layer: 1
Undoes
EndUndoes
Redoes
EndRedoes
EndUndoRedoHistory
Fore
SplineSet
621 1072 m 2,0,1
 621 1252 621 1252 572 1288 c 0,2,3
 550 1304 550 1304 516 1304 c 0,4,5
 456 1304 456 1304 426.5 1254.5 c 128,-1,6
 397 1205 397 1205 397 1073 c 2,7,-1
 397 439 l 2,8,9
 397 314 397 314 421 255.5 c 128,-1,10
 445 197 445 197 511 197 c 128,-1,11
 577 197 577 197 599 257.5 c 128,-1,12
 621 318 621 318 621 450 c 2,13,-1
 621 1072 l 2,0,1
397 1365 m 1,14,15
 425 1436 425 1436 486 1475.5 c 128,-1,16
 547 1515 547 1515 613.5 1515 c 128,-1,17
 680 1515 680 1515 729.5 1491 c 128,-1,18
 779 1467 779 1467 809 1427.5 c 128,-1,19
 839 1388 839 1388 857 1326 c 0,20,21
 888 1219 888 1219 888 1048 c 2,22,-1
 888 501 l 2,23,24
 888 236 888 236 836 132 c 0,25,26
 784 30 784 30 700 -0 c 0,27,28
 650 -18 650 -18 589.5 -18 c 128,-1,29
 529 -18 529 -18 478.5 13 c 128,-1,30
 428 44 428 44 397 91 c 1,31,-1
 397 -285 l 1,32,-1
 132 -285 l 1,33,-1
 132 1500 l 1,34,-1
 397 1500 l 1,35,-1
 397 1365 l 1,14,15
EndSplineSet
EndChar

StartChar: q
Encoding: 113 113 84
Width: 994
Flags: W
LayerCount: 2
UndoRedoHistory
Layer: 1
Undoes
EndUndoes
Redoes
EndRedoes
EndUndoRedoHistory
Fore
SplineSet
597 1063 m 2,0,1
 597 1189 597 1189 571 1246 c 128,-1,2
 545 1303 545 1303 481 1303 c 0,3,4
 415 1304 415 1304 394 1238 c 0,5,6
 376 1182 376 1182 376 1058 c 2,7,-1
 376 436 l 2,8,9
 376 250 376 250 422 213 c 0,10,11
 444 196 444 196 478 196 c 0,12,13
 542 196 542 196 569.5 247.5 c 128,-1,14
 597 299 597 299 597 429 c 2,15,-1
 597 1063 l 2,0,1
110 1048 m 2,16,17
 110 1390 110 1390 254 1480 c 0,18,19
 310 1515 310 1515 383 1515 c 0,20,21
 541 1515 541 1515 597 1386 c 1,22,-1
 597 1500 l 1,23,-1
 862 1500 l 1,24,-1
 862 -285 l 1,25,-1
 597 -285 l 1,26,-1
 597 102 l 1,27,28
 576 52 576 52 524 17 c 128,-1,29
 472 -18 472 -18 405 -18 c 128,-1,30
 338 -18 338 -18 284.5 7 c 128,-1,31
 231 32 231 32 198 74.5 c 128,-1,32
 165 117 165 117 145 182 c 0,33,34
 110 296 110 296 110 481 c 2,35,-1
 110 1048 l 2,16,17
EndSplineSet
EndChar

StartChar: r
Encoding: 114 114 85
Width: 697
Flags: W
LayerCount: 2
UndoRedoHistory
Layer: 1
Undoes
EndUndoes
Redoes
EndRedoes
EndUndoRedoHistory
Fore
SplineSet
654 1518 m 0,0,1
 658 1518 658 1518 658 1350 c 1,2,-1
 657 1294 l 1,3,4
 577 1294 577 1294 500 1267 c 128,-1,5
 423 1240 423 1240 399 1190 c 1,6,-1
 399 0 l 1,7,-1
 132 0 l 1,8,-1
 132 1500 l 1,9,-1
 399 1500 l 1,10,-1
 399 1333 l 1,11,12
 425 1421 425 1421 490.5 1469.5 c 128,-1,13
 556 1518 556 1518 654 1518 c 0,0,1
EndSplineSet
EndChar

StartChar: s
Encoding: 115 115 86
Width: 862
Flags: W
LayerCount: 2
UndoRedoHistory
Layer: 1
Undoes
EndUndoes
Redoes
EndRedoes
EndUndoRedoHistory
Fore
SplineSet
334 397 m 2,0,1
 334 197 334 197 436 197 c 0,2,3
 489 197 489 197 513.5 232.5 c 128,-1,4
 538 268 538 268 538 353 c 0,5,6
 538 503 538 503 400 631 c 0,7,8
 395 635 395 635 335 689 c 128,-1,9
 275 743 275 743 265 753 c 0,10,11
 80 922 80 922 80 1150 c 0,12,13
 80 1338 80 1338 168.5 1428 c 128,-1,14
 257 1518 257 1518 435 1518 c 0,15,16
 551 1518 551 1518 624 1476 c 0,17,18
 773 1390 773 1390 773 1083 c 2,19,-1
 773 1001 l 1,20,-1
 536 1001 l 1,21,-1
 536 1100 l 2,22,23
 536 1301 536 1301 437 1301 c 0,24,25
 383 1301 383 1301 357.5 1270 c 128,-1,26
 332 1239 332 1239 332 1164 c 0,27,28
 332 1045 332 1045 438 943 c 1,29,-1
 580 814 l 1,30,31
 799 610 799 610 799 365 c 0,32,33
 799 173 799 173 712 77 c 128,-1,34
 625 -19 625 -19 442 -19 c 128,-1,35
 259 -19 259 -19 172 85.5 c 128,-1,36
 85 190 85 190 85 421 c 2,37,-1
 85 518 l 1,38,-1
 334 518 l 1,39,-1
 334 397 l 2,0,1
EndSplineSet
EndChar

StartChar: t
Encoding: 116 116 87
Width: 638
Flags: W
LayerCount: 2
UndoRedoHistory
Layer: 1
Undoes
EndUndoes
Redoes
EndRedoes
EndUndoRedoHistory
Fore
SplineSet
166 1761 m 1,0,-1
 431 1761 l 1,1,-1
 431 1469 l 1,2,-1
 577 1469 l 1,3,-1
 577 1277 l 1,4,-1
 431 1277 l 1,5,-1
 431 275 l 2,6,7
 431 247 431 247 436 232 c 0,8,9
 441 218 441 218 459 208 c 0,10,11
 488 192 488 192 582 192 c 1,12,-1
 582 -10 l 1,13,-1
 402 -10 l 2,14,15
 260 -10 260 -10 212 46 c 0,16,17
 166 100 166 100 166 229 c 2,18,-1
 166 1277 l 1,19,-1
 44 1277 l 1,20,-1
 44 1469 l 1,21,-1
 166 1469 l 1,22,-1
 166 1761 l 1,0,-1
EndSplineSet
EndChar

StartChar: u
Encoding: 117 117 88
Width: 1010
Flags: W
LayerCount: 2
UndoRedoHistory
Layer: 1
Undoes
EndUndoes
Redoes
EndRedoes
EndUndoRedoHistory
Fore
SplineSet
619 1500 m 1,0,-1
 883 1500 l 1,1,-1
 883 0 l 1,2,-1
 618 0 l 1,3,-1
 618 156 l 1,4,5
 555 -19 555 -19 389 -19 c 0,6,7
 122 -19 122 -19 122 340 c 2,8,-1
 122 1500 l 1,9,-1
 388 1500 l 1,10,-1
 388 381 l 2,11,12
 388 288 388 288 411 243.5 c 128,-1,13
 434 199 434 199 497 199 c 0,14,15
 618 199 618 199 618 379 c 2,16,-1
 619 1500 l 1,0,-1
EndSplineSet
EndChar

StartChar: v
Encoding: 118 118 89
Width: 852
Flags: W
LayerCount: 2
UndoRedoHistory
Layer: 1
Undoes
EndUndoes
Redoes
EndRedoes
EndUndoRedoHistory
Fore
SplineSet
558 1500 m 1,0,-1
 806 1500 l 1,1,-1
 589 0 l 1,2,-1
 264 0 l 1,3,-1
 47 1500 l 1,4,-1
 297 1500 l 1,5,-1
 394 702 l 1,6,-1
 427 343 l 1,7,-1
 447 343 l 1,8,-1
 475 703 l 1,9,-1
 558 1500 l 1,0,-1
EndSplineSet
EndChar

StartChar: w
Encoding: 119 119 90
Width: 1258
Flags: W
LayerCount: 2
UndoRedoHistory
Layer: 1
Undoes
EndUndoes
Redoes
EndRedoes
EndUndoRedoHistory
Fore
SplineSet
988 1500 m 1,0,-1
 1210 1500 l 1,1,-1
 1020 0 l 1,2,-1
 788 0 l 1,3,-1
 636 1127 l 1,4,-1
 474 0 l 1,5,-1
 250 0 l 1,6,-1
 49 1500 l 1,7,-1
 272 1500 l 1,8,-1
 348 867 l 1,9,-1
 382 545 l 1,10,-1
 388 545 l 1,11,-1
 421 868 l 1,12,-1
 510 1500 l 1,13,-1
 746 1500 l 1,14,-1
 844 880 l 1,15,-1
 886 545 l 1,16,-1
 892 545 l 1,17,-1
 921 879 l 1,18,-1
 988 1500 l 1,0,-1
EndSplineSet
EndChar

StartChar: x
Encoding: 120 120 91
Width: 840
Flags: W
LayerCount: 2
UndoRedoHistory
Layer: 1
Undoes
EndUndoes
Redoes
EndRedoes
EndUndoRedoHistory
Fore
SplineSet
44 1500 m 1,0,-1
 279 1500 l 1,1,-1
 433 1067 l 1,2,-1
 565 1500 l 1,3,-1
 799 1500 l 1,4,-1
 545 755 l 1,5,-1
 814 0 l 1,6,-1
 568 0 l 1,7,-1
 411 449 l 1,8,-1
 272 0 l 1,9,-1
 27 0 l 1,10,-1
 294 783 l 1,11,-1
 44 1500 l 1,0,-1
EndSplineSet
EndChar

StartChar: y
Encoding: 121 121 92
Width: 859
Flags: W
LayerCount: 2
UndoRedoHistory
Layer: 1
Undoes
EndUndoes
Redoes
EndRedoes
EndUndoRedoHistory
Fore
SplineSet
577 1501 m 1,0,-1
 828 1501 l 1,1,-1
 568 -64 l 2,2,3
 551 -173 551 -173 521 -208.5 c 128,-1,4
 491 -244 491 -244 457 -254.5 c 128,-1,5
 423 -265 423 -265 371 -265 c 2,6,-1
 89 -265 l 1,7,-1
 89 -82 l 1,8,-1
 176 -82 l 2,9,10
 226 -82 226 -82 253 -74 c 128,-1,11
 280 -66 280 -66 284 -42 c 1,12,13
 290 -32 290 -32 290 -5 c 128,-1,14
 290 22 290 22 283 68 c 2,15,-1
 43 1501 l 1,16,-1
 295 1501 l 1,17,-1
 391 733 l 1,18,-1
 431 329 l 1,19,-1
 453 329 l 1,20,-1
 489 733 l 1,21,-1
 577 1501 l 1,0,-1
EndSplineSet
EndChar

StartChar: z
Encoding: 122 122 93
Width: 732
Flags: W
LayerCount: 2
UndoRedoHistory
Layer: 1
Undoes
EndUndoes
Redoes
EndRedoes
EndUndoRedoHistory
Fore
SplineSet
98 1500 m 1,0,-1
 672 1500 l 1,1,-1
 672 1309 l 1,2,-1
 344 222 l 1,3,-1
 658 222 l 1,4,-1
 658 0 l 1,5,-1
 73 0 l 1,6,-1
 73 200 l 1,7,-1
 403 1273 l 1,8,-1
 98 1273 l 1,9,-1
 98 1500 l 1,0,-1
EndSplineSet
EndChar

StartChar: braceleft
Encoding: 123 123 94
Width: 798
Flags: W
LayerCount: 2
UndoRedoHistory
Layer: 1
Undoes
EndUndoes
Redoes
EndRedoes
EndUndoRedoHistory
Fore
SplineSet
614 1781 m 2,0,-1
 674 1781 l 1,1,-1
 674 1582 l 1,2,3
 585 1582 585 1582 560 1553.5 c 128,-1,4
 535 1525 535 1525 535 1430 c 2,5,-1
 535 1184 l 2,6,7
 535 1053 535 1053 522.5 987 c 128,-1,8
 510 921 510 921 477.5 886 c 128,-1,9
 445 851 445 851 376 830 c 1,10,11
 445 809 445 809 477.5 774 c 128,-1,12
 510 739 510 739 522.5 673 c 128,-1,13
 535 607 535 607 535 476 c 2,14,-1
 535 230 l 2,15,16
 535 135 535 135 560 106.5 c 128,-1,17
 585 78 585 78 674 78 c 1,18,-1
 674 -121 l 1,19,-1
 614 -121 l 2,20,21
 425 -121 425 -121 348.5 -48.5 c 128,-1,22
 272 24 272 24 272 217 c 2,23,-1
 272 492 l 2,24,25
 272 654 272 654 238 682 c 0,26,27
 204 710 204 710 133 710 c 1,28,-1
 133 950 l 1,29,30
 204 950 204 950 229 970 c 128,-1,31
 254 990 254 990 261 1020 c 0,32,33
 272 1066 272 1066 272 1168 c 2,34,-1
 272 1443 l 2,35,36
 272 1636 272 1636 348.5 1708.5 c 128,-1,37
 425 1781 425 1781 614 1781 c 2,0,-1
EndSplineSet
EndChar

StartChar: bar
Encoding: 124 124 95
Width: 537
Flags: W
LayerCount: 2
UndoRedoHistory
Layer: 1
Undoes
EndUndoes
Redoes
EndRedoes
EndUndoRedoHistory
Fore
SplineSet
150 1863 m 1,0,-1
 393 1863 l 1,1,-1
 393 -84 l 1,2,-1
 150 -84 l 1,3,-1
 150 1863 l 1,0,-1
EndSplineSet
EndChar

StartChar: braceright
Encoding: 125 125 96
Width: 798
Flags: W
LayerCount: 2
UndoRedoHistory
Layer: 1
Undoes
EndUndoes
Redoes
EndRedoes
EndUndoRedoHistory
Fore
SplineSet
193 1781 m 2,0,1
 382 1781 382 1781 458.5 1708.5 c 128,-1,2
 535 1636 535 1636 535 1443 c 2,3,-1
 535 1168 l 2,4,5
 534 1006 534 1006 568 978 c 0,6,7
 602 950 602 950 674 950 c 1,8,-1
 674 710 l 1,9,10
 603 710 603 710 578 690 c 128,-1,11
 553 670 553 670 546 640 c 0,12,13
 535 594 535 594 535 492 c 2,14,-1
 535 217 l 2,15,16
 535 24 535 24 458.5 -48.5 c 128,-1,17
 382 -121 382 -121 193 -121 c 2,18,-1
 133 -121 l 1,19,-1
 133 78 l 1,20,21
 222 78 222 78 247 106.5 c 128,-1,22
 272 135 272 135 272 230 c 2,23,-1
 272 476 l 2,24,25
 272 607 272 607 284.5 673 c 128,-1,26
 297 739 297 739 330 774 c 128,-1,27
 363 809 363 809 432 830 c 1,28,29
 363 851 363 851 330 886 c 128,-1,30
 297 921 297 921 284.5 987 c 128,-1,31
 272 1053 272 1053 272 1184 c 2,32,-1
 272 1430 l 2,33,34
 272 1525 272 1525 247 1553.5 c 128,-1,35
 222 1582 222 1582 133 1582 c 1,36,-1
 133 1781 l 1,37,-1
 193 1781 l 2,0,1
EndSplineSet
EndChar

StartChar: asciitilde
Encoding: 126 126 97
Width: 1117
Flags: W
LayerCount: 2
UndoRedoHistory
Layer: 1
Undoes
EndUndoes
Redoes
EndRedoes
EndUndoRedoHistory
Fore
SplineSet
556 1120.5 m 128,-1,1
 708 1072 708 1072 731.5 1073 c 128,-1,2
 755 1074 755 1074 780.5 1101.5 c 128,-1,3
 806 1129 806 1129 823 1183 c 1,4,-1
 1009 1141 l 1,5,6
 989 1061 989 1061 941 975 c 0,7,8
 850 810 850 810 766 810 c 0,9,10
 708 810 708 810 563.5 862 c 128,-1,11
 419 914 419 914 376 914 c 128,-1,12
 333 914 333 914 313.5 893 c 128,-1,13
 294 872 294 872 272 821 c 1,14,-1
 100 903 l 1,15,16
 180 1169 180 1169 347 1169 c 0,17,0
 404 1169 404 1169 556 1120.5 c 128,-1,1
EndSplineSet
EndChar

StartChar: cent
Encoding: 162 162 100
Width: 788
Flags: W
LayerCount: 2
UndoRedoHistory
Layer: 1
Undoes
EndUndoes
Redoes
EndRedoes
EndUndoRedoHistory
Fore
SplineSet
110 986 m 2,0,1
 110 1313 110 1313 224 1427 c 0,2,3
 293 1496 293 1496 416 1513 c 1,4,-1
 416 1766 l 1,5,-1
 529 1766 l 1,6,-1
 529 1517 l 1,7,8
 690 1508 690 1508 768.5 1401.5 c 128,-1,9
 847 1295 847 1295 847 1085 c 2,10,-1
 847 920 l 1,11,-1
 591 920 l 1,12,-1
 591 1094 l 2,13,14
 591 1230 591 1230 566 1266 c 0,15,16
 542 1300 542 1300 484 1300.5 c 128,-1,17
 426 1301 426 1301 401.5 1249 c 128,-1,18
 377 1197 377 1197 377 1090 c 2,19,-1
 377 414 l 2,20,21
 377 303 377 303 399.5 251 c 128,-1,22
 422 199 422 199 487 199 c 0,23,24
 576 200 576 200 588 324 c 0,25,26
 592 360 592 360 591 413 c 2,27,-1
 591 591 l 1,28,-1
 847 591 l 1,29,-1
 847 439 l 2,30,31
 847 219 847 219 769 106 c 128,-1,32
 691 -7 691 -7 529 -17 c 1,33,-1
 529 -251 l 1,34,-1
 416 -251 l 1,35,-1
 416 -13 l 1,36,37
 254 8 254 8 186 121 c 0,38,39
 110 248 110 248 110 500 c 2,40,-1
 110 986 l 2,0,1
EndSplineSet
EndChar

StartChar: sterling
Encoding: 163 163 101
Width: 1077
Flags: W
LayerCount: 2
UndoRedoHistory
Layer: 1
Undoes
EndUndoes
Redoes
EndRedoes
EndUndoRedoHistory
Fore
SplineSet
82 0 m 1,0,-1
 82 205 l 1,1,2
 208 260 208 260 272.5 362.5 c 128,-1,3
 337 465 337 465 337 631 c 0,4,5
 337 708 337 708 322 783 c 1,6,-1
 92 783 l 1,7,-1
 92 973 l 1,8,-1
 281 973 l 1,9,10
 166 1339 166 1339 166 1389 c 0,11,12
 166 1579 166 1579 272 1680 c 128,-1,13
 378 1781 378 1781 592 1781 c 0,14,15
 963 1781 963 1781 963 1381 c 2,16,-1
 963 1246 l 1,17,-1
 719 1246 l 1,18,-1
 719 1393 l 2,19,20
 719 1476 719 1476 685 1521.5 c 0,21,22
 652 1567 652 1567 578 1567 c 0,23,24
 418 1567 418 1567 417 1414 c 0,25,26
 417 1382 417 1382 462.5 1222 c 128,-1,27
 508 1062 508 1062 532 973 c 1,28,-1
 865 973 l 1,29,-1
 865 783 l 1,30,-1
 582 783 l 1,31,32
 599 698 599 698 599 622 c 0,33,34
 599 472 599 472 550.5 370.5 c 128,-1,35
 502 269 502 269 415 226 c 1,36,-1
 954 226 l 1,37,-1
 954 0 l 1,38,-1
 82 0 l 1,0,-1
EndSplineSet
EndChar

StartChar: currency
Encoding: 164 164 102
Width: 1159
Flags: W
LayerCount: 2
UndoRedoHistory
Layer: 1
Undoes
EndUndoes
Redoes
EndRedoes
EndUndoRedoHistory
Fore
SplineSet
730 806 m 128,-1,1
 788 871 788 871 788 966.5 c 128,-1,2
 788 1062 788 1062 731 1124 c 128,-1,3
 674 1186 674 1186 580 1186 c 128,-1,4
 486 1186 486 1186 428.5 1122 c 128,-1,5
 371 1058 371 1058 371 963.5 c 128,-1,6
 371 869 371 869 428.5 805 c 128,-1,7
 486 741 486 741 579 741 c 128,-1,0
 672 741 672 741 730 806 c 128,-1,1
797 1331 m 1,8,-1
 884 1418 l 1,9,-1
 1034 1269 l 1,10,-1
 944 1179 l 1,11,12
 998 1082 998 1082 998 964 c 128,-1,13
 998 846 998 846 944 748 c 1,14,-1
 1034 658 l 1,15,-1
 884 509 l 1,16,-1
 795 597 l 1,17,18
 703 545 703 545 579 545 c 128,-1,19
 455 545 455 545 363 598 c 1,20,-1
 274 509 l 1,21,-1
 125 659 l 1,22,-1
 216 750 l 1,23,24
 163 848 163 848 163 964.5 c 128,-1,25
 163 1081 163 1081 215 1178 c 1,26,-1
 125 1268 l 1,27,-1
 274 1418 l 1,28,-1
 361 1330 l 1,29,30
 458 1385 458 1385 579 1385 c 128,-1,31
 700 1385 700 1385 797 1331 c 1,8,-1
EndSplineSet
EndChar

StartChar: yen
Encoding: 165 165 103
Width: 866
Flags: W
LayerCount: 2
UndoRedoHistory
Layer: 1
Undoes
EndUndoes
Redoes
EndRedoes
EndUndoRedoHistory
Fore
SplineSet
606 1760 m 1,0,-1
 861 1760 l 1,1,-1
 598 770 l 1,2,-1
 774 770 l 1,3,-1
 774 619 l 1,4,-1
 580 619 l 1,5,-1
 580 468 l 1,6,-1
 774 468 l 1,7,-1
 774 315 l 1,8,-1
 580 315 l 1,9,-1
 580 0 l 1,10,-1
 312 0 l 1,11,-1
 312 315 l 1,12,-1
 94 315 l 1,13,-1
 94 468 l 1,14,-1
 312 468 l 1,15,-1
 312 619 l 1,16,-1
 94 619 l 1,17,-1
 94 770 l 1,18,-1
 293 770 l 1,19,-1
 17 1760 l 1,20,-1
 273 1760 l 1,21,-1
 447 1102 l 1,22,-1
 451 1102 l 1,23,-1
 606 1760 l 1,0,-1
EndSplineSet
EndChar

StartChar: brokenbar
Encoding: 166 166 104
Width: 530
Flags: W
LayerCount: 2
UndoRedoHistory
Layer: 1
Undoes
EndUndoes
Redoes
EndRedoes
EndUndoRedoHistory
Fore
SplineSet
122 724 m 1,0,-1
 408 724 l 1,1,-1
 408 -84 l 1,2,-1
 122 -84 l 1,3,-1
 122 724 l 1,0,-1
122 1761 m 1,4,-1
 408 1761 l 1,5,-1
 408 931 l 1,6,-1
 122 931 l 1,7,-1
 122 1761 l 1,4,-1
EndSplineSet
EndChar

StartChar: section
Encoding: 167 167 105
Width: 950
Flags: W
LayerCount: 2
UndoRedoHistory
Layer: 1
Undoes
EndUndoes
Redoes
EndRedoes
EndUndoRedoHistory
Fore
SplineSet
757.5 61.5 m 128,-1,1
 660 -20 660 -20 479 -20 c 128,-1,2
 298 -20 298 -20 202.5 76 c 128,-1,3
 107 172 107 172 107 391 c 1,4,-1
 406 391 l 1,5,6
 406 289 406 289 429 254.5 c 128,-1,7
 452 220 452 220 492.5 220 c 128,-1,8
 533 220 533 220 549.5 238.5 c 128,-1,9
 566 257 566 257 566 287 c 128,-1,10
 566 317 566 317 562.5 330.5 c 128,-1,11
 559 344 559 344 550 358 c 128,-1,12
 541 372 541 372 533 383.5 c 128,-1,13
 525 395 525 395 508.5 410 c 128,-1,14
 492 425 492 425 480.5 435 c 128,-1,15
 469 445 469 445 447.5 461.5 c 128,-1,16
 426 478 426 478 413 487 c 128,-1,17
 400 496 400 496 374.5 514.5 c 128,-1,18
 349 533 349 533 318.5 554.5 c 128,-1,19
 288 576 288 576 259.5 600 c 0,20,21
 232 624 232 624 196 664 c 0,22,23
 126 744 126 744 125 862 c 0,24,25
 125 938 125 938 156.5 1013 c 128,-1,26
 188 1088 188 1088 248 1143 c 1,27,28
 188 1198 188 1198 156.5 1275 c 128,-1,29
 125 1352 125 1352 125 1433 c 0,30,31
 125 1598 125 1598 229 1689.5 c 128,-1,32
 333 1781 333 1781 502 1781 c 128,-1,33
 671 1781 671 1781 762 1684.5 c 128,-1,34
 853 1588 853 1588 853 1372 c 1,35,-1
 580 1372 l 1,36,37
 580 1469 580 1469 562 1505.5 c 128,-1,38
 544 1542 544 1542 497 1542 c 0,39,40
 412 1542 412 1542 412 1451 c 0,41,42
 412 1373 412 1373 630 1227 c 0,43,44
 633 1226 633 1226 634 1225 c 128,-1,45
 635 1224 635 1224 637 1223 c 128,-1,46
 639 1222 639 1222 668 1203.5 c 128,-1,47
 697 1185 697 1185 741 1140.5 c 128,-1,48
 785 1096 785 1096 818.5 1026.5 c 128,-1,49
 852 957 852 957 852 883 c 128,-1,50
 852 809 852 809 809 734 c 128,-1,51
 766 659 766 659 700 598 c 1,52,53
 779 525 779 525 817 457 c 128,-1,54
 855 389 855 389 855 293 c 0,55,0
 855 143 855 143 757.5 61.5 c 128,-1,1
541 735 m 1,56,57
 586 810 586 810 586 856 c 0,58,59
 586 950 586 950 426 1017 c 1,60,61
 381 952 381 952 381 899.5 c 128,-1,62
 381 847 381 847 428.5 804 c 128,-1,63
 476 761 476 761 541 735 c 1,56,57
EndSplineSet
EndChar

StartChar: dieresis
Encoding: 168 168 106
Width: 976
Flags: W
LayerCount: 2
UndoRedoHistory
Layer: 1
Undoes
EndUndoes
Redoes
EndRedoes
EndUndoRedoHistory
Fore
SplineSet
105 1129 m 1,0,-1
 387 1129 l 1,1,-1
 387 903 l 1,2,-1
 105 903 l 1,3,-1
 105 1129 l 1,0,-1
589 1129 m 1,4,-1
 871 1129 l 1,5,-1
 871 903 l 1,6,-1
 589 903 l 1,7,-1
 589 1129 l 1,4,-1
EndSplineSet
EndChar

StartChar: copyright
Encoding: 169 169 107
Width: 1466
Flags: W
LayerCount: 2
UndoRedoHistory
Layer: 1
Undoes
EndUndoes
Redoes
EndRedoes
EndUndoRedoHistory
Fore
SplineSet
733 1389 m 128,-1,1
 592 1389 592 1389 477 1318 c 128,-1,2
 362 1247 362 1247 298.5 1126 c 128,-1,3
 235 1005 235 1005 235 861 c 128,-1,4
 235 717 235 717 298.5 596 c 128,-1,5
 362 475 362 475 477 404 c 128,-1,6
 592 333 592 333 733 333 c 128,-1,7
 874 333 874 333 989 404 c 128,-1,8
 1104 475 1104 475 1167.5 596 c 128,-1,9
 1231 717 1231 717 1231 861 c 128,-1,10
 1231 1005 1231 1005 1167.5 1126 c 128,-1,11
 1104 1247 1104 1247 989 1318 c 128,-1,0
 874 1389 874 1389 733 1389 c 128,-1,1
76 861 m 128,-1,13
 76 1045 76 1045 162 1195.5 c 128,-1,14
 248 1346 248 1346 398.5 1432 c 128,-1,15
 549 1518 549 1518 733 1518 c 128,-1,16
 917 1518 917 1518 1067.5 1432 c 128,-1,17
 1218 1346 1218 1346 1304 1195.5 c 128,-1,18
 1390 1045 1390 1045 1390 861 c 128,-1,19
 1390 677 1390 677 1304 526.5 c 128,-1,20
 1218 376 1218 376 1067.5 290 c 128,-1,21
 917 204 917 204 733 204 c 128,-1,22
 549 204 549 204 398.5 290 c 128,-1,23
 248 376 248 376 162 526.5 c 128,-1,12
 76 677 76 677 76 861 c 128,-1,13
497 1048 m 2,24,25
 497 1304 497 1304 736 1304 c 0,26,27
 838 1304 838 1304 892.5 1253.5 c 128,-1,28
 947 1203 947 1203 947 1104 c 2,29,-1
 947 951 l 1,30,-1
 782 951 l 1,31,-1
 782 1052 l 2,32,33
 782 1129 782 1129 736 1129 c 0,34,35
 710 1129 710 1129 701 1113 c 128,-1,36
 692 1097 692 1097 692 1065 c 2,37,-1
 692 656 l 2,38,39
 692 631 692 631 704 611 c 128,-1,40
 716 591 716 591 736 591 c 0,41,42
 782 591 782 591 782 656 c 2,43,-1
 782 805 l 1,44,-1
 951 805 l 1,45,-1
 951 642 l 2,46,47
 951 529 951 529 900.5 476 c 128,-1,48
 850 423 850 423 738 423 c 0,49,50
 626 423 626 423 561.5 483 c 128,-1,51
 497 543 497 543 497 647 c 2,52,-1
 497 1048 l 2,24,25
EndSplineSet
EndChar

StartChar: ordfeminine
Encoding: 170 170 108
Width: 927
Flags: W
LayerCount: 2
UndoRedoHistory
Layer: 1
Undoes
EndUndoes
Redoes
EndRedoes
EndUndoRedoHistory
Fore
SplineSet
552 640 m 1,0,-1
 552 1037 l 1,1,2
 449 993 449 993 415 955 c 128,-1,3
 381 917 381 917 381 831 c 2,4,-1
 381 710 l 2,5,6
 381 626 381 626 398.5 589.5 c 128,-1,7
 416 553 416 553 456 553 c 128,-1,8
 496 553 496 553 520.5 579.5 c 128,-1,9
 545 606 545 606 552 640 c 1,0,-1
182 1259 m 0,10,11
 182 1434 182 1434 247.5 1520.5 c 128,-1,12
 313 1607 313 1607 472.5 1607 c 128,-1,13
 632 1607 632 1607 699.5 1518 c 128,-1,14
 767 1429 767 1429 767 1250 c 2,15,-1
 767 397 l 1,16,-1
 555 397 l 1,17,-1
 555 507 l 1,18,19
 543 463 543 463 495.5 424 c 128,-1,20
 448 385 448 385 386 385 c 0,21,22
 269 385 269 385 218.5 468.5 c 128,-1,23
 168 552 168 552 166 709 c 1,24,-1
 166 788 l 2,25,26
 166 901 166 901 222 996 c 0,27,28
 240 1027 240 1027 299.5 1061 c 0,29,30
 359 1094 359 1094 387 1106 c 0,31,32
 422 1120 422 1120 553 1170 c 1,33,-1
 553 1212 l 2,34,35
 553 1338 553 1338 545 1372 c 0,36,37
 530 1437 530 1437 477.5 1437 c 128,-1,38
 425 1437 425 1437 408 1402 c 128,-1,39
 391 1367 391 1367 391 1281 c 2,40,-1
 391 1223 l 1,41,-1
 183 1223 l 1,42,43
 182 1228 182 1228 182 1259 c 0,10,11
EndSplineSet
EndChar

StartChar: guillemotleft
Encoding: 171 171 109
Width: 1304
Flags: W
LayerCount: 2
UndoRedoHistory
Layer: 1
Undoes
EndUndoes
Redoes
EndRedoes
EndUndoRedoHistory
Fore
SplineSet
88 887 m 1,0,-1
 579 1158 l 1,1,-1
 579 890 l 1,2,-1
 267 749 l 1,3,-1
 579 599 l 1,4,-1
 579 327 l 1,5,-1
 88 612 l 1,6,-1
 88 887 l 1,0,-1
642 887 m 1,7,-1
 1133 1158 l 1,8,-1
 1133 890 l 1,9,-1
 821 749 l 1,10,-1
 1133 599 l 1,11,-1
 1133 327 l 1,12,-1
 642 612 l 1,13,-1
 642 887 l 1,7,-1
EndSplineSet
EndChar

StartChar: logicalnot
Encoding: 172 172 110
Width: 947
Flags: W
LayerCount: 2
UndoRedoHistory
Layer: 1
Undoes
EndUndoes
Redoes
EndRedoes
EndUndoRedoHistory
Fore
SplineSet
97 979 m 1,0,-1
 826 979 l 1,1,-1
 826 439 l 1,2,-1
 602 439 l 1,3,-1
 602 743 l 1,4,-1
 97 743 l 1,5,-1
 97 979 l 1,0,-1
EndSplineSet
EndChar

StartChar: uni00AD
Encoding: 173 173 111
Width: 696
Flags: W
LayerCount: 2
UndoRedoHistory
Layer: 1
Undoes
EndUndoes
Redoes
EndRedoes
EndUndoRedoHistory
Fore
SplineSet
90 741 m 1,0,-1
 606 741 l 1,1,-1
 606 509 l 1,2,-1
 90 509 l 1,3,-1
 90 741 l 1,0,-1
EndSplineSet
EndChar

StartChar: registered
Encoding: 174 174 112
Width: 1502
Flags: W
LayerCount: 2
UndoRedoHistory
Layer: 1
Undoes
EndUndoes
Redoes
EndRedoes
EndUndoRedoHistory
Fore
SplineSet
529 430 m 1,0,-1
 529 1282 l 1,1,-1
 818 1282 l 2,2,3
 919 1282 919 1282 954 1223 c 128,-1,4
 989 1164 989 1164 989 1068 c 0,5,6
 989 972 989 972 968.5 931 c 128,-1,7
 948 890 948 890 896 873 c 1,8,9
 975 858 975 858 975 751 c 2,10,-1
 975 430 l 1,11,-1
 791 430 l 1,12,-1
 791 762 l 2,13,14
 791 797 791 797 775.5 807.5 c 128,-1,15
 760 818 760 818 719 818 c 1,16,-1
 719 430 l 1,17,-1
 529 430 l 1,0,-1
751 334 m 128,-1,19
 892 334 892 334 1007 405 c 128,-1,20
 1122 476 1122 476 1185.5 597 c 128,-1,21
 1249 718 1249 718 1249 862 c 128,-1,22
 1249 1006 1249 1006 1185.5 1127 c 128,-1,23
 1122 1248 1122 1248 1007 1319 c 128,-1,24
 892 1390 892 1390 751 1390 c 128,-1,25
 610 1390 610 1390 495 1319 c 128,-1,26
 380 1248 380 1248 316.5 1127 c 128,-1,27
 253 1006 253 1006 253 862 c 128,-1,28
 253 718 253 718 316.5 597 c 128,-1,29
 380 476 380 476 495 405 c 128,-1,18
 610 334 610 334 751 334 c 128,-1,19
751 205 m 128,-1,31
 567 205 567 205 416.5 291 c 128,-1,32
 266 377 266 377 180 527.5 c 128,-1,33
 94 678 94 678 94 862 c 128,-1,34
 94 1046 94 1046 180 1196.5 c 128,-1,35
 266 1347 266 1347 416.5 1433 c 128,-1,36
 567 1519 567 1519 751 1519 c 128,-1,37
 935 1519 935 1519 1085.5 1433 c 128,-1,38
 1236 1347 1236 1347 1322 1196.5 c 128,-1,39
 1408 1046 1408 1046 1408 862 c 128,-1,40
 1408 678 1408 678 1322 527.5 c 128,-1,41
 1236 377 1236 377 1085.5 291 c 128,-1,30
 935 205 935 205 751 205 c 128,-1,31
720 965 m 1,42,-1
 768 965 l 2,43,44
 805 965 805 965 805 1030 c 0,45,46
 805 1095 805 1095 789.5 1109.5 c 128,-1,47
 774 1124 774 1124 720 1124 c 1,48,-1
 720 965 l 1,42,-1
EndSplineSet
EndChar

StartChar: macron
Encoding: 175 175 113
Width: 696
Flags: W
LayerCount: 2
UndoRedoHistory
Layer: 1
Undoes
EndUndoes
Redoes
EndRedoes
EndUndoRedoHistory
Fore
SplineSet
90 1077 m 1,0,-1
 597 1077 l 1,1,-1
 597 926 l 1,2,-1
 90 926 l 1,3,-1
 90 1077 l 1,0,-1
EndSplineSet
EndChar

StartChar: degree
Encoding: 176 176 114
Width: 915
Flags: W
LayerCount: 2
UndoRedoHistory
Layer: 1
Undoes
EndUndoes
Redoes
EndRedoes
EndUndoRedoHistory
Fore
SplineSet
458 1112 m 128,-1,1
 523 1112 523 1112 561.5 1157 c 128,-1,2
 600 1202 600 1202 600 1269 c 128,-1,3
 600 1336 600 1336 561.5 1381 c 128,-1,4
 523 1426 523 1426 458 1426 c 128,-1,5
 393 1426 393 1426 354.5 1381 c 128,-1,6
 316 1336 316 1336 316 1269 c 128,-1,7
 316 1202 316 1202 354.5 1157 c 128,-1,0
 393 1112 393 1112 458 1112 c 128,-1,1
457 931 m 128,-1,9
 295 931 295 931 199.5 1021 c 0,10,11
 104 1110 104 1110 104 1268 c 128,-1,12
 104 1426 104 1426 199.5 1516.5 c 128,-1,13
 295 1607 295 1607 457 1607 c 128,-1,14
 619 1607 619 1607 715 1516.5 c 128,-1,15
 811 1426 811 1426 811 1269 c 128,-1,16
 811 1112 811 1112 715 1021.5 c 128,-1,8
 619 931 619 931 457 931 c 128,-1,9
EndSplineSet
EndChar

StartChar: plusminus
Encoding: 177 177 115
Width: 854
Flags: W
LayerCount: 2
UndoRedoHistory
Layer: 1
Undoes
EndUndoes
Redoes
EndRedoes
EndUndoRedoHistory
Fore
SplineSet
156 295 m 1,0,-1
 672 295 l 1,1,-1
 672 112 l 1,2,-1
 156 112 l 1,3,-1
 156 295 l 1,0,-1
336 1116 m 1,4,-1
 518 1116 l 1,5,-1
 518 885 l 1,6,-1
 738 885 l 1,7,-1
 738 708 l 1,8,-1
 518 708 l 1,9,-1
 518 475 l 1,10,-1
 336 475 l 1,11,-1
 336 708 l 1,12,-1
 118 708 l 1,13,-1
 118 885 l 1,14,-1
 336 885 l 1,15,-1
 336 1116 l 1,4,-1
EndSplineSet
EndChar

StartChar: uni00B2
Encoding: 178 178 116
Width: 831
Flags: W
LayerCount: 2
UndoRedoHistory
Layer: 1
Undoes
EndUndoes
Redoes
EndRedoes
EndUndoRedoHistory
Fore
SplineSet
439 1621 m 0,0,1
 403 1621 403 1621 384 1583.5 c 128,-1,2
 365 1546 365 1546 365 1448 c 2,3,-1
 365 1294 l 1,4,-1
 183 1294 l 1,5,-1
 182 1368 l 1,6,7
 182 1537 182 1537 204 1609 c 0,8,9
 226 1680 226 1680 255 1712 c 0,10,11
 317 1780 317 1780 447 1780 c 0,12,13
 532 1780 532 1780 588 1734 c 0,14,15
 691 1649 691 1649 691 1450 c 0,16,17
 691 1282 691 1282 604 1128 c 0,18,19
 566 1060 566 1060 526 998 c 0,20,21
 419 835 419 835 387 716 c 1,22,-1
 678 716 l 1,23,-1
 678 565 l 1,24,-1
 185 565 l 1,25,-1
 185 627 l 2,26,27
 185 741 185 741 282.5 936.5 c 128,-1,28
 380 1132 380 1132 456 1226 c 1,29,30
 511 1314 511 1314 511 1467.5 c 128,-1,31
 511 1621 511 1621 439 1621 c 0,0,1
EndSplineSet
EndChar

StartChar: uni00B3
Encoding: 179 179 117
Width: 856
Flags: W
LayerCount: 2
UndoRedoHistory
Layer: 1
Undoes
EndUndoes
Redoes
EndRedoes
EndUndoRedoHistory
Fore
SplineSet
352 1469 m 1,0,-1
 351 1441 l 1,1,-1
 164 1441 l 1,2,-1
 163 1474 l 1,3,4
 164 1632 164 1632 227 1705 c 128,-1,5
 290 1778 290 1778 433 1778 c 128,-1,6
 576 1778 576 1778 644 1702.5 c 128,-1,7
 712 1627 712 1627 712 1474 c 0,8,9
 712 1273 712 1273 592 1233 c 1,10,11
 662 1203 662 1203 688.5 1133 c 128,-1,12
 715 1063 715 1063 715 945 c 0,13,14
 715 773 715 773 645.5 687.5 c 128,-1,15
 576 602 576 602 428.5 602 c 128,-1,16
 281 602 281 602 219.5 681 c 128,-1,17
 158 760 158 760 158 927 c 2,18,-1
 158 1005 l 1,19,-1
 344 1005 l 1,20,-1
 344 926 l 2,21,22
 344 830 344 830 361 793 c 128,-1,23
 378 756 378 756 432 756 c 128,-1,24
 486 756 486 756 502.5 799 c 128,-1,25
 519 842 519 842 519 949.5 c 128,-1,26
 519 1057 519 1057 493 1107 c 128,-1,27
 467 1157 467 1157 395 1157 c 2,28,-1
 366 1157 l 1,29,-1
 366 1297 l 1,30,-1
 392 1297 l 1,31,32
 463 1300 463 1300 491 1337 c 128,-1,33
 519 1374 519 1374 519 1466 c 128,-1,34
 519 1558 519 1558 497.5 1591.5 c 128,-1,35
 476 1625 476 1625 431.5 1625 c 128,-1,36
 387 1625 387 1625 369.5 1590 c 128,-1,37
 352 1555 352 1555 352 1469 c 1,0,-1
EndSplineSet
EndChar

StartChar: acute
Encoding: 180 180 118
Width: 650
Flags: W
LayerCount: 2
UndoRedoHistory
Layer: 1
Undoes
EndUndoes
Redoes
EndRedoes
EndUndoRedoHistory
Fore
SplineSet
148 1716 m 1,0,-1
 238 2158 l 1,1,-1
 496 2158 l 1,2,-1
 304 1716 l 1,3,-1
 148 1716 l 1,0,-1
EndSplineSet
EndChar

StartChar: paragraph
Encoding: 182 182 119
Width: 1119
Flags: W
LayerCount: 2
UndoRedoHistory
Layer: 1
Undoes
EndUndoes
Redoes
EndRedoes
EndUndoRedoHistory
Fore
SplineSet
641 1761 m 2,0,-1
 973 1761 l 1,1,-1
 973 0 l 1,2,-1
 779 0 l 1,3,-1
 779 1527 l 1,4,-1
 636 1527 l 1,5,-1
 636 0 l 1,6,-1
 442 0 l 1,7,-1
 442 1087 l 1,8,9
 272 1106 272 1106 190.5 1190 c 128,-1,10
 109 1274 109 1274 109 1437 c 0,11,12
 109 1664 109 1664 304 1724 c 0,13,14
 424 1761 424 1761 641 1761 c 2,0,-1
EndSplineSet
EndChar

StartChar: periodcentered
Encoding: 183 183 120
Width: 480
Flags: W
LayerCount: 2
UndoRedoHistory
Layer: 1
Undoes
EndUndoes
Redoes
EndRedoes
EndUndoRedoHistory
Fore
SplineSet
132 995 m 1,0,-1
 363 995 l 1,1,-1
 363 750 l 1,2,-1
 132 750 l 1,3,-1
 132 995 l 1,0,-1
EndSplineSet
EndChar

StartChar: cedilla
Encoding: 184 184 121
Width: 1015
Flags: W
LayerCount: 2
UndoRedoHistory
Layer: 1
Undoes
EndUndoes
Redoes
EndRedoes
EndUndoRedoHistory
Fore
SplineSet
428 0 m 1,0,-1
 510 0 l 1,1,-1
 525 -141 l 1,2,3
 636 -179 636 -179 694.5 -246.5 c 128,-1,4
 753 -314 753 -314 753 -405 c 0,5,6
 753 -496 753 -496 675.5 -567 c 128,-1,7
 598 -638 598 -638 466 -638 c 0,8,9
 388 -638 388 -638 317 -612 c 1,10,-1
 317 -501 l 1,11,12
 447 -501 447 -501 497.5 -462.5 c 128,-1,13
 548 -424 548 -424 548 -360 c 0,14,15
 548 -296 548 -296 501.5 -253.5 c 128,-1,16
 455 -211 455 -211 388 -196 c 1,17,-1
 428 0 l 1,0,-1
EndSplineSet
EndChar

StartChar: uni00B9
Encoding: 185 185 122
Width: 628
Flags: W
LayerCount: 2
UndoRedoHistory
Layer: 1
Undoes
EndUndoes
Redoes
EndRedoes
EndUndoRedoHistory
Fore
SplineSet
295 1759 m 1,0,-1
 444 1759 l 1,1,-1
 444 564 l 1,2,-1
 238 564 l 1,3,-1
 238 1528 l 1,4,5
 172 1479 172 1479 76 1479 c 1,6,-1
 76 1609 l 1,7,8
 141 1614 141 1614 211 1657 c 128,-1,9
 281 1700 281 1700 295 1759 c 1,0,-1
EndSplineSet
EndChar

StartChar: ordmasculine
Encoding: 186 186 123
Width: 908
Flags: W
LayerCount: 2
UndoRedoHistory
Layer: 1
Undoes
EndUndoes
Redoes
EndRedoes
EndUndoRedoHistory
Fore
SplineSet
466 551 m 0,0,1
 551 551 551 551 551 725 c 2,2,-1
 551 1260 l 2,3,4
 551 1347 551 1347 532 1391 c 128,-1,5
 513 1435 513 1435 463 1435 c 128,-1,6
 413 1435 413 1435 394 1391.5 c 128,-1,7
 375 1348 375 1348 375 1260 c 2,8,-1
 375 725 l 2,9,10
 375 551 375 551 466 551 c 0,0,1
159 1222 m 2,11,12
 159 1606 159 1606 464 1606 c 0,13,14
 637 1606 637 1606 704 1498 c 0,15,16
 766 1398 766 1398 766 1222 c 2,17,-1
 766 776 l 2,18,19
 766 479 766 479 608 408 c 0,20,21
 548 381 548 381 464 381 c 0,22,23
 298 381 298 381 228.5 480.5 c 128,-1,24
 159 580 159 580 159 776 c 2,25,-1
 159 1222 l 2,11,12
EndSplineSet
EndChar

StartChar: guillemotright
Encoding: 187 187 124
Width: 1304
Flags: W
LayerCount: 2
UndoRedoHistory
Layer: 1
Undoes
EndUndoes
Redoes
EndRedoes
EndUndoRedoHistory
Fore
SplineSet
151 890 m 1,0,-1
 151 1158 l 1,1,-1
 641 887 l 1,2,-1
 641 612 l 1,3,-1
 151 327 l 1,4,-1
 151 599 l 1,5,-1
 463 749 l 1,6,-1
 151 890 l 1,0,-1
704 890 m 1,7,-1
 704 1158 l 1,8,-1
 1195 887 l 1,9,-1
 1195 612 l 1,10,-1
 704 327 l 1,11,-1
 704 599 l 1,12,-1
 1016 749 l 1,13,-1
 704 890 l 1,7,-1
EndSplineSet
EndChar

StartChar: onequarter
Encoding: 188 188 125
Width: 1535
Flags: W
LayerCount: 2
UndoRedoHistory
Layer: 1
Undoes
EndUndoes
Redoes
EndRedoes
EndUndoRedoHistory
Fore
SplineSet
1191 324 m 1,0,-1
 1191 864 l 1,1,-1
 1050 324 l 1,2,-1
 1191 324 l 1,0,-1
1127 1065 m 1,3,-1
 1350 1065 l 1,4,-1
 1350 324 l 1,5,-1
 1419 324 l 1,6,-1
 1419 192 l 1,7,-1
 1350 192 l 1,8,-1
 1350 0 l 1,9,-1
 1191 0 l 1,10,-1
 1191 192 l 1,11,-1
 902 192 l 1,12,-1
 902 306 l 1,13,-1
 1127 1065 l 1,3,-1
280 1680 m 1,14,-1
 412 1680 l 1,15,-1
 412 551 l 1,16,-1
 232 551 l 1,17,-1
 232 1466 l 1,18,19
 176 1419 176 1419 90 1419 c 1,20,-1
 90 1538 l 1,21,22
 147 1543 147 1543 206.5 1583.5 c 128,-1,23
 266 1624 266 1624 280 1680 c 1,14,-1
923 1767 m 1,24,-1
 1112 1767 l 1,25,-1
 612 0 l 1,26,-1
 423 0 l 1,27,-1
 923 1767 l 1,24,-1
EndSplineSet
EndChar

StartChar: onehalf
Encoding: 189 189 126
Width: 1620
Flags: W
LayerCount: 2
UndoRedoHistory
Layer: 1
Undoes
EndUndoes
Redoes
EndRedoes
EndUndoRedoHistory
Fore
SplineSet
923 1767 m 1,0,-1
 1112 1767 l 1,1,-1
 612 0 l 1,2,-1
 423 0 l 1,3,-1
 923 1767 l 1,0,-1
280 1680 m 1,4,-1
 412 1680 l 1,5,-1
 412 551 l 1,6,-1
 232 551 l 1,7,-1
 232 1466 l 1,8,9
 176 1419 176 1419 90 1419 c 1,10,-1
 90 1538 l 1,11,12
 147 1543 147 1543 206.5 1583.5 c 128,-1,13
 266 1624 266 1624 280 1680 c 1,4,-1
1296 1002 m 0,14,15
 1225 1002 1225 1002 1225 834 c 2,16,-1
 1225 689 l 1,17,-1
 1055 689 l 1,18,-1
 1054 759 l 1,19,20
 1054 919 1054 919 1074.5 986.5 c 0,21,22
 1094 1054 1094 1054 1122 1084 c 0,23,24
 1181 1148 1181 1148 1301 1148 c 128,-1,25
 1421 1148 1421 1148 1477 1061 c 128,-1,26
 1533 974 1533 974 1533 862.5 c 128,-1,27
 1533 751 1533 751 1510 672.5 c 128,-1,28
 1487 594 1487 594 1450.5 530.5 c 128,-1,29
 1414 467 1414 467 1376 408 c 0,30,31
 1277 256 1277 256 1245 138 c 1,32,-1
 1521 138 l 1,33,-1
 1521 0 l 1,34,-1
 1057 0 l 1,35,-1
 1057 58 l 2,36,37
 1057 163 1057 163 1151 352 c 128,-1,38
 1245 541 1245 541 1313 624 c 1,39,40
 1365 706 1365 706 1365 819 c 128,-1,41
 1365 932 1365 932 1347.5 967 c 128,-1,42
 1330 1002 1330 1002 1296 1002 c 0,14,15
EndSplineSet
EndChar

StartChar: threequarters
Encoding: 190 190 127
Width: 1555
Flags: W
LayerCount: 2
UndoRedoHistory
Layer: 1
Undoes
EndUndoes
Redoes
EndRedoes
EndUndoRedoHistory
Fore
SplineSet
1211 324 m 1,0,-1
 1211 864 l 1,1,-1
 1070 324 l 1,2,-1
 1211 324 l 1,0,-1
1147 1065 m 1,3,-1
 1370 1065 l 1,4,-1
 1370 324 l 1,5,-1
 1439 324 l 1,6,-1
 1439 192 l 1,7,-1
 1370 192 l 1,8,-1
 1370 0 l 1,9,-1
 1211 0 l 1,10,-1
 1211 192 l 1,11,-1
 922 192 l 1,12,-1
 922 306 l 1,13,-1
 1147 1065 l 1,3,-1
974 1767 m 1,14,-1
 1163 1767 l 1,15,-1
 663 0 l 1,16,-1
 474 0 l 1,17,-1
 974 1767 l 1,14,-1
250 1404 m 1,18,-1
 249 1378 l 1,19,-1
 88 1378 l 1,20,-1
 88 1408 l 2,21,22
 88 1554 88 1554 144 1622.5 c 128,-1,23
 200 1691 200 1691 323 1691 c 0,24,25
 561 1691 561 1691 561 1408 c 0,26,27
 561 1221 561 1221 456 1183 c 1,28,29
 516 1155 516 1155 540 1089 c 128,-1,30
 564 1023 564 1023 564 889.5 c 128,-1,31
 564 756 564 756 504.5 677 c 128,-1,32
 445 598 445 598 319 598 c 128,-1,33
 193 598 193 598 138 672 c 128,-1,34
 83 746 83 746 83 899 c 2,35,-1
 83 969 l 1,36,-1
 243 969 l 1,37,-1
 243 899 l 2,38,39
 243 807 243 807 258 772 c 128,-1,40
 273 737 273 737 321.5 737 c 128,-1,41
 370 737 370 737 385.5 777.5 c 128,-1,42
 401 818 401 818 401 919.5 c 128,-1,43
 401 1021 401 1021 377.5 1068 c 128,-1,44
 354 1115 354 1115 290 1115 c 0,45,46
 268 1115 268 1115 265 1114 c 1,47,-1
 265 1250 l 1,48,-1
 286 1250 l 1,49,50
 328 1251 328 1251 352 1263 c 0,51,52
 402 1288 402 1288 401.5 1388.5 c 128,-1,53
 401 1489 401 1489 381 1521 c 128,-1,54
 361 1553 361 1553 321.5 1553 c 128,-1,55
 282 1553 282 1553 266 1519.5 c 128,-1,56
 250 1486 250 1486 250 1404 c 1,18,-1
EndSplineSet
EndChar

StartChar: AE
Encoding: 198 198 135
Width: 1246
Flags: W
LayerCount: 2
UndoRedoHistory
Layer: 1
Undoes
EndUndoes
Redoes
EndRedoes
EndUndoRedoHistory
Fore
SplineSet
606 512 m 1,0,-1
 606 1530 l 1,1,-1
 571 1529 l 1,2,-1
 396 512 l 1,3,-1
 606 512 l 1,0,-1
366 1761 m 1,4,-1
 1152 1761 l 1,5,-1
 1152 1529 l 1,6,-1
 874 1529 l 1,7,-1
 874 1017 l 1,8,-1
 1136 1017 l 1,9,-1
 1136 785 l 1,10,-1
 874 785 l 1,11,-1
 874 231 l 1,12,-1
 1164 231 l 1,13,-1
 1164 0 l 1,14,-1
 606 0 l 1,15,-1
 606 314 l 1,16,-1
 366 314 l 1,17,-1
 312 0 l 1,18,-1
 52 0 l 1,19,-1
 366 1761 l 1,4,-1
EndSplineSet
EndChar

StartChar: multiply
Encoding: 215 215 152
Width: 710
Flags: W
LayerCount: 2
UndoRedoHistory
Layer: 1
Undoes
EndUndoes
Redoes
EndRedoes
EndUndoRedoHistory
Fore
SplineSet
502 936 m 1,0,-1
 666 772 l 1,1,-1
 519 625 l 1,2,-1
 666 478 l 1,3,-1
 502 314 l 1,4,-1
 355 461 l 1,5,-1
 208 314 l 1,6,-1
 44 478 l 1,7,-1
 191 625 l 1,8,-1
 44 772 l 1,9,-1
 208 936 l 1,10,-1
 355 789 l 1,11,-1
 502 936 l 1,0,-1
EndSplineSet
EndChar

StartChar: Oslash
Encoding: 216 216 153
Width: 900
Flags: W
LayerCount: 2
UndoRedoHistory
Layer: 1
Undoes
EndUndoes
Redoes
EndRedoes
EndUndoRedoHistory
Fore
SplineSet
110 1297 m 2,0,1
 110 1781 110 1781 505 1781 c 0,2,3
 663 1781 663 1781 752 1707 c 1,4,-1
 822 1906 l 1,5,-1
 929 1870 l 1,6,-1
 833 1599 l 1,7,8
 888 1483 888 1483 888 1297 c 2,9,-1
 888 492 l 2,10,11
 888 234 888 234 796 107 c 128,-1,12
 704 -20 704 -20 502 -20 c 0,13,14
 366 -20 366 -20 279 37 c 1,15,-1
 193 -206 l 1,16,-1
 94 -166 l 1,17,-1
 195 121 l 1,18,19
 110 248 110 248 110 492 c 2,20,-1
 110 1297 l 2,0,1
388 343 m 1,21,22
 394 299 394 299 404 273 c 0,23,24
 428 212 428 212 500 212 c 0,25,26
 573 212 573 212 596 274.5 c 128,-1,27
 619 337 619 337 619 489 c 2,28,-1
 619 996 l 1,29,-1
 388 343 l 1,21,22
619 1328 m 1,30,31
 617 1439 617 1439 595 1494 c 0,32,33
 572 1549 572 1549 504 1549 c 0,34,35
 436 1549 436 1549 408 1491.5 c 128,-1,36
 380 1434 380 1434 380 1310 c 2,37,-1
 380 648 l 1,38,-1
 619 1328 l 1,30,31
EndSplineSet
EndChar

StartChar: Thorn
Encoding: 222 222 159
Width: 982
Flags: W
LayerCount: 2
UndoRedoHistory
Layer: 1
Undoes
EndUndoes
Redoes
EndRedoes
EndUndoRedoHistory
Fore
SplineSet
642 979 m 2,0,1
 642 1143 642 1143 615.5 1216.5 c 128,-1,2
 589 1290 589 1290 508 1290 c 2,3,-1
 414 1290 l 1,4,-1
 414 630 l 1,5,-1
 506 630 l 2,6,7
 590 630 590 630 616 700 c 128,-1,8
 642 770 642 770 642 955 c 2,9,-1
 642 979 l 2,0,1
146 1761 m 1,10,-1
 414 1761 l 1,11,-1
 414 1497 l 1,12,-1
 550 1497 l 2,13,14
 756 1497 756 1497 834 1361 c 0,15,16
 906 1236 906 1236 910 981 c 1,17,-1
 910 953 l 2,18,19
 910 538 910 538 730 444 c 0,20,21
 661 408 661 408 559 408 c 2,22,-1
 414 408 l 1,23,-1
 414 0 l 1,24,-1
 146 0 l 1,25,-1
 146 1761 l 1,10,-1
EndSplineSet
EndChar

StartChar: germandbls
Encoding: 223 223 160
Width: 1032
Flags: W
LayerCount: 2
UndoRedoHistory
Layer: 1
Undoes
EndUndoes
Redoes
EndRedoes
EndUndoRedoHistory
Fore
SplineSet
135 1417 m 2,0,1
 135 1605 135 1605 220 1693 c 128,-1,2
 305 1781 305 1781 509 1781 c 128,-1,3
 713 1781 713 1781 804.5 1698.5 c 128,-1,4
 896 1616 896 1616 896 1417 c 2,5,-1
 896 1220 l 2,6,7
 896 1102 896 1102 860 1037.5 c 128,-1,8
 824 973 824 973 737 945 c 1,9,10
 860 916 860 916 908 823.5 c 128,-1,11
 956 731 956 731 956 553 c 2,12,-1
 956 476 l 2,13,14
 956 288 956 288 923.5 203.5 c 0,15,16
 890 119 890 119 850 81 c 0,17,18
 764 0 764 0 593 0 c 2,19,-1
 489 0 l 1,20,-1
 489 212 l 1,21,22
 611 212 611 212 653 248.5 c 128,-1,23
 695 285 695 285 695 395 c 2,24,-1
 695 656 l 2,25,26
 695 756 695 756 652.5 794 c 128,-1,27
 610 832 610 832 498 832 c 1,28,-1
 498 1032 l 1,29,30
 575 1032 575 1032 605 1064.5 c 128,-1,31
 635 1097 635 1097 635 1170 c 2,32,-1
 635 1438 l 2,33,34
 635 1507 635 1507 608.5 1534.5 c 128,-1,35
 582 1562 582 1562 519.5 1562 c 128,-1,36
 457 1562 457 1562 428.5 1533.5 c 128,-1,37
 400 1505 400 1505 400 1438 c 2,38,-1
 400 0 l 1,39,-1
 135 0 l 1,40,-1
 135 1417 l 2,0,1
EndSplineSet
EndChar

StartChar: ae
Encoding: 230 230 167
Width: 1443
Flags: W
LayerCount: 2
UndoRedoHistory
Layer: 1
Undoes
EndUndoes
Redoes
EndRedoes
EndUndoRedoHistory
Fore
SplineSet
1074 1079 m 2,0,1
 1074 1202 1074 1202 1054.5 1255.5 c 128,-1,2
 1035 1309 1035 1309 975 1309 c 0,3,4
 922 1309 922 1309 903.5 1284 c 128,-1,5
 885 1259 885 1259 877.5 1239.5 c 128,-1,6
 870 1220 870 1220 866 1188 c 0,7,8
 860 1140 860 1140 860 1057 c 2,9,-1
 860 906 l 1,10,-1
 1074 906 l 1,11,-1
 1074 1079 l 2,0,1
591 306 m 1,12,-1
 591 803 l 1,13,14
 523 773 523 773 487.5 753 c 0,15,16
 452 734 452 734 424 704 c 0,17,18
 377 654 377 654 377 544 c 2,19,-1
 377 393 l 2,20,21
 377 288 377 288 399 242.5 c 128,-1,22
 421 197 421 197 470.5 197 c 128,-1,23
 520 197 520 197 551.5 230.5 c 128,-1,24
 583 264 583 264 591 306 c 1,12,-1
1075 464 m 1,25,-1
 1074 548 l 1,26,-1
 1074 569 l 1,27,-1
 1337 569 l 1,28,-1
 1337 499 l 2,29,30
 1337 296 1337 296 1307.5 205 c 128,-1,31
 1278 114 1278 114 1240 72 c 0,32,33
 1157 -18 1157 -18 985 -18 c 0,34,35
 888 -18 888 -18 819.5 21 c 128,-1,36
 751 60 751 60 718 128 c 1,37,38
 680 69 680 69 603.5 27 c 128,-1,39
 527 -15 527 -15 438 -15 c 0,40,41
 276 -15 276 -15 191.5 95 c 128,-1,42
 107 205 107 205 107 406 c 2,43,-1
 107 506 l 1,44,45
 109 646 109 646 181 756 c 0,46,47
 206 794 206 794 276 834 c 128,-1,48
 346 874 346 874 385.5 890.5 c 128,-1,49
 425 907 425 907 498 934 c 128,-1,50
 571 961 571 961 592 969 c 1,51,52
 592 1003 592 1003 592 1026.5 c 128,-1,53
 592 1050 592 1050 592 1086.5 c 128,-1,54
 592 1123 592 1123 588.5 1161 c 128,-1,55
 585 1199 585 1199 575 1235 c 0,56,57
 556 1304 556 1304 494 1304 c 128,-1,58
 432 1304 432 1304 410.5 1260.5 c 128,-1,59
 389 1217 389 1217 389 1109 c 2,60,-1
 389 1036 l 1,61,-1
 128 1036 l 1,62,63
 127 1042 127 1042 127 1115.5 c 128,-1,64
 127 1189 127 1189 144.5 1266 c 0,65,66
 162 1344 162 1344 204 1402 c 0,67,68
 287 1518 287 1518 501 1518 c 0,69,70
 663 1518 663 1518 730 1409 c 1,71,72
 807 1518 807 1518 977 1518 c 0,73,74
 1182 1518 1182 1518 1264 1392 c 0,75,76
 1340 1275 1340 1275 1339 1053 c 0,77,78
 1339 752 1339 752 1337 726 c 1,79,-1
 860 726 l 1,80,-1
 860 472 l 2,81,82
 860 325 860 325 883 260.5 c 128,-1,83
 906 196 906 196 971 196 c 0,84,85
 1023 196 1023 196 1043 235 c 0,86,87
 1075 296 1075 296 1075 464 c 1,25,-1
EndSplineSet
EndChar

StartChar: eth
Encoding: 240 240 177
Width: 1013
Flags: W
LayerCount: 2
UndoRedoHistory
Layer: 1
Undoes
EndUndoes
Redoes
EndRedoes
EndUndoRedoHistory
Fore
SplineSet
615 776 m 1,0,1
 609 819 609 819 573.5 846 c 128,-1,2
 538 873 538 873 476 873 c 128,-1,3
 414 873 414 873 388.5 815 c 128,-1,4
 363 757 363 757 363 613 c 2,5,-1
 363 434 l 2,6,7
 363 307 363 307 390 259.5 c 128,-1,8
 417 212 417 212 489 212 c 128,-1,9
 561 212 561 212 588 267.5 c 128,-1,10
 615 323 615 323 615 456 c 2,11,-1
 615 776 l 1,0,1
430 1098 m 0,12,13
 546 1098 546 1098 605 1042 c 1,14,15
 605 1093 605 1093 589.5 1212.5 c 128,-1,16
 574 1332 574 1332 551 1378 c 1,17,-1
 342 1262 l 1,18,-1
 277 1399 l 1,19,-1
 466 1505 l 1,20,21
 395 1586 395 1586 269 1630 c 1,22,-1
 406 1781 l 1,23,24
 576 1755 576 1755 687 1625 c 1,25,-1
 886 1735 l 1,26,-1
 952 1598 l 1,27,-1
 773 1498 l 1,28,29
 818 1418 818 1418 850.5 1208 c 128,-1,30
 883 998 883 998 883 857 c 2,31,-1
 883 527 l 2,32,33
 883 180 883 180 770 70 c 0,34,35
 676 -21 676 -21 491 -21 c 0,36,37
 267 -20 267 -20 179 108 c 0,38,39
 95 230 95 230 95 483 c 2,40,-1
 95 586 l 2,41,42
 95 853 95 853 175 975.5 c 128,-1,43
 255 1098 255 1098 430 1098 c 0,12,13
EndSplineSet
EndChar

StartChar: divide
Encoding: 247 247 184
Width: 804
Flags: W
LayerCount: 2
UndoRedoHistory
Layer: 1
Undoes
EndUndoes
Redoes
EndRedoes
EndUndoRedoHistory
Fore
SplineSet
253 1274 m 1,0,-1
 551 1274 l 1,1,-1
 551 976 l 1,2,-1
 253 976 l 1,3,-1
 253 1274 l 1,0,-1
253 535 m 1,4,-1
 551 535 l 1,5,-1
 551 237 l 1,6,-1
 253 237 l 1,7,-1
 253 535 l 1,4,-1
94 870 m 1,8,-1
 710 870 l 1,9,-1
 710 638 l 1,10,-1
 94 638 l 1,11,-1
 94 870 l 1,8,-1
EndSplineSet
EndChar

StartChar: oslash
Encoding: 248 248 185
Width: 879
Flags: W
LayerCount: 2
UndoRedoHistory
Layer: 1
Undoes
EndUndoes
Redoes
EndRedoes
EndUndoRedoHistory
Fore
SplineSet
240 55 m 1,0,1
 110 165 110 165 110 476 c 2,2,-1
 110 1037 l 2,3,4
 110 1518 110 1518 486 1518 c 0,5,6
 575 1518 575 1518 642 1491 c 1,7,-1
 693 1672 l 1,8,-1
 794 1644 l 1,9,-1
 735 1433 l 1,10,11
 860 1316 860 1316 860 1037 c 2,12,-1
 860 476 l 2,13,14
 860 101 860 101 667 15 c 0,15,16
 593 -18 593 -18 496 -18 c 128,-1,17
 399 -18 399 -18 334 4 c 1,18,-1
 284 -173 l 1,19,-1
 184 -145 l 1,20,-1
 240 55 l 1,0,1
402 247 m 1,21,22
 426 196 426 196 487 196 c 128,-1,23
 548 196 548 196 570.5 250.5 c 128,-1,24
 593 305 593 305 593 413 c 2,25,-1
 593 928 l 1,26,-1
 402 247 l 1,21,22
573 1242 m 1,27,28
 550 1304 550 1304 486.5 1304 c 128,-1,29
 423 1304 423 1304 400 1249.5 c 128,-1,30
 377 1195 377 1195 377 1084 c 2,31,-1
 377 544 l 1,32,-1
 573 1242 l 1,27,28
EndSplineSet
EndChar

StartChar: thorn
Encoding: 254 254 191
Width: 1000
Flags: W
LayerCount: 2
UndoRedoHistory
Layer: 1
Undoes
EndUndoes
Redoes
EndRedoes
EndUndoRedoHistory
Fore
SplineSet
620 1069 m 2,0,1
 620 1191 620 1191 608.5 1222 c 0,2,3
 598 1254 598 1254 586 1270 c 0,4,5
 564 1302 564 1302 520.5 1301.5 c 0,6,7
 476 1300 476 1300 452 1282 c 0,8,9
 398 1242 398 1242 399 1070 c 2,10,-1
 399 440 l 2,11,12
 399 252 399 252 456 214 c 0,13,14
 479 198 479 198 515 198 c 0,15,16
 578 198 578 198 599 258 c 128,-1,17
 620 318 620 318 620 451 c 2,18,-1
 620 1069 l 2,0,1
133 1775 m 1,19,-1
 399 1775 l 1,20,-1
 399 1365 l 1,21,22
 427 1436 427 1436 486.5 1475.5 c 128,-1,23
 546 1515 546 1515 612.5 1515 c 128,-1,24
 679 1515 679 1515 728.5 1491 c 128,-1,25
 778 1467 778 1467 807.5 1427.5 c 128,-1,26
 837 1388 837 1388 855 1326 c 0,27,28
 885 1223 885 1223 885 1048 c 2,29,-1
 885 501 l 2,30,31
 886 190 886 190 806 80 c 0,32,33
 735 -18 735 -18 586 -18 c 0,34,35
 528 -18 528 -18 479 13 c 128,-1,36
 430 44 430 44 399 91 c 1,37,-1
 399 -285 l 1,38,-1
 133 -285 l 1,39,-1
 133 1775 l 1,19,-1
EndSplineSet
EndChar

StartChar: Hbar
Encoding: 294 294 231
Width: 1040
Flags: W
LayerCount: 2
UndoRedoHistory
Layer: 1
Undoes
EndUndoes
Redoes
EndRedoes
EndUndoRedoHistory
Fore
SplineSet
640 1760 m 1,0,-1
 908 1760 l 1,1,-1
 908 1509 l 1,2,-1
 1005 1509 l 1,3,-1
 1005 1378 l 1,4,-1
 908 1378 l 1,5,-1
 908 0 l 1,6,-1
 640 0 l 1,7,-1
 640 818 l 1,8,-1
 400 818 l 1,9,-1
 400 0 l 1,10,-1
 132 0 l 1,11,-1
 132 1378 l 1,12,-1
 55 1378 l 1,13,-1
 55 1509 l 1,14,-1
 132 1509 l 1,15,-1
 132 1760 l 1,16,-1
 400 1760 l 1,17,-1
 400 1509 l 1,18,-1
 640 1509 l 1,19,-1
 640 1760 l 1,0,-1
400 1378 m 1,20,-1
 400 1048 l 1,21,-1
 640 1048 l 1,22,-1
 640 1378 l 1,23,-1
 400 1378 l 1,20,-1
EndSplineSet
EndChar

StartChar: hbar
Encoding: 295 295 232
Width: 1016
Flags: W
LayerCount: 2
UndoRedoHistory
Layer: 1
Undoes
EndUndoes
Redoes
EndRedoes
EndUndoRedoHistory
Fore
SplineSet
135 1775 m 1,0,-1
 400 1775 l 1,1,-1
 400 1702 l 1,2,-1
 663 1702 l 1,3,-1
 663 1593 l 1,4,-1
 400 1593 l 1,5,-1
 400 1328 l 1,6,7
 421 1409 421 1409 483 1463.5 c 128,-1,8
 545 1518 545 1518 633 1518 c 0,9,10
 763 1518 763 1518 830 1431.5 c 128,-1,11
 897 1345 897 1345 897 1181 c 2,12,-1
 897 0 l 1,13,-1
 633 0 l 1,14,-1
 633 1156 l 2,15,16
 633 1301 633 1301 527 1301 c 0,17,18
 466 1301 466 1301 433 1251 c 128,-1,19
 400 1201 400 1201 400 1115 c 2,20,-1
 400 0 l 1,21,-1
 135 0 l 1,22,-1
 135 1593 l 1,23,-1
 0 1593 l 1,24,-1
 0 1702 l 1,25,-1
 135 1702 l 1,26,-1
 135 1775 l 1,0,-1
EndSplineSet
EndChar

StartChar: dotlessi
Encoding: 305 305 242
Width: 537
Flags: W
LayerCount: 2
UndoRedoHistory
Layer: 1
Undoes
EndUndoes
Redoes
EndRedoes
EndUndoRedoHistory
Fore
SplineSet
136 1500 m 1,0,-1
 401 1500 l 1,1,-1
 401 0 l 1,2,-1
 136 0 l 1,3,-1
 136 1500 l 1,0,-1
EndSplineSet
EndChar

StartChar: kgreenlandic
Encoding: 312 312 249
Width: 937
Flags: W
LayerCount: 2
UndoRedoHistory
Layer: 1
Undoes
EndUndoes
Redoes
EndRedoes
EndUndoRedoHistory
Fore
SplineSet
132 1499 m 1,0,-1
 397 1499 l 1,1,-1
 397 818 l 1,2,-1
 653 1500 l 1,3,-1
 922 1500 l 1,4,-1
 633 762 l 1,5,-1
 939 0 l 1,6,-1
 669 0 l 1,7,-1
 397 713 l 1,8,-1
 397 0 l 1,9,-1
 132 0 l 1,10,-1
 132 1499 l 1,0,-1
EndSplineSet
EndChar

StartChar: Lslash
Encoding: 321 321 258
Width: 794
Flags: W
LayerCount: 2
UndoRedoHistory
Layer: 1
Undoes
EndUndoes
Redoes
EndRedoes
EndUndoRedoHistory
Fore
SplineSet
132 1760 m 1,0,-1
 400 1760 l 1,1,-1
 400 1065 l 1,2,-1
 615 1145 l 1,3,-1
 615 961 l 1,4,-1
 400 881 l 1,5,-1
 400 228 l 1,6,-1
 739 228 l 1,7,-1
 739 0 l 1,8,-1
 132 0 l 1,9,-1
 132 781 l 1,10,-1
 -1 732 l 1,11,-1
 -1 916 l 1,12,-1
 132 965 l 1,13,-1
 132 1760 l 1,0,-1
EndSplineSet
EndChar

StartChar: lslash
Encoding: 322 322 259
Width: 648
Flags: W
LayerCount: 2
UndoRedoHistory
Layer: 1
Undoes
EndUndoes
Redoes
EndRedoes
EndUndoRedoHistory
Fore
SplineSet
173 1775 m 1,0,-1
 437 1775 l 1,1,-1
 437 1087 l 1,2,-1
 591 1153 l 1,3,-1
 591 960 l 1,4,-1
 437 894 l 1,5,-1
 437 0 l 1,6,-1
 173 0 l 1,7,-1
 173 781 l 1,8,-1
 49 728 l 1,9,-1
 49 921 l 1,10,-1
 173 974 l 1,11,-1
 173 1775 l 1,0,-1
EndSplineSet
EndChar

StartChar: OE
Encoding: 338 338 272
Width: 1235
Flags: W
LayerCount: 2
UndoRedoHistory
Layer: 1
Undoes
EndUndoes
Redoes
EndRedoes
EndUndoRedoHistory
Fore
SplineSet
608 233 m 1,0,-1
 608 1524 l 1,1,-1
 500 1524 l 2,2,3
 430 1524 430 1524 404 1474.5 c 128,-1,4
 378 1425 378 1425 378 1305 c 2,5,-1
 378 491 l 2,6,7
 378 339 378 339 400 286.5 c 128,-1,8
 422 234 422 234 497 233 c 1,9,-1
 608 233 l 1,0,-1
500 1761 m 2,10,-1
 1141 1761 l 1,11,-1
 1141 1529 l 1,12,-1
 876 1529 l 1,13,-1
 876 1017 l 1,14,-1
 1125 1017 l 1,15,-1
 1125 785 l 1,16,-1
 876 785 l 1,17,-1
 876 231 l 1,18,-1
 1153 231 l 1,19,-1
 1153 0 l 1,20,-1
 497 0 l 2,21,22
 294 0 294 0 202 119.5 c 128,-1,23
 110 239 110 239 110 494 c 2,24,-1
 110 1295 l 2,25,26
 110 1529 110 1529 202 1645 c 128,-1,27
 294 1761 294 1761 500 1761 c 2,10,-1
EndSplineSet
EndChar

StartChar: oe
Encoding: 339 339 273
Width: 1451
Flags: W
LayerCount: 2
UndoRedoHistory
Layer: 1
Undoes
EndUndoes
Redoes
EndRedoes
EndUndoRedoHistory
Fore
SplineSet
868 1059 m 2,0,-1
 869 906 l 1,1,-1
 1082 906 l 1,2,-1
 1082 1079 l 2,3,4
 1082 1202 1082 1202 1062.5 1255.5 c 128,-1,5
 1043 1309 1043 1309 983 1309 c 0,6,7
 878 1309 878 1309 870 1138 c 0,8,9
 868 1106 868 1106 868 1059 c 2,0,-1
602 1084 m 2,10,11
 602 1193 602 1193 577.5 1248.5 c 128,-1,12
 553 1304 553 1304 490.5 1304 c 128,-1,13
 428 1304 428 1304 404 1249 c 128,-1,14
 380 1194 380 1194 380 1084 c 2,15,-1
 380 413 l 2,16,17
 380 306 380 306 404 251 c 128,-1,18
 428 196 428 196 491 196 c 128,-1,19
 554 196 554 196 578 251.5 c 128,-1,20
 602 307 602 307 602 413 c 2,21,-1
 602 1084 l 2,10,11
737 1410 m 1,22,23
 829 1518 829 1518 985 1518 c 0,24,25
 1190 1518 1190 1518 1272 1392 c 0,26,27
 1348 1275 1348 1275 1347 1053 c 0,28,29
 1347 752 1347 752 1345 726 c 1,30,-1
 868 726 l 1,31,-1
 868 437 l 2,32,33
 868 280 868 280 896 238 c 128,-1,34
 924 196 924 196 979 196 c 0,35,36
 1031 196 1031 196 1051 235 c 0,37,38
 1082 294 1082 294 1082 430 c 128,-1,39
 1082 566 1082 566 1081 569 c 1,40,-1
 1345 569 l 1,41,-1
 1345 499 l 2,42,43
 1345 293 1345 293 1312.5 202.5 c 128,-1,44
 1280 112 1280 112 1238 70 c 0,45,46
 1150 -18 1150 -18 987 -18 c 128,-1,47
 824 -18 824 -18 737 85 c 1,48,49
 642 -18 642 -18 492 -18 c 0,50,51
 284 -18 284 -18 197 107 c 128,-1,52
 110 232 110 232 110 478 c 2,53,-1
 110 1037 l 2,54,55
 110 1261 110 1261 202.5 1389.5 c 128,-1,56
 295 1518 295 1518 492 1518 c 0,57,58
 640 1518 640 1518 737 1410 c 1,22,23
EndSplineSet
EndChar

StartChar: florin
Encoding: 402 402 313
Width: 767
Flags: W
LayerCount: 2
UndoRedoHistory
Layer: 1
Undoes
EndUndoes
Redoes
EndRedoes
EndUndoRedoHistory
Fore
SplineSet
510 221 m 2,0,1
 510 -17 510 -17 290 -17 c 0,2,3
 193 -17 193 -17 115 8 c 1,4,-1
 115 186 l 1,5,6
 153 182 153 182 163 182 c 0,7,8
 222 182 222 182 238 207 c 128,-1,9
 254 232 254 232 254 305 c 2,10,-1
 254 1056 l 1,11,-1
 107 1056 l 1,12,-1
 107 1258 l 1,13,-1
 254 1258 l 1,14,-1
 254 1539 l 2,15,16
 254 1783 254 1783 469 1783 c 0,17,18
 569 1783 569 1783 652 1752 c 1,19,-1
 652 1574 l 1,20,21
 602 1587 602 1587 570 1587 c 0,22,23
 510 1587 510 1587 510 1484 c 2,24,-1
 510 1258 l 1,25,-1
 656 1258 l 1,26,-1
 656 1056 l 1,27,-1
 510 1056 l 1,28,-1
 510 221 l 2,0,1
EndSplineSet
EndChar

StartChar: uni0237
Encoding: 567 567 356
Width: 568
Flags: W
LayerCount: 2
UndoRedoHistory
Layer: 1
Undoes
EndUndoes
Redoes
EndRedoes
EndUndoRedoHistory
Fore
SplineSet
65 32 m 1,0,-1
 92 31 l 1,1,-1
 110 31 l 1,2,3
 173 35 173 35 173 98 c 2,4,-1
 173 1500 l 1,5,-1
 438 1500 l 1,6,-1
 438 108 l 2,7,8
 438 -29 438 -29 382 -96.5 c 128,-1,9
 326 -164 326 -164 225 -166 c 0,10,11
 207 -167 207 -167 147.5 -167 c 128,-1,12
 88 -167 88 -167 65 -150 c 1,13,-1
 65 32 l 1,0,-1
EndSplineSet
EndChar

StartChar: circumflex
Encoding: 710 710 357
Width: 970
Flags: W
LayerCount: 2
UndoRedoHistory
Layer: 1
Undoes
EndUndoes
Redoes
EndRedoes
EndUndoRedoHistory
Fore
SplineSet
334 1945 m 1,0,-1
 636 1945 l 1,1,-1
 824 1608 l 1,2,-1
 571 1608 l 1,3,-1
 485 1844 l 1,4,-1
 399 1608 l 1,5,-1
 145 1608 l 1,6,-1
 334 1945 l 1,0,-1
EndSplineSet
EndChar

StartChar: caron
Encoding: 711 711 358
Width: 970
Flags: W
LayerCount: 2
UndoRedoHistory
Layer: 1
Undoes
EndUndoes
Redoes
EndRedoes
EndUndoRedoHistory
Fore
SplineSet
571 1946 m 1,0,-1
 824 1946 l 1,1,-1
 636 1608 l 1,2,-1
 334 1608 l 1,3,-1
 145 1946 l 1,4,-1
 399 1946 l 1,5,-1
 485 1709 l 1,6,-1
 571 1946 l 1,0,-1
EndSplineSet
EndChar

StartChar: uni02C9
Encoding: 713 713 359
Width: 696
Flags: W
LayerCount: 2
UndoRedoHistory
Layer: 1
Undoes
EndUndoes
Redoes
EndRedoes
EndUndoRedoHistory
Fore
SplineSet
70 741 m 1,0,-1
 626 741 l 1,1,-1
 626 559 l 1,2,-1
 70 559 l 1,3,-1
 70 741 l 1,0,-1
EndSplineSet
EndChar

StartChar: breve
Encoding: 728 728 360
Width: 1016
Flags: W
LayerCount: 2
UndoRedoHistory
Layer: 1
Undoes
EndUndoes
Redoes
EndRedoes
EndUndoRedoHistory
Fore
SplineSet
638 1892 m 1,0,-1
 789 1892 l 1,1,-1
 789 1879 l 2,2,3
 789 1615 789 1615 507 1615 c 0,4,5
 225 1615 225 1615 225 1877 c 2,6,-1
 225 1892 l 1,7,-1
 375 1892 l 1,8,9
 375 1816 375 1816 409.5 1789 c 128,-1,10
 444 1762 444 1762 507 1762 c 0,11,12
 570 1762 570 1762 604 1788.5 c 128,-1,13
 638 1815 638 1815 638 1892 c 1,0,-1
EndSplineSet
EndChar

StartChar: dotaccent
Encoding: 729 729 361
Width: 572
Flags: W
LayerCount: 2
UndoRedoHistory
Layer: 1
Undoes
EndUndoes
Redoes
EndRedoes
EndUndoRedoHistory
Fore
SplineSet
153 1122 m 1,0,-1
 424 1122 l 1,1,-1
 424 896 l 1,2,-1
 153 896 l 1,3,-1
 153 1122 l 1,0,-1
EndSplineSet
EndChar

StartChar: ring
Encoding: 730 730 362
Width: 923
Flags: W
LayerCount: 2
UndoRedoHistory
Layer: 1
Undoes
EndUndoes
Redoes
EndRedoes
EndUndoRedoHistory
Fore
SplineSet
581 1131 m 128,-1,1
 581 1184 581 1184 549.5 1222.5 c 128,-1,2
 518 1261 518 1261 462 1261 c 128,-1,3
 406 1261 406 1261 374.5 1222.5 c 128,-1,4
 343 1184 343 1184 343 1131 c 128,-1,5
 343 1078 343 1078 374.5 1039 c 128,-1,6
 406 1000 406 1000 462 1000 c 128,-1,7
 518 1000 518 1000 549.5 1039 c 128,-1,0
 581 1078 581 1078 581 1131 c 128,-1,1
228 1130 m 128,-1,9
 228 1228 228 1228 291 1291 c 128,-1,10
 354 1354 354 1354 462 1354 c 128,-1,11
 570 1354 570 1354 632 1291 c 128,-1,12
 694 1228 694 1228 694 1130 c 128,-1,13
 694 1032 694 1032 631.5 969 c 0,14,15
 570 906 570 906 462 906 c 128,-1,16
 354 906 354 906 291 969 c 128,-1,8
 228 1032 228 1032 228 1130 c 128,-1,9
EndSplineSet
EndChar

StartChar: ogonek
Encoding: 731 731 363
Width: 1015
Flags: W
LayerCount: 2
UndoRedoHistory
Layer: 1
Undoes
EndUndoes
Redoes
EndRedoes
EndUndoRedoHistory
Fore
SplineSet
624 0 m 1,0,-1
 731 0 l 1,1,2
 551 -189 551 -189 551 -339 c 0,3,4
 551 -403 551 -403 591.5 -435.5 c 128,-1,5
 632 -468 632 -468 690 -468 c 128,-1,6
 748 -468 748 -468 812 -453 c 1,7,-1
 812 -591 l 1,8,9
 792 -602 792 -602 741 -614 c 128,-1,10
 690 -626 690 -626 643 -626 c 0,11,12
 506 -626 506 -626 432 -560.5 c 0,13,14
 358 -496 358 -496 358 -388 c 128,-1,15
 358 -280 358 -280 427 -175.5 c 128,-1,16
 496 -71 496 -71 624 0 c 1,0,-1
EndSplineSet
EndChar

StartChar: tilde
Encoding: 732 732 364
Width: 1117
Flags: W
LayerCount: 2
UndoRedoHistory
Layer: 1
Undoes
EndUndoes
Redoes
EndRedoes
EndUndoRedoHistory
Fore
SplineSet
223 979 m 1,0,1
 251 1077 251 1077 298.5 1119 c 128,-1,2
 346 1161 346 1161 402.5 1161 c 128,-1,3
 459 1161 459 1161 564 1124 c 128,-1,4
 669 1087 669 1087 690 1087 c 2,5,-1
 694 1087 l 1,6,7
 711 1090 711 1090 723.5 1103.5 c 128,-1,8
 736 1117 736 1117 750 1158 c 1,9,-1
 892 1130 l 1,10,-1
 883 1082 l 1,11,12
 862 983 862 983 821.5 944.5 c 128,-1,13
 781 906 781 906 723.5 906 c 128,-1,14
 666 906 666 906 567 947 c 128,-1,15
 468 988 468 988 439.5 988 c 128,-1,16
 411 988 411 988 400 986 c 0,17,18
 380 981 380 981 353 927 c 1,19,-1
 223 979 l 1,0,1
EndSplineSet
EndChar

StartChar: hungarumlaut
Encoding: 733 733 365
Width: 1300
Flags: W
LayerCount: 2
UndoRedoHistory
Layer: 1
Undoes
EndUndoes
Redoes
EndRedoes
EndUndoRedoHistory
Fore
SplineSet
336 1000 m 1,0,-1
 487 1441 l 1,1,-1
 694 1344 l 1,2,-1
 449 953 l 1,3,-1
 336 1000 l 1,0,-1
673 1000 m 1,4,-1
 880 1441 l 1,5,-1
 1091 1340 l 1,6,-1
 784 948 l 1,7,-1
 673 1000 l 1,4,-1
EndSplineSet
EndChar

StartChar: uni0307
Encoding: 775 775 366
Width: 572
Flags: W
LayerCount: 2
UndoRedoHistory
Layer: 1
Undoes
EndUndoes
Redoes
EndRedoes
EndUndoRedoHistory
Fore
SplineSet
107 1253 m 1,0,-1
 465 1253 l 1,1,-1
 465 955 l 1,2,-1
 107 955 l 1,3,-1
 107 1253 l 1,0,-1
EndSplineSet
EndChar

StartChar: dblgravecmb
Encoding: 783 783 367
Width: 825
Flags: W
LayerCount: 2
UndoRedoHistory
Layer: 1
Undoes
EndUndoes
Redoes
EndRedoes
EndUndoRedoHistory
Fore
SplineSet
368 2006 m 1,0,-1
 555 2109 l 1,1,-1
 724 1697 l 1,2,-1
 601 1644 l 1,3,-1
 368 2006 l 1,0,-1
3 2006 m 1,4,-1
 194 2109 l 1,5,-1
 400 1697 l 1,6,-1
 277 1644 l 1,7,-1
 3 2006 l 1,4,-1
EndSplineSet
EndChar

StartChar: uni0311
Encoding: 785 785 368
Width: 1016
Flags: W
LayerCount: 2
UndoRedoHistory
Layer: 1
Undoes
EndUndoes
Redoes
EndRedoes
EndUndoRedoHistory
Fore
SplineSet
224 1657 m 1,0,1
 222 1923 222 1923 504 1923 c 128,-1,2
 786 1923 786 1923 789 1664 c 1,3,-1
 789 1649 l 1,4,-1
 638 1648 l 1,5,6
 637 1724 637 1724 603 1750 c 128,-1,7
 569 1776 569 1776 509 1776 c 0,8,9
 406 1776 406 1776 384 1712 c 0,10,11
 374 1685 374 1685 375 1644 c 1,12,-1
 224 1644 l 1,13,-1
 224 1657 l 1,0,1
EndSplineSet
EndChar

StartChar: commaaccentcomb
Encoding: 806 806 369
Width: 528
Flags: W
LayerCount: 2
UndoRedoHistory
Layer: 1
Undoes
EndUndoes
Redoes
EndRedoes
EndUndoRedoHistory
Fore
SplineSet
121 5 m 1,0,-1
 394 5 l 1,1,-1
 394 -249 l 1,2,-1
 302 -562 l 1,3,-1
 181 -562 l 1,4,-1
 236 -258 l 1,5,-1
 121 -258 l 1,6,-1
 121 5 l 1,0,-1
EndSplineSet
EndChar

StartChar: Delta
Encoding: 916 916 370
Width: 921
Flags: W
LayerCount: 2
UndoRedoHistory
Layer: 1
Undoes
EndUndoes
Redoes
EndRedoes
EndUndoRedoHistory
Fore
SplineSet
612 180 m 1,0,-1
 475 1124 l 1,1,-1
 443 1124 l 1,2,-1
 306 180 l 1,3,-1
 612 180 l 1,0,-1
277 1353 m 1,4,-1
 641 1353 l 1,5,-1
 887 0 l 1,6,-1
 34 0 l 1,7,-1
 277 1353 l 1,4,-1
EndSplineSet
EndChar

StartChar: uni03A9
Encoding: 937 937 371
Width: 992
Flags: W
LayerCount: 2
UndoRedoHistory
Layer: 1
Undoes
EndUndoes
Redoes
EndRedoes
EndUndoRedoHistory
Fore
SplineSet
47 0 m 1,0,-1
 47 201 l 1,1,-1
 209 201 l 1,2,3
 105 358 105 358 83 490 c 0,4,5
 72 555 72 555 72 630 c 2,6,-1
 72 1189 l 2,7,8
 72 1394 72 1394 180 1500.5 c 128,-1,9
 288 1607 288 1607 496 1607 c 128,-1,10
 704 1607 704 1607 812 1500.5 c 128,-1,11
 920 1394 920 1394 920 1189 c 2,12,-1
 920 630 l 2,13,14
 920 477 920 477 875 371 c 0,15,16
 838 285 838 285 783 201 c 1,17,-1
 945 201 l 1,18,-1
 945 0 l 1,19,-1
 549 0 l 1,20,-1
 549 202 l 1,21,22
 641 249 641 249 641 581 c 2,23,-1
 641 1211 l 2,24,25
 640 1322 640 1322 556 1363 c 0,26,27
 529 1376 529 1376 483 1376 c 128,-1,28
 437 1376 437 1376 394 1332.5 c 128,-1,29
 351 1289 351 1289 351 1211 c 2,30,-1
 351 581 l 2,31,32
 351 459 351 459 375 342.5 c 128,-1,33
 399 226 399 226 443 202 c 1,34,-1
 443 0 l 1,35,-1
 47 0 l 1,0,-1
EndSplineSet
EndChar

StartChar: mu
Encoding: 956 956 372
Width: 1022
Flags: W
LayerCount: 2
UndoRedoHistory
Layer: 1
Undoes
EndUndoes
Redoes
EndRedoes
EndUndoRedoHistory
Fore
SplineSet
619 1500 m 1,0,-1
 883 1500 l 1,1,-1
 883 0 l 1,2,-1
 618 0 l 1,3,-1
 618 156 l 1,4,5
 555 -19 555 -19 389 -19 c 2,6,-1
 379 -19 l 1,7,-1
 379 -186 l 1,8,-1
 122 -186 l 1,9,-1
 122 1500 l 1,10,-1
 388 1500 l 1,11,-1
 388 381 l 2,12,13
 388 288 388 288 411 243.5 c 128,-1,14
 434 199 434 199 497 199 c 0,15,16
 617 199 617 199 619 379 c 1,17,-1
 619 1500 l 1,0,-1
EndSplineSet
EndChar

StartChar: endash
Encoding: 8211 8211 396
Width: 756
Flags: W
LayerCount: 2
UndoRedoHistory
Layer: 1
Undoes
EndUndoes
Redoes
EndRedoes
EndUndoRedoHistory
Fore
SplineSet
120 741 m 1,0,-1
 636 741 l 1,1,-1
 636 509 l 1,2,-1
 120 509 l 1,3,-1
 120 741 l 1,0,-1
EndSplineSet
EndChar

StartChar: emdash
Encoding: 8212 8212 397
Width: 1153
Flags: W
LayerCount: 2
UndoRedoHistory
Layer: 1
Undoes
EndUndoes
Redoes
EndRedoes
EndUndoRedoHistory
Fore
SplineSet
60 741 m 1,0,-1
 1092 741 l 1,1,-1
 1092 509 l 1,2,-1
 60 509 l 1,3,-1
 60 741 l 1,0,-1
EndSplineSet
EndChar

StartChar: quoteleft
Encoding: 8216 8216 398
Width: 586
Flags: W
LayerCount: 2
UndoRedoHistory
Layer: 1
Undoes
EndUndoes
Redoes
EndRedoes
EndUndoRedoHistory
Fore
SplineSet
255 1775 m 1,0,-1
 408 1775 l 1,1,-1
 315 1345 l 1,2,-1
 468 1345 l 1,3,-1
 468 1065 l 1,4,-1
 119 1065 l 1,5,-1
 119 1336 l 1,6,-1
 255 1775 l 1,0,-1
EndSplineSet
EndChar

StartChar: quoteright
Encoding: 8217 8217 399
Width: 586
Flags: W
LayerCount: 2
UndoRedoHistory
Layer: 1
Undoes
EndUndoes
Redoes
EndRedoes
EndUndoRedoHistory
Fore
SplineSet
129 1775 m 1,0,-1
 478 1775 l 1,1,-1
 478 1503 l 1,2,-1
 342 1065 l 1,3,-1
 188 1065 l 1,4,-1
 282 1494 l 1,5,-1
 129 1494 l 1,6,-1
 129 1775 l 1,0,-1
EndSplineSet
EndChar

StartChar: quotesinglbase
Encoding: 8218 8218 400
Width: 484
Flags: W
LayerCount: 2
UndoRedoHistory
Layer: 1
Undoes
EndUndoes
Redoes
EndRedoes
EndUndoRedoHistory
Fore
SplineSet
80 258 m 1,0,-1
 411 258 l 1,1,-1
 411 9 l 1,2,-1
 302 -324 l 1,3,-1
 138 -324 l 1,4,-1
 216 0 l 1,5,-1
 80 0 l 1,6,-1
 80 258 l 1,0,-1
EndSplineSet
EndChar

StartChar: quotedblleft
Encoding: 8220 8220 401
Width: 1030
Flags: W
LayerCount: 2
UndoRedoHistory
Layer: 1
Undoes
EndUndoes
Redoes
EndRedoes
EndUndoRedoHistory
Fore
SplineSet
250 1775 m 1,0,-1
 414 1775 l 1,1,-1
 336 1403 l 1,2,-1
 471 1403 l 1,3,-1
 471 1141 l 1,4,-1
 140 1141 l 1,5,-1
 140 1394 l 1,6,-1
 250 1775 l 1,0,-1
716 1775 m 1,7,-1
 880 1775 l 1,8,-1
 802 1403 l 1,9,-1
 937 1403 l 1,10,-1
 937 1141 l 1,11,-1
 606 1141 l 1,12,-1
 606 1394 l 1,13,-1
 716 1775 l 1,7,-1
EndSplineSet
EndChar

StartChar: quotedblright
Encoding: 8221 8221 402
Width: 1077
Flags: W
LayerCount: 2
UndoRedoHistory
Layer: 1
Undoes
EndUndoes
Redoes
EndRedoes
EndUndoRedoHistory
Fore
SplineSet
155 1775 m 1,0,-1
 486 1775 l 1,1,-1
 486 1522 l 1,2,-1
 376 1141 l 1,3,-1
 212 1141 l 1,4,-1
 290 1513 l 1,5,-1
 155 1513 l 1,6,-1
 155 1775 l 1,0,-1
621 1775 m 1,7,-1
 952 1775 l 1,8,-1
 952 1522 l 1,9,-1
 842 1141 l 1,10,-1
 678 1141 l 1,11,-1
 756 1513 l 1,12,-1
 621 1513 l 1,13,-1
 621 1775 l 1,7,-1
EndSplineSet
EndChar

StartChar: quotedblbase
Encoding: 8222 8222 403
Width: 1016
Flags: W
LayerCount: 2
UndoRedoHistory
Layer: 1
Undoes
EndUndoes
Redoes
EndRedoes
EndUndoRedoHistory
Fore
SplineSet
151 261 m 1,0,-1
 481 261 l 1,1,-1
 481 8 l 1,2,-1
 372 -373 l 1,3,-1
 208 -373 l 1,4,-1
 286 0 l 1,5,-1
 151 0 l 1,6,-1
 151 261 l 1,0,-1
617 261 m 1,7,-1
 947 261 l 1,8,-1
 947 8 l 1,9,-1
 838 -373 l 1,10,-1
 674 -373 l 1,11,-1
 752 0 l 1,12,-1
 617 0 l 1,13,-1
 617 261 l 1,7,-1
EndSplineSet
EndChar

StartChar: dagger
Encoding: 8224 8224 404
Width: 909
Flags: W
LayerCount: 2
UndoRedoHistory
Layer: 1
Undoes
EndUndoes
Redoes
EndRedoes
EndUndoRedoHistory
Fore
SplineSet
321 1592 m 1,0,-1
 591 1592 l 1,1,-1
 591 1182 l 1,2,-1
 818 1182 l 1,3,-1
 818 965 l 1,4,-1
 591 965 l 1,5,-1
 591 0 l 1,6,-1
 321 0 l 1,7,-1
 321 965 l 1,8,-1
 91 965 l 1,9,-1
 91 1182 l 1,10,-1
 321 1182 l 1,11,-1
 321 1592 l 1,0,-1
EndSplineSet
EndChar

StartChar: daggerdbl
Encoding: 8225 8225 405
Width: 909
Flags: W
LayerCount: 2
UndoRedoHistory
Layer: 1
Undoes
EndUndoes
Redoes
EndRedoes
EndUndoRedoHistory
Fore
SplineSet
321 1592 m 1,0,-1
 591 1592 l 1,1,-1
 591 1182 l 1,2,-1
 818 1182 l 1,3,-1
 818 965 l 1,4,-1
 591 965 l 1,5,-1
 591 664 l 1,6,-1
 818 664 l 1,7,-1
 818 447 l 1,8,-1
 591 447 l 1,9,-1
 591 0 l 1,10,-1
 321 0 l 1,11,-1
 321 447 l 1,12,-1
 91 447 l 1,13,-1
 91 664 l 1,14,-1
 321 664 l 1,15,-1
 321 965 l 1,16,-1
 91 965 l 1,17,-1
 91 1182 l 1,18,-1
 321 1182 l 1,19,-1
 321 1592 l 1,0,-1
EndSplineSet
EndChar

StartChar: bullet
Encoding: 8226 8226 406
Width: 861
Flags: W
LayerCount: 2
UndoRedoHistory
Layer: 1
Undoes
EndUndoes
Redoes
EndRedoes
EndUndoRedoHistory
Fore
SplineSet
165 741 m 128,-1,1
 165 877 165 877 234 954 c 128,-1,2
 303 1031 303 1031 430 1031 c 128,-1,3
 557 1031 557 1031 626.5 954 c 128,-1,4
 696 877 696 877 696 741 c 128,-1,5
 696 605 696 605 626.5 528 c 128,-1,6
 557 451 557 451 430 451 c 128,-1,7
 303 451 303 451 234 528 c 128,-1,0
 165 605 165 605 165 741 c 128,-1,1
EndSplineSet
EndChar

StartChar: perthousand
Encoding: 8240 8240 407
Width: 3107
Flags: W
LayerCount: 2
UndoRedoHistory
Layer: 1
Undoes
EndUndoes
Redoes
EndRedoes
EndUndoRedoHistory
Fore
SplineSet
2752 830 m 2,0,1
 2752 920 2752 920 2728.5 956.5 c 0,2,3
 2706 993 2706 993 2640 993 c 128,-1,4
 2574 993 2574 993 2550.5 956.5 c 128,-1,5
 2527 920 2527 920 2527 830 c 2,6,-1
 2527 338 l 2,7,8
 2527 247 2527 247 2551.5 207 c 128,-1,9
 2576 167 2576 167 2640 167 c 128,-1,10
 2704 167 2704 167 2728 207 c 128,-1,11
 2752 247 2752 247 2752 338 c 2,12,-1
 2752 830 l 2,0,1
2301 762 m 2,13,14
 2301 985 2301 985 2378.5 1082.5 c 128,-1,15
 2456 1180 2456 1180 2639 1180 c 128,-1,16
 2822 1180 2822 1180 2900 1082.5 c 128,-1,17
 2978 985 2978 985 2978 762 c 2,18,-1
 2978 404 l 2,19,20
 2978 184 2978 184 2897.5 81.5 c 0,21,22
 2818 -21 2818 -21 2640 -21 c 128,-1,23
 2462 -21 2462 -21 2381.5 81.5 c 128,-1,24
 2301 184 2301 184 2301 404 c 2,25,-1
 2301 762 l 2,13,14
1414 762 m 2,26,27
 1414 985 1414 985 1491.5 1082.5 c 128,-1,28
 1569 1180 1569 1180 1752 1180 c 128,-1,29
 1935 1180 1935 1180 2012.5 1082.5 c 128,-1,30
 2090 985 2090 985 2090 762 c 2,31,-1
 2090 404 l 2,32,33
 2090 184 2090 184 2009.5 81.5 c 128,-1,34
 1929 -21 1929 -21 1752 -21 c 128,-1,35
 1575 -21 1575 -21 1494.5 81.5 c 128,-1,36
 1414 184 1414 184 1414 404 c 2,37,-1
 1414 762 l 2,26,27
1864 830 m 2,38,39
 1864 920 1864 920 1841 956.5 c 128,-1,40
 1818 993 1818 993 1752 993 c 128,-1,41
 1686 993 1686 993 1663 956.5 c 128,-1,42
 1640 920 1640 920 1640 830 c 2,43,-1
 1640 338 l 2,44,45
 1640 246 1640 246 1664.5 206.5 c 128,-1,46
 1689 167 1689 167 1752 167 c 128,-1,47
 1815 167 1815 167 1839.5 206.5 c 128,-1,48
 1864 246 1864 246 1864 338 c 2,49,-1
 1864 830 l 2,38,39
130 1363 m 2,50,51
 130 1586 130 1586 207.5 1683.5 c 128,-1,52
 285 1781 285 1781 468 1781 c 128,-1,53
 651 1781 651 1781 728.5 1683.5 c 128,-1,54
 806 1586 806 1586 806 1363 c 2,55,-1
 806 1005 l 2,56,57
 806 785 806 785 725.5 682.5 c 128,-1,58
 645 580 645 580 468 580 c 128,-1,59
 291 580 291 580 210.5 682.5 c 128,-1,60
 130 785 130 785 130 1005 c 2,61,-1
 130 1363 l 2,50,51
580 1431 m 2,62,63
 580 1521 580 1521 557 1557.5 c 128,-1,64
 534 1594 534 1594 468 1594 c 128,-1,65
 402 1594 402 1594 379 1557.5 c 128,-1,66
 356 1521 356 1521 356 1431 c 2,67,-1
 356 939 l 2,68,69
 356 847 356 847 380.5 807.5 c 128,-1,70
 405 768 405 768 468 768 c 128,-1,71
 531 768 531 768 555.5 807.5 c 128,-1,72
 580 847 580 847 580 939 c 2,73,-1
 580 1431 l 2,62,63
1347 1761 m 1,74,-1
 1551 1761 l 1,75,-1
 875 0 l 1,76,-1
 662 0 l 1,77,-1
 1347 1761 l 1,74,-1
EndSplineSet
EndChar

StartChar: guilsinglleft
Encoding: 8249 8249 408
Width: 606
Flags: W
LayerCount: 2
UndoRedoHistory
Layer: 1
Undoes
EndUndoes
Redoes
EndRedoes
EndUndoRedoHistory
Fore
SplineSet
57 887 m 1,0,-1
 548 1158 l 1,1,-1
 548 890 l 1,2,-1
 236 749 l 1,3,-1
 548 599 l 1,4,-1
 548 327 l 1,5,-1
 57 612 l 1,6,-1
 57 887 l 1,0,-1
EndSplineSet
EndChar

StartChar: guilsinglright
Encoding: 8250 8250 409
Width: 727
Flags: W
LayerCount: 2
UndoRedoHistory
Layer: 1
Undoes
EndUndoes
Redoes
EndRedoes
EndUndoRedoHistory
Fore
SplineSet
139 890 m 1,0,-1
 139 1158 l 1,1,-1
 630 887 l 1,2,-1
 630 612 l 1,3,-1
 139 327 l 1,4,-1
 139 599 l 1,5,-1
 451 749 l 1,6,-1
 139 890 l 1,0,-1
EndSplineSet
EndChar

StartChar: fraction
Encoding: 8260 8260 410
Width: 829
Flags: W
LayerCount: 2
UndoRedoHistory
Layer: 1
Undoes
EndUndoes
Redoes
EndRedoes
EndUndoRedoHistory
Fore
SplineSet
526 1767 m 1,0,-1
 746 1767 l 1,1,-1
 276 0 l 1,2,-1
 57 0 l 1,3,-1
 526 1767 l 1,0,-1
EndSplineSet
EndChar

StartChar: uni2074
Encoding: 8308 8308 411
Width: 852
Flags: W
LayerCount: 2
UndoRedoHistory
Layer: 1
Undoes
EndUndoes
Redoes
EndRedoes
EndUndoRedoHistory
Fore
SplineSet
477 960 m 1,0,-1
 477 1519 l 1,1,-1
 322 960 l 1,2,-1
 477 960 l 1,0,-1
399 1761 m 1,3,-1
 662 1761 l 1,4,-1
 662 960 l 1,5,-1
 736 960 l 1,6,-1
 736 811 l 1,7,-1
 662 811 l 1,8,-1
 662 605 l 1,9,-1
 477 605 l 1,10,-1
 477 811 l 1,11,-1
 150 811 l 1,12,-1
 150 940 l 1,13,-1
 399 1761 l 1,3,-1
EndSplineSet
EndChar

StartChar: Euro
Encoding: 8364 8364 412
Width: 1076
Flags: W
LayerCount: 2
UndoRedoHistory
Layer: 1
Undoes
EndUndoes
Redoes
EndRedoes
EndUndoRedoHistory
Fore
SplineSet
110 1253 m 2,0,1
 110 1646 110 1646 316 1744 c 0,2,3
 392 1780 392 1780 500 1780 c 0,4,5
 871 1780 871 1780 871 1312 c 2,6,-1
 871 1070 l 1,7,-1
 612 1070 l 1,8,-1
 612 1295 l 2,9,10
 612 1431 612 1431 589 1489.5 c 128,-1,11
 566 1548 566 1548 499 1548 c 128,-1,12
 432 1548 432 1548 406 1486 c 128,-1,13
 380 1424 380 1424 380 1296 c 2,14,-1
 380 1102 l 1,15,-1
 548 1102 l 1,16,-1
 548 966 l 1,17,-1
 380 966 l 1,18,-1
 380 869 l 1,19,-1
 548 869 l 1,20,-1
 548 725 l 1,21,-1
 380 725 l 1,22,-1
 380 474 l 2,23,24
 380 332 380 332 405 271 c 128,-1,25
 430 210 430 210 496 210 c 128,-1,26
 562 210 562 210 587 272 c 128,-1,27
 612 334 612 334 612 477 c 2,28,-1
 612 729 l 1,29,-1
 875 729 l 1,30,-1
 875 480 l 2,31,32
 875 225 875 225 784 102.5 c 128,-1,33
 693 -20 693 -20 498 -20 c 128,-1,34
 303 -20 303 -20 206.5 110.5 c 128,-1,35
 110 241 110 241 110 486 c 2,36,-1
 110 725 l 1,37,-1
 23 725 l 1,38,-1
 23 869 l 1,39,-1
 110 869 l 1,40,-1
 110 966 l 1,41,-1
 23 966 l 1,42,-1
 23 1102 l 1,43,-1
 110 1102 l 1,44,-1
 110 1253 l 2,0,1
EndSplineSet
EndChar

StartChar: trademark
Encoding: 8482 8482 413
Width: 1676
Flags: W
LayerCount: 2
UndoRedoHistory
Layer: 1
Undoes
EndUndoes
Redoes
EndRedoes
EndUndoRedoHistory
Fore
SplineSet
82 1761 m 1,0,-1
 572 1761 l 1,1,-1
 572 1592 l 1,2,-1
 429 1592 l 1,3,-1
 429 507 l 1,4,-1
 231 507 l 1,5,-1
 231 1592 l 1,6,-1
 82 1592 l 1,7,-1
 82 1761 l 1,0,-1
1273 1761 m 1,8,-1
 1561 1761 l 1,9,-1
 1561 507 l 1,10,-1
 1373 507 l 1,11,-1
 1373 996 l 1,12,-1
 1380 1469 l 1,13,-1
 1223 507 l 1,14,-1
 1038 507 l 1,15,-1
 873 1469 l 1,16,-1
 880 996 l 1,17,-1
 880 507 l 1,18,-1
 694 507 l 1,19,-1
 694 1761 l 1,20,-1
 981 1761 l 1,21,-1
 1129 883 l 1,22,-1
 1273 1761 l 1,8,-1
EndSplineSet
EndChar

StartChar: partialdiff
Encoding: 8706 8706 414
Width: 1072
Flags: W
LayerCount: 2
UndoRedoHistory
Layer: 1
Undoes
EndUndoes
Redoes
EndRedoes
EndUndoRedoHistory
Fore
SplineSet
721 1304 m 0,0,1
 721 1480 721 1480 548 1480 c 0,2,3
 489 1480 489 1480 373 1456 c 1,4,-1
 339 1617 l 1,5,6
 472 1655 472 1655 556.5 1655 c 128,-1,7
 641 1655 641 1655 691.5 1644 c 128,-1,8
 742 1633 742 1633 787 1606.5 c 128,-1,9
 832 1580 832 1580 864 1540 c 0,10,11
 932 1453 932 1453 931 1295 c 0,12,13
 931 1227 931 1227 920 1159 c 2,14,-1
 780 246 l 2,15,16
 757 91 757 91 620 16 c 0,17,18
 496 -52 496 -52 363 -14 c 0,19,20
 276 12 276 12 220 88 c 0,21,22
 163 165 163 165 163 284 c 0,23,24
 163 313 163 313 168.5 352 c 128,-1,25
 174 391 174 391 183.5 472.5 c 128,-1,26
 193 554 193 554 197.5 588.5 c 128,-1,27
 202 623 202 623 211.5 683.5 c 128,-1,28
 221 744 221 744 229 775.5 c 128,-1,29
 237 807 237 807 251 855 c 128,-1,30
 265 903 265 903 280.5 928.5 c 128,-1,31
 296 954 296 954 318.5 985 c 0,32,33
 342 1016 342 1016 368 1031 c 0,34,35
 433 1068 433 1068 509.5 1068 c 128,-1,36
 586 1068 586 1068 685 1034 c 1,37,-1
 719 1265 l 2,38,39
 721 1285 721 1285 721 1304 c 0,0,1
459 175 m 0,40,41
 547 175 547 175 560 301 c 1,42,-1
 647 879 l 1,43,44
 594 901 594 901 554 901 c 0,45,46
 473 901 473 901 450 745 c 2,47,-1
 392 357 l 1,48,49
 390 336 390 336 389 327 c 0,50,51
 386 300 386 300 386 264 c 0,52,53
 386 176 386 176 459 175 c 0,40,41
EndSplineSet
EndChar

StartChar: product
Encoding: 8719 8719 415
Width: 1033
Flags: W
LayerCount: 2
UndoRedoHistory
Layer: 1
Undoes
EndUndoes
Redoes
EndRedoes
EndUndoRedoHistory
Fore
SplineSet
136 1761 m 1,0,-1
 896 1761 l 1,1,-1
 896 0 l 1,2,-1
 634 0 l 1,3,-1
 634 1543 l 1,4,-1
 399 1543 l 1,5,-1
 399 0 l 1,6,-1
 136 0 l 1,7,-1
 136 1761 l 1,0,-1
EndSplineSet
EndChar

StartChar: summation
Encoding: 8721 8721 416
Width: 814
Flags: W
LayerCount: 2
UndoRedoHistory
Layer: 1
Undoes
EndUndoes
Redoes
EndRedoes
EndUndoRedoHistory
Fore
SplineSet
114 1761 m 1,0,-1
 711 1761 l 1,1,-1
 711 1551 l 1,2,-1
 387 1551 l 1,3,-1
 646 880 l 1,4,-1
 387 225 l 1,5,-1
 711 225 l 1,6,-1
 711 0 l 1,7,-1
 114 0 l 1,8,-1
 114 221 l 1,9,-1
 389 881 l 1,10,-1
 114 1555 l 1,11,-1
 114 1761 l 1,0,-1
EndSplineSet
EndChar

StartChar: minus
Encoding: 8722 8722 417
Width: 637
Flags: W
LayerCount: 2
UndoRedoHistory
Layer: 1
Undoes
EndUndoes
Redoes
EndRedoes
EndUndoRedoHistory
Fore
SplineSet
60 741 m 1,0,-1
 576 741 l 1,1,-1
 576 509 l 1,2,-1
 60 509 l 1,3,-1
 60 741 l 1,0,-1
EndSplineSet
EndChar

StartChar: uni2215
Encoding: 8725 8725 418
Width: 829
Flags: W
LayerCount: 2
UndoRedoHistory
Layer: 1
Undoes
EndUndoes
Redoes
EndRedoes
EndUndoRedoHistory
Fore
SplineSet
526 1767 m 1,0,-1
 746 1767 l 1,1,-1
 276 0 l 1,2,-1
 57 0 l 1,3,-1
 526 1767 l 1,0,-1
EndSplineSet
EndChar

StartChar: radical
Encoding: 8730 8730 419
Width: 1267
Flags: W
LayerCount: 2
UndoRedoHistory
Layer: 1
Undoes
EndUndoes
Redoes
EndRedoes
EndUndoRedoHistory
Fore
SplineSet
660 1500 m 1,0,-1
 1172 1500 l 1,1,-1
 1172 1300 l 1,2,-1
 876 1300 l 1,3,-1
 612 0 l 1,4,-1
 288 0 l 1,5,-1
 99 741 l 1,6,-1
 358 741 l 1,7,-1
 432 288 l 1,8,-1
 660 1500 l 1,0,-1
EndSplineSet
EndChar

StartChar: infinity
Encoding: 8734 8734 420
Width: 1300
Flags: W
LayerCount: 2
UndoRedoHistory
Layer: 1
Undoes
EndUndoes
Redoes
EndRedoes
EndUndoRedoHistory
Fore
SplineSet
948 740 m 128,-1,1
 948 811 948 811 863 811 c 128,-1,2
 778 811 778 811 701 740 c 1,3,4
 772 669 772 669 860 669 c 128,-1,0
 948 669 948 669 948 740 c 128,-1,1
577 740 m 1,5,6
 506 810 506 810 425 810 c 128,-1,7
 344 810 344 810 344 740 c 128,-1,8
 344 670 344 670 424 669 c 0,9,10
 504 669 504 669 577 740 c 1,5,6
639 885 m 1,11,12
 766 1041 766 1041 904 1041 c 128,-1,13
 1042 1041 1042 1041 1112 962 c 0,14,15
 1182 882 1182 882 1182 742 c 128,-1,16
 1182 602 1182 602 1112.5 520.5 c 128,-1,17
 1043 439 1043 439 912 439 c 0,18,19
 753 439 753 439 639 585 c 1,20,21
 591 531 591 531 519 491.5 c 128,-1,22
 447 452 447 452 370 452 c 0,23,24
 242 452 242 452 175 529 c 128,-1,25
 108 606 108 606 108 742 c 128,-1,26
 108 878 108 878 176 953 c 128,-1,27
 244 1028 244 1028 378 1028 c 128,-1,28
 512 1028 512 1028 639 885 c 1,11,12
EndSplineSet
EndChar

StartChar: integral
Encoding: 8747 8747 421
Width: 767
Flags: W
LayerCount: 2
UndoRedoHistory
Layer: 1
Undoes
EndUndoes
Redoes
EndRedoes
EndUndoRedoHistory
Fore
SplineSet
510 221 m 2,0,1
 510 -17 510 -17 290 -17 c 0,2,3
 193 -17 193 -17 115 8 c 1,4,-1
 115 186 l 1,5,6
 153 182 153 182 163 182 c 0,7,8
 222 182 222 182 238 207 c 128,-1,9
 254 232 254 232 254 305 c 2,10,-1
 254 1539 l 2,11,12
 254 1783 254 1783 469 1783 c 0,13,14
 569 1783 569 1783 652 1752 c 1,15,-1
 652 1574 l 1,16,17
 602 1587 602 1587 570 1587 c 0,18,19
 510 1587 510 1587 510 1484 c 2,20,-1
 510 221 l 2,0,1
EndSplineSet
EndChar

StartChar: approxequal
Encoding: 8776 8776 422
Width: 1117
Flags: W
LayerCount: 2
UndoRedoHistory
Layer: 1
Undoes
EndUndoes
Redoes
EndRedoes
EndUndoRedoHistory
Fore
SplineSet
568.5 378.5 m 128,-1,1
 424 431 424 431 370 431 c 128,-1,2
 316 431 316 431 277 338 c 1,3,-1
 105 419 l 1,4,5
 186 686 186 686 352 686 c 0,6,7
 409 686 409 686 561 637 c 128,-1,8
 713 588 713 588 736.5 589.5 c 128,-1,9
 760 591 760 591 785.5 618.5 c 128,-1,10
 811 646 811 646 827 700 c 1,11,-1
 1014 658 l 1,12,13
 994 579 994 579 947 492 c 0,14,15
 856 326 856 326 771 326 c 0,16,0
 713 326 713 326 568.5 378.5 c 128,-1,1
568.5 871.5 m 128,-1,18
 424 924 424 924 370 924 c 128,-1,19
 316 924 316 924 277 831 c 1,20,-1
 105 912 l 1,21,22
 186 1179 186 1179 352 1179 c 0,23,24
 409 1179 409 1179 561 1130 c 128,-1,25
 713 1081 713 1081 736.5 1082.5 c 128,-1,26
 760 1084 760 1084 785.5 1111.5 c 128,-1,27
 811 1139 811 1139 827 1193 c 1,28,-1
 1014 1151 l 1,29,30
 994 1072 994 1072 947 985 c 0,31,32
 856 819 856 819 771 819 c 0,33,17
 713 819 713 819 568.5 871.5 c 128,-1,18
EndSplineSet
EndChar

StartChar: notequal
Encoding: 8800 8800 423
Width: 884
Flags: W
LayerCount: 2
UndoRedoHistory
Layer: 1
Undoes
EndUndoes
Redoes
EndRedoes
EndUndoRedoHistory
Fore
SplineSet
154 0 m 1,0,-1
 255 559 l 1,1,-1
 103 559 l 1,2,-1
 103 791 l 1,3,-1
 297 791 l 1,4,-1
 325 942 l 1,5,-1
 103 942 l 1,6,-1
 103 1166 l 1,7,-1
 365 1166 l 1,8,-1
 474 1765 l 1,9,-1
 723 1765 l 1,10,-1
 611 1166 l 1,11,-1
 782 1166 l 1,12,-1
 782 942 l 1,13,-1
 569 942 l 1,14,-1
 540 791 l 1,15,-1
 782 791 l 1,16,-1
 782 559 l 1,17,-1
 497 559 l 1,18,-1
 392 0 l 1,19,-1
 154 0 l 1,0,-1
EndSplineSet
EndChar

StartChar: lessequal
Encoding: 8804 8804 424
Width: 781
Flags: W
LayerCount: 2
UndoRedoHistory
Layer: 1
Undoes
EndUndoes
Redoes
EndRedoes
EndUndoRedoHistory
Fore
SplineSet
112 179 m 1,0,-1
 642 179 l 1,1,-1
 642 0 l 1,2,-1
 112 0 l 1,3,-1
 112 179 l 1,0,-1
82 947 m 1,4,-1
 656 1312 l 1,5,-1
 656 1037 l 1,6,-1
 259 801 l 1,7,-1
 656 558 l 1,8,-1
 656 286 l 1,9,-1
 82 655 l 1,10,-1
 82 947 l 1,4,-1
EndSplineSet
EndChar

StartChar: greaterequal
Encoding: 8805 8805 425
Width: 781
Flags: W
LayerCount: 2
UndoRedoHistory
Layer: 1
Undoes
EndUndoes
Redoes
EndRedoes
EndUndoRedoHistory
Fore
SplineSet
118 179 m 1,0,-1
 649 179 l 1,1,-1
 649 0 l 1,2,-1
 118 0 l 1,3,-1
 118 179 l 1,0,-1
107 1037 m 1,4,-1
 107 1312 l 1,5,-1
 681 947 l 1,6,-1
 681 655 l 1,7,-1
 107 286 l 1,8,-1
 107 558 l 1,9,-1
 503 801 l 1,10,-1
 107 1037 l 1,4,-1
EndSplineSet
EndChar

StartChar: lozenge
Encoding: 9674 9674 426
Width: 921
Flags: W
LayerCount: 2
UndoRedoHistory
Layer: 1
Undoes
EndUndoes
Redoes
EndRedoes
EndUndoRedoHistory
Fore
SplineSet
609 713 m 1,0,-1
 475 1247 l 1,1,-1
 443 1247 l 1,2,-1
 309 713 l 1,3,-1
 443 179 l 1,4,-1
 475 179 l 1,5,-1
 609 713 l 1,0,-1
277 1436 m 1,6,-1
 648 1436 l 1,7,-1
 887 713 l 1,8,-1
 648 0 l 1,9,-1
 277 0 l 1,10,-1
 34 713 l 1,11,-1
 277 1436 l 1,6,-1
EndSplineSet
EndChar

StartChar: uniFB00
Encoding: 64256 64256 428
Width: 1274
Flags: W
LayerCount: 2
UndoRedoHistory
Layer: 1
Undoes
EndUndoes
Redoes
EndRedoes
EndUndoRedoHistory
Fore
SplineSet
811 1519 m 2,0,1
 811 1645 811 1645 876.5 1714.5 c 128,-1,2
 942 1784 942 1784 1051 1784 c 128,-1,3
 1160 1784 1160 1784 1227 1759 c 1,4,-1
 1227 1593 l 1,5,6
 1198 1597 1198 1597 1158 1597 c 0,7,8
 1076 1597 1076 1597 1075 1511 c 2,9,-1
 1075 1441 l 1,10,-1
 1227 1441 l 1,11,-1
 1227 1250 l 1,12,-1
 1075 1250 l 1,13,-1
 1075 0 l 1,14,-1
 810 0 l 1,15,-1
 810 1250 l 1,16,-1
 438 1250 l 1,17,-1
 438 0 l 1,18,-1
 173 0 l 1,19,-1
 173 1250 l 1,20,-1
 57 1250 l 1,21,-1
 57 1441 l 1,22,-1
 174 1441 l 1,23,-1
 174 1519 l 2,24,25
 174 1645 174 1645 239.5 1714.5 c 128,-1,26
 305 1784 305 1784 414 1784 c 128,-1,27
 523 1784 523 1784 590 1759 c 1,28,-1
 590 1593 l 1,29,30
 560 1597 560 1597 520 1597 c 0,31,32
 438 1597 438 1597 438 1511 c 2,33,-1
 438 1441 l 1,34,-1
 811 1441 l 1,35,-1
 811 1519 l 2,0,1
EndSplineSet
EndChar

StartChar: uniFB01
Encoding: 64257 64257 429
Width: 1171
Flags: W
LayerCount: 2
UndoRedoHistory
Layer: 1
Undoes
EndUndoes
Redoes
EndRedoes
EndUndoRedoHistory
Fore
SplineSet
773 1800 m 1,0,-1
 1038 1800 l 1,1,-1
 1038 1607 l 1,2,-1
 773 1607 l 1,3,-1
 773 1800 l 1,0,-1
174 1566 m 2,4,5
 174 1692 174 1692 239.5 1761.5 c 128,-1,6
 305 1831 305 1831 414 1831 c 128,-1,7
 523 1831 523 1831 590 1806 c 1,8,-1
 590 1640 l 1,9,10
 560 1644 560 1644 520 1644 c 0,11,12
 438 1644 438 1644 438 1558 c 2,13,-1
 438 1500 l 1,14,-1
 1038 1500 l 1,15,-1
 1038 0 l 1,16,-1
 773 0 l 1,17,-1
 773 1309 l 1,18,-1
 438 1309 l 1,19,-1
 438 0 l 1,20,-1
 173 0 l 1,21,-1
 173 1309 l 1,22,-1
 57 1309 l 1,23,-1
 57 1500 l 1,24,-1
 174 1500 l 1,25,-1
 174 1566 l 2,4,5
EndSplineSet
EndChar

StartChar: uniFB02
Encoding: 64258 64258 430
Width: 1171
Flags: W
LayerCount: 2
UndoRedoHistory
Layer: 1
Undoes
EndUndoes
Redoes
EndRedoes
EndUndoRedoHistory
Fore
SplineSet
174 1519 m 2,0,1
 174 1675 174 1675 222 1723 c 0,2,3
 276 1777 276 1777 348 1787.5 c 128,-1,4
 420 1798 420 1798 493 1798 c 0,5,6
 683 1798 683 1798 1036 1737 c 1,7,-1
 1036 0 l 1,8,-1
 772 0 l 1,9,-1
 772 1593 l 1,10,11
 642 1622 642 1622 586 1622 c 128,-1,12
 530 1622 530 1622 504 1614.5 c 128,-1,13
 478 1607 478 1607 465.5 1598 c 128,-1,14
 453 1589 453 1589 446 1572 c 0,15,16
 438 1553 438 1553 438 1533 c 2,17,-1
 438 1441 l 1,18,-1
 590 1441 l 1,19,-1
 590 1250 l 1,20,-1
 438 1250 l 1,21,-1
 438 0 l 1,22,-1
 173 0 l 1,23,-1
 173 1250 l 1,24,-1
 57 1250 l 1,25,-1
 57 1441 l 1,26,-1
 174 1441 l 1,27,-1
 174 1519 l 2,0,1
EndSplineSet
EndChar

StartChar: uniFB03
Encoding: 64259 64259 431
Width: 1808
Flags: W
LayerCount: 2
UndoRedoHistory
Layer: 1
Undoes
EndUndoes
Redoes
EndRedoes
EndUndoRedoHistory
Fore
SplineSet
1410 1800 m 1,0,-1
 1675 1800 l 1,1,-1
 1675 1607 l 1,2,-1
 1410 1607 l 1,3,-1
 1410 1800 l 1,0,-1
811 1571 m 2,4,5
 811 1697 811 1697 876.5 1766.5 c 128,-1,6
 942 1836 942 1836 1051 1836 c 128,-1,7
 1160 1836 1160 1836 1227 1811 c 1,8,-1
 1227 1645 l 1,9,10
 1198 1649 1198 1649 1158 1649 c 0,11,12
 1076 1649 1076 1649 1075 1563 c 2,13,-1
 1075 1500 l 1,14,-1
 1675 1500 l 1,15,-1
 1675 0 l 1,16,-1
 1410 0 l 1,17,-1
 1410 1309 l 1,18,-1
 1075 1309 l 1,19,-1
 1075 0 l 1,20,-1
 810 0 l 1,21,-1
 810 1309 l 1,22,-1
 438 1309 l 1,23,-1
 438 0 l 1,24,-1
 173 0 l 1,25,-1
 173 1309 l 1,26,-1
 57 1309 l 1,27,-1
 57 1500 l 1,28,-1
 174 1500 l 1,29,-1
 174 1571 l 2,30,31
 174 1697 174 1697 239.5 1766.5 c 128,-1,32
 305 1836 305 1836 414 1836 c 128,-1,33
 523 1836 523 1836 590 1811 c 1,34,-1
 590 1645 l 1,35,36
 560 1649 560 1649 520 1649 c 0,37,38
 438 1649 438 1649 438 1563 c 2,39,-1
 438 1500 l 1,40,-1
 811 1500 l 1,41,-1
 811 1571 l 2,4,5
EndSplineSet
EndChar

StartChar: uniFB04
Encoding: 64260 64260 432
Width: 1808
Flags: W
LayerCount: 2
UndoRedoHistory
Layer: 1
Undoes
EndUndoes
Redoes
EndRedoes
EndUndoRedoHistory
Fore
SplineSet
811 1519 m 2,0,1
 811 1675 811 1675 859 1723 c 0,2,3
 913 1777 913 1777 985 1787.5 c 128,-1,4
 1057 1798 1057 1798 1130 1798 c 0,5,6
 1320 1798 1320 1798 1673 1737 c 1,7,-1
 1673 0 l 1,8,-1
 1409 0 l 1,9,-1
 1409 1593 l 1,10,11
 1278 1622 1278 1622 1222.5 1622 c 128,-1,12
 1167 1622 1167 1622 1141 1614.5 c 128,-1,13
 1115 1607 1115 1607 1102.5 1598 c 128,-1,14
 1090 1589 1090 1589 1083 1572 c 0,15,16
 1075 1553 1075 1553 1075 1533 c 2,17,-1
 1075 1441 l 1,18,-1
 1227 1441 l 1,19,-1
 1227 1250 l 1,20,-1
 1075 1250 l 1,21,-1
 1075 0 l 1,22,-1
 810 0 l 1,23,-1
 810 1250 l 1,24,-1
 438 1250 l 1,25,-1
 438 0 l 1,26,-1
 173 0 l 1,27,-1
 173 1250 l 1,28,-1
 57 1250 l 1,29,-1
 57 1441 l 1,30,-1
 174 1441 l 1,31,-1
 174 1519 l 2,32,33
 174 1645 174 1645 239.5 1714.5 c 128,-1,34
 305 1784 305 1784 414 1784 c 128,-1,35
 523 1784 523 1784 590 1759 c 1,36,-1
 590 1593 l 1,37,38
 560 1597 560 1597 520 1597 c 0,39,40
 438 1597 438 1597 438 1511 c 2,41,-1
 438 1441 l 1,42,-1
 811 1441 l 1,43,-1
 811 1519 l 2,0,1
EndSplineSet
EndChar
